<svg xmlns="http://www.w3.org/2000/svg" viewBox="0 0 72 72"><title>m</title><path d="M36,22.72a6.89,6.89,0,1,1,6.89-6.89A6.9,6.9,0,0,1,36,22.72Zm0-11.09a4.19,4.19,0,1,0,4.19,4.19A4.2,4.2,0,0,0,36,11.63Z" fill="gray"/><path d="M36,42.81a6.89,6.89,0,1,1,6.89-6.89A6.9,6.9,0,0,1,36,42.81Zm0-11.09a4.19,4.19,0,1,0,4.19,4.19A4.2,4.2,0,0,0,36,31.73Z" fill="gray"/><path d="M36,63.13a6.89,6.89,0,1,1,6.89-6.89A6.9,6.9,0,0,1,36,63.13ZM36,52a4.19,4.19,0,1,0,4.19,4.19A4.2,4.2,0,0,0,36,52Z" fill="gray"/></svg>