<svg xmlns="http://www.w3.org/2000/svg" viewBox="0 0 72 72"><defs><style>.cls-1{fill:none;}.cls-2{fill:gray;}</style></defs><title>m_014</title><g id="Rectangles"><rect class="cls-1" x="0.36" y="0.36" width="71.28" height="71.28"/><g id="Refresh_reload" data-name="Refresh, reload"><g id="_Group_" data-name="&lt;Group&gt;"><path class="cls-2" d="M34.09,63a25.27,25.27,0,1,1,6.81-49.6,1.5,1.5,0,1,1-.81,2.89A22.24,22.24,0,1,0,56.52,37.76a22.13,22.13,0,0,0-5.82-15,1.5,1.5,0,0,1,2.21-2A25.24,25.24,0,0,1,34.09,63Z"/></g><g id="_Group_2" data-name="&lt;Group&gt;"><path class="cls-2" d="M33.89,25.18a1.5,1.5,0,0,1-1.06-2.56l8.06-8.06L33,6.64a1.5,1.5,0,0,1,2.12-2.12l9,9a1.5,1.5,0,0,1,0,2.12l-9.12,9.12A1.5,1.5,0,0,1,33.89,25.18Z"/></g></g></g></svg>