<?xml version="1.0" encoding="utf-8"?>
<!-- Generator: Adobe Illustrator 19.2.0, SVG Export Plug-In . SVG Version: 6.00 Build 0)  -->
<svg version="1.1" xmlns="http://www.w3.org/2000/svg" xmlns:xlink="http://www.w3.org/1999/xlink" x="0px" y="0px" width="72px"
	 height="72px" viewBox="-611 991 72 72" style="enable-background:new -611 991 72 72;" xml:space="preserve">
<style type="text/css">
	.st0{fill:#808080;}
	.st1{fill:#3DD77A;}
	.st2{fill:#E50000;}
	.st3{fill:#FFBC00;}
	.st4{fill:#FF8578;}
	.st5{fill-rule:evenodd;clip-rule:evenodd;fill:#FF8575;}
	.st6{fill-rule:evenodd;clip-rule:evenodd;fill:#808080;}
	.st7{fill:none;stroke:#808080;stroke-width:4;stroke-miterlimit:10;}
	.st8{display:none;}
	.st9{display:inline;fill:none;}
</style>
<g id="SVG_icons">
	<g id="status-warning_1_">
		<g id="XMLID_149_">
			<path class="st3" d="M-574.96,1055.86c-15.89,0-28.82-12.93-28.82-28.82s12.93-28.82,28.82-28.82s28.82,12.93,28.82,28.82
				S-559.07,1055.86-574.96,1055.86z M-574.96,1002.22c-13.69,0-24.82,11.13-24.82,24.82s11.13,24.82,24.82,24.82
				s24.82-11.13,24.82-24.82S-561.27,1002.22-574.96,1002.22z"/>
		</g>
		<g id="XMLID_148_">
			<path class="st3" d="M-575.06,1038.9l-12.05-12.05l12.05-12.05l12.05,12.05L-575.06,1038.9z M-581.45,1026.85l6.39,6.39
				l6.39-6.39l-6.39-6.39L-581.45,1026.85z"/>
		</g>
	</g>
</g>
<g id="Rectangles" class="st8">
	<rect x="-610.64" y="991.36" class="st9" width="71.28" height="71.28"/>
</g>
</svg>
