<?xml version="1.0" encoding="utf-8"?>
<!-- Generator: Adobe Illustrator 19.2.0, SVG Export Plug-In . SVG Version: 6.00 Build 0)  -->
<svg version="1.1" xmlns="http://www.w3.org/2000/svg" xmlns:xlink="http://www.w3.org/1999/xlink" x="0px" y="0px" width="72px"
	 height="72px" viewBox="-683 991 72 72" style="enable-background:new -683 991 72 72;" xml:space="preserve">
<style type="text/css">
	.st0{fill:#808080;}
	.st1{fill:#3DD77A;}
	.st2{fill:#E50000;}
	.st3{fill:#FFBC00;}
	.st4{fill:#FF8578;}
	.st5{fill-rule:evenodd;clip-rule:evenodd;fill:#FF8575;}
	.st6{fill-rule:evenodd;clip-rule:evenodd;fill:#808080;}
	.st7{fill:none;stroke:#808080;stroke-width:4;stroke-miterlimit:10;}
	.st8{display:none;}
	.st9{display:inline;fill:none;}
</style>
<g id="SVG_icons">
	<g id="status-error_1_">
		<g id="XMLID_153_">
			<path class="st2" d="M-646.78,1055.86c-15.89,0-28.82-12.93-28.82-28.82s12.93-28.82,28.82-28.82s28.82,12.93,28.82,28.82
				S-630.89,1055.86-646.78,1055.86z M-646.78,1002.22c-13.69,0-24.82,11.13-24.82,24.82s11.13,24.82,24.82,24.82
				s24.82-11.13,24.82-24.82S-633.09,1002.22-646.78,1002.22z"/>
		</g>
		<g id="XMLID_150_">
			<g id="XMLID_152_">
				
					<rect x="-648.71" y="1014.66" transform="matrix(0.7071 -0.7071 0.7071 0.7071 -915.6037 -156.4976)" class="st2" width="4" height="24.64"/>
			</g>
			<g id="XMLID_151_">
				
					<rect x="-659.03" y="1024.98" transform="matrix(0.7071 -0.7071 0.7071 0.7071 -915.6037 -156.4976)" class="st2" width="24.64" height="4"/>
			</g>
		</g>
	</g>
</g>
<g id="Rectangles" class="st8">
	<rect x="-682.64" y="991.36" class="st9" width="71.28" height="71.28"/>
</g>
</svg>
