<?xml version="1.0" encoding="utf-8"?>
<!-- Generator: Adobe Illustrator 19.2.0, SVG Export Plug-In . SVG Version: 6.00 Build 0)  -->
<svg version="1.1" xmlns="http://www.w3.org/2000/svg" xmlns:xlink="http://www.w3.org/1999/xlink" x="0px" y="0px" width="72px"
	 height="72px" viewBox="-755 1207 72 72" style="enable-background:new -755 1207 72 72;" xml:space="preserve">
<style type="text/css">
	.st0{fill:#808080;}
	.st1{fill:#3DD77A;}
	.st2{fill:#E50000;}
	.st3{fill:#FFBC00;}
	.st4{fill:#FF8578;}
	.st5{fill-rule:evenodd;clip-rule:evenodd;fill:#FF8575;}
	.st6{fill-rule:evenodd;clip-rule:evenodd;fill:#808080;}
	.st7{fill:none;stroke:#808080;stroke-width:4;stroke-miterlimit:10;}
	.st8{display:none;}
	.st9{display:inline;fill:none;}
</style>
<g id="SVG_icons">
	<g id="error">
		<g id="XMLID_113_">
			<path class="st0" d="M-698.25,1269.73h-41.19c-3.56,0-6.81-1.86-8.49-4.86c-1.59-2.84-1.53-6.19,0.16-8.98l20.59-35.2
				c1.77-2.89,4.87-4.59,8.33-4.59s6.57,1.71,8.31,4.56l20.62,35.25c1.68,2.76,1.75,6.12,0.16,8.96
				C-691.44,1267.87-694.7,1269.73-698.25,1269.73z M-718.85,1220.1c-2.06,0-3.89,0.99-4.9,2.65l-20.58,35.18
				c-0.01,0.01-0.01,0.02-0.02,0.03c-0.95,1.56-0.99,3.37-0.1,4.95c0.99,1.76,2.86,2.82,5,2.82h41.19c2.14,0,4.01-1.05,5-2.82
				c0.89-1.59,0.85-3.39-0.1-4.95l-20.62-35.25C-714.96,1221.09-716.79,1220.1-718.85,1220.1z M-746.06,1256.92L-746.06,1256.92
				L-746.06,1256.92z"/>
		</g>
		<g id="XMLID_112_">
			<rect x="-720.97" y="1229.44" class="st0" width="4" height="22.45"/>
		</g>
		<g id="XMLID_111_">
			<rect x="-720.97" y="1256.22" class="st0" width="4" height="4.86"/>
		</g>
	</g>
</g>
<g id="Rectangles" class="st8">
	<rect x="-754.64" y="1207.36" class="st9" width="71.28" height="71.28"/>
</g>
</svg>
