<svg xmlns="http://www.w3.org/2000/svg" viewBox="0 0 72 72"><title>1-icons_expanded</title><path d="M28,67.87a2,2,0,0,1-2-2c0-2.87,0-6.78,0-9.09H12.16A5.65,5.65,0,0,1,6.51,51V12.68a5.65,5.65,0,0,1,5.66-5.76h47.2a5.74,5.74,0,0,1,5.71,5.76V51a5.74,5.74,0,0,1-5.71,5.76H43.45L29.21,67.47A2,2,0,0,1,28,67.87ZM12.16,10.93a1.67,1.67,0,0,0-1.66,1.76V51a1.67,1.67,0,0,0,1.66,1.76H28c2,0,2,1.65,2,3.73v5.36l11.57-8.69a2,2,0,0,1,1.2-.4H59.37A1.71,1.71,0,0,0,61.07,51V12.68a1.71,1.71,0,0,0-1.71-1.76Z" fill="gray"/><path d="M35.79,38.56a6.06,6.06,0,1,1,6.09-6.06A6.08,6.08,0,0,1,35.79,38.56Zm0-10.28A4.22,4.22,0,1,0,40,32.5,4.24,4.24,0,0,0,35.79,28.28Z" fill="gray"/><path d="M47.44,34.6A2.12,2.12,0,0,0,45.84,36a10.72,10.72,0,0,1-.48,1.14,2.1,2.1,0,0,0,.14,2.1l2,2.92-2,2-2.94-2A2.14,2.14,0,0,0,40.43,42a10.8,10.8,0,0,1-1.15.48,2.12,2.12,0,0,0-1.39,1.58l-.65,3.52h-2.9l-.65-3.52a2.12,2.12,0,0,0-1.39-1.58A10.86,10.86,0,0,1,31.16,42a2.13,2.13,0,0,0-2.11.14l-2.92,2-2-2,2-2.91a2.11,2.11,0,0,0,.15-2.1A10.67,10.67,0,0,1,25.75,36a2.13,2.13,0,0,0-1.59-1.38l-3.81-.65V31.07l3.81-.65A2.12,2.12,0,0,0,25.75,29a10.52,10.52,0,0,1,.48-1.14,2.1,2.1,0,0,0-.14-2.1l-2-3,2-2,3,2a2.14,2.14,0,0,0,2.11.15,10.78,10.78,0,0,1,1.14-.47,2.12,2.12,0,0,0,1.39-1.58l.65-3.73h2.9l.65,3.73a2.12,2.12,0,0,0,1.39,1.58,10.62,10.62,0,0,1,1.14.47,2.14,2.14,0,0,0,2.11-.14l3-2.05,2,2-2.06,3a2.11,2.11,0,0,0-.15,2.1A10.65,10.65,0,0,1,45.84,29a2.12,2.12,0,0,0,1.59,1.38l3.52.65v2.88ZM51.27,29,48,28.29a12.9,12.9,0,0,0-.58-1.38l1.87-2.78a2.13,2.13,0,0,0-.27-2.7l-2.07-2.06a2.16,2.16,0,0,0-2.71-.27L41.41,21A13,13,0,0,0,40,20.39l-.66-3.28a2.15,2.15,0,0,0-2.11-1.72H34.33a2.15,2.15,0,0,0-2.11,1.72l-.66,3.28a13,13,0,0,0-1.39.57l-2.8-1.86a2.16,2.16,0,0,0-2.71.27l-2.07,2.06a2.13,2.13,0,0,0-.27,2.7l1.87,2.78a12.78,12.78,0,0,0-.58,1.38l-3.3.66A2.14,2.14,0,0,0,18.59,31V34a2.14,2.14,0,0,0,1.73,2.1l3.3.66a12.89,12.89,0,0,0,.58,1.38l-1.86,2.78a2.13,2.13,0,0,0,.27,2.7l2.07,2.06a2.16,2.16,0,0,0,2.71.27L30.17,44a12.72,12.72,0,0,0,1.39.57l.66,3.28a2.15,2.15,0,0,0,2.11,1.72h2.92a2.15,2.15,0,0,0,2.11-1.72L40,44.62A13,13,0,0,0,41.41,44l2.8,1.86a2.16,2.16,0,0,0,2.71-.27L49,43.57a2.13,2.13,0,0,0,.27-2.7l-1.87-2.78A12.68,12.68,0,0,0,48,36.71l3.29-.66A2.14,2.14,0,0,0,53,34V31A2.14,2.14,0,0,0,51.27,29Z" fill="gray" fill-rule="evenodd"/></svg>