<svg xmlns="http://www.w3.org/2000/svg" viewBox="0 0 72 72"><title>1-icons_expanded</title><path d="M28.07,67.52a1.5,1.5,0,0,1-1.5-1.5c0-3.09,0-7.38,0-9.59H12.22a5.15,5.15,0,0,1-5.16-5.26V12.83a5.15,5.15,0,0,1,5.16-5.26h47.2a5.24,5.24,0,0,1,5.21,5.26V51.17a5.24,5.24,0,0,1-5.21,5.26H43.34L29,67.22A1.5,1.5,0,0,1,28.07,67.52ZM12.22,10.58a2.18,2.18,0,0,0-2.16,2.26V51.17a2.18,2.18,0,0,0,2.16,2.26H28c1.5,0,1.51,1,1.51,3.23V63l12.37-9.29a1.5,1.5,0,0,1,.9-0.3H59.42a2.21,2.21,0,0,0,2.21-2.26V12.83a2.21,2.21,0,0,0-2.21-2.26H12.22Z" fill="gray"/><path d="M35.79,37.55a5.05,5.05,0,1,1,5.07-5.05A5.07,5.07,0,0,1,35.79,37.55Zm0-8.57a3.51,3.51,0,1,0,3.54,3.52A3.53,3.53,0,0,0,35.79,29Z" fill="gray"/><path d="M45.49,34.25a1.77,1.77,0,0,0-1.33,1.15,8.93,8.93,0,0,1-.4.95,1.75,1.75,0,0,0,.12,1.75l1.68,2.43-1.71,1.7-2.45-1.67a1.78,1.78,0,0,0-1.76-.12,9,9,0,0,1-1,.4,1.77,1.77,0,0,0-1.16,1.32L37,45.09H34.59L34,42.15a1.77,1.77,0,0,0-1.16-1.32,9.05,9.05,0,0,1-1-.39,1.78,1.78,0,0,0-1.76.12l-2.44,1.66L26,40.52,27.7,38.1a1.76,1.76,0,0,0,.12-1.75,8.89,8.89,0,0,1-.4-0.95,1.77,1.77,0,0,0-1.33-1.15l-3.18-.54v-2.4l3.18-.54a1.77,1.77,0,0,0,1.33-1.15,8.77,8.77,0,0,1,.4-0.95,1.75,1.75,0,0,0-.12-1.75L26,24.45l1.71-1.7,2.48,1.7a1.78,1.78,0,0,0,1.76.12,9,9,0,0,1,1-.4A1.77,1.77,0,0,0,34,22.86l0.54-3.11H37l0.54,3.11a1.77,1.77,0,0,0,1.16,1.32,8.85,8.85,0,0,1,1,.39,1.78,1.78,0,0,0,1.76-.12l2.49-1.71,1.71,1.7-1.72,2.48a1.76,1.76,0,0,0-.12,1.75,8.88,8.88,0,0,1,.4.95,1.77,1.77,0,0,0,1.33,1.15l2.93,0.54v2.4Zm3.19-4.7L45.94,29a10.75,10.75,0,0,0-.48-1.15L47,25.53a1.77,1.77,0,0,0-.22-2.25l-1.72-1.71a1.8,1.8,0,0,0-2.26-.22l-2.33,1.55a10.87,10.87,0,0,0-1.16-.48l-0.55-2.73A1.79,1.79,0,0,0,37,18.24H34.57a1.79,1.79,0,0,0-1.76,1.43l-0.55,2.73a10.87,10.87,0,0,0-1.16.48l-2.33-1.55a1.8,1.8,0,0,0-2.26.22l-1.72,1.71a1.77,1.77,0,0,0-.22,2.25l1.55,2.32A10.65,10.65,0,0,0,25.64,29l-2.75.55a1.79,1.79,0,0,0-1.44,1.75v2.42a1.78,1.78,0,0,0,1.44,1.75L25.64,36a10.74,10.74,0,0,0,.48,1.15l-1.55,2.32a1.77,1.77,0,0,0,.22,2.25l1.72,1.71a1.8,1.8,0,0,0,2.26.22l2.33-1.55a10.6,10.6,0,0,0,1.16.48l0.55,2.73a1.79,1.79,0,0,0,1.76,1.43H37a1.79,1.79,0,0,0,1.76-1.43l0.55-2.73a10.87,10.87,0,0,0,1.16-.48l2.33,1.55a1.8,1.8,0,0,0,2.26-.22l1.72-1.71A1.77,1.77,0,0,0,47,39.48l-1.56-2.32A10.57,10.57,0,0,0,45.94,36l2.75-.55a1.78,1.78,0,0,0,1.44-1.75V31.29A1.79,1.79,0,0,0,48.69,29.54Z" fill="gray" fill-rule="evenodd"/></svg>