<?xml version="1.0" encoding="utf-8"?>
<!-- Generator: Adobe Illustrator 19.2.0, SVG Export Plug-In . SVG Version: 6.00 Build 0)  -->
<svg version="1.1" id="Layer_1" xmlns="http://www.w3.org/2000/svg" xmlns:xlink="http://www.w3.org/1999/xlink" x="0px" y="0px"
	 width="72px" height="72px" viewBox="0 0 72 72" style="enable-background:new 0 0 72 72;" xml:space="preserve">
<style type="text/css">
	.st0{fill:#808080;}
</style>
<title>1-icons_special</title>
<path class="st0" d="M50.1,33.7l6.5-6.5c0.8-0.8,0.8-2,0-2.8c-0.8-0.8-2-0.8-2.8,0l-6.5,6.5l-6.5-6.5c-0.8-0.8-2-0.8-2.8,0
	c-0.8,0.8-0.8,2,0,2.8l6.5,6.5l-6.5,6.5c-0.8,0.8-0.8,2,0,2.8c0.8,0.8,2,0.8,2.8,0l0,0l6.5-6.5l6.5,6.5c0.8,0.8,2,0.8,2.8,0
	s0.8-2,0-2.8L50.1,33.7z"/>
<path class="st0" d="M67.3,9.7c-0.3-0.7-1-1.2-1.8-1.2H6.1c-1.1,0-2,0.9-2,2c0,0.5,0.2,0.9,0.5,1.3l22,26.9v26.1c0,1.1,0.9,2,2,2
	c0.3,0,0.5-0.1,0.8-0.2L42.7,61c0.7-0.3,1.2-1,1.2-1.8V52c9.9,1.8,19.5-4.8,21.2-14.8c1.1-6.1-1-12.4-5.5-16.6l7.4-8.8
	C67.5,11.3,67.6,10.4,67.3,9.7z M39.9,57.9l-9.3,4v-20c1.9,4,5.2,7.2,9.3,8.9V57.9z M63.4,34c0,9-7.4,16.3-16.4,16.3
	c-9,0-16.3-7.4-16.3-16.4c0-9,7.3-16.3,16.3-16.3C56.1,17.7,63.4,25,63.4,34C63.4,34,63.4,34,63.4,34z M56.4,18.3
	c-8.7-5.2-19.9-2.3-25.1,6.4c-1.7,2.8-2.6,6.1-2.6,9.4c0,0.4,0,0.8,0.1,1.2L10.3,12.6h50.8L56.4,18.3z"/>
</svg>
