<?xml version="1.0" encoding="utf-8"?>
<!-- Generator: Adobe Illustrator 19.2.0, SVG Export Plug-In . SVG Version: 6.00 Build 0)  -->
<svg version="1.1" xmlns="http://www.w3.org/2000/svg" xmlns:xlink="http://www.w3.org/1999/xlink" x="0px" y="0px" width="72px"
	 height="72px" viewBox="-611 1207 72 72" style="enable-background:new -611 1207 72 72;" xml:space="preserve">
<style type="text/css">
	.st0{fill:#808080;}
	.st1{fill:#3DD77A;}
	.st2{fill:#E50000;}
	.st3{fill:#FFBC00;}
	.st4{fill:#FF8578;}
	.st5{fill-rule:evenodd;clip-rule:evenodd;fill:#FF8575;}
	.st6{fill-rule:evenodd;clip-rule:evenodd;fill:#808080;}
	.st7{fill:none;stroke:#808080;stroke-width:4;stroke-miterlimit:10;}
	.st8{display:none;}
	.st9{display:inline;fill:none;}
</style>
<g id="SVG_icons">
	<g id="error-red-fill">
		<path class="st2" d="M-546.12,1255.91l-20.62-35.25c-1.75-2.86-4.85-4.56-8.31-4.56s-6.57,1.71-8.33,4.59l-20.59,35.2
			c-1.69,2.79-1.76,6.14-0.16,8.98c1.68,3,4.93,4.86,8.49,4.86h41.19c3.56,0,6.81-1.86,8.49-4.86
			C-544.37,1262.02-544.44,1258.66-546.12,1255.91z M-572.93,1261h-4v-4.86h4V1261z M-572.93,1251.82h-4v-22.45h4V1251.82z"/>
	</g>
</g>
<g id="Rectangles" class="st8">
	<rect x="-610.64" y="1207.36" class="st9" width="71.28" height="71.28"/>
</g>
</svg>
