<?xml version="1.0" encoding="utf-8"?>
<!-- Generator: Adobe Illustrator 19.2.0, SVG Export Plug-In . SVG Version: 6.00 Build 0)  -->
<svg version="1.1" xmlns="http://www.w3.org/2000/svg" xmlns:xlink="http://www.w3.org/1999/xlink" x="0px" y="0px" width="72px"
	 height="72px" viewBox="-539 991 72 72" style="enable-background:new -539 991 72 72;" xml:space="preserve">
<style type="text/css">
	.st0{fill:#808080;}
	.st1{fill:#3DD77A;}
	.st2{fill:#E50000;}
	.st3{fill:#FFBC00;}
	.st4{fill:#FF8578;}
	.st5{fill-rule:evenodd;clip-rule:evenodd;fill:#FF8575;}
	.st6{fill-rule:evenodd;clip-rule:evenodd;fill:#808080;}
	.st7{fill:none;stroke:#808080;stroke-width:4;stroke-miterlimit:10;}
	.st8{display:none;}
	.st9{display:inline;fill:none;}
</style>
<g id="SVG_icons">
	<path class="st2" d="M-502.89,998.22c-15.89,0-28.82,12.93-28.82,28.82s12.93,28.82,28.82,28.82s28.82-12.93,28.82-28.82
		S-486.99,998.22-502.89,998.22z M-502.89,1051.86c-6.12,0-11.73-2.23-16.06-5.92l13-13l-2.83-2.83l-13,13
		c-3.69-4.33-5.93-9.95-5.93-16.07c0-13.69,11.13-24.82,24.82-24.82c6.13,0,11.74,2.24,16.07,5.93l-12.88,12.88l2.83,2.83
		l12.88-12.88c3.69,4.33,5.92,9.94,5.92,16.06C-478.07,1040.72-489.2,1051.86-502.89,1051.86z"/>
</g>
<g id="Rectangles" class="st8">
	<rect x="-538.64" y="991.36" class="st9" width="71.28" height="71.28"/>
</g>
</svg>
