<?xml version="1.0" encoding="utf-8"?>
<!-- Generator: Adobe Illustrator 19.2.0, SVG Export Plug-In . SVG Version: 6.00 Build 0)  -->
<svg version="1.1" xmlns="http://www.w3.org/2000/svg" xmlns:xlink="http://www.w3.org/1999/xlink" x="0px" y="0px" width="72px"
	 height="72px" viewBox="-467 991 72 72" style="enable-background:new -467 991 72 72;" xml:space="preserve">
<style type="text/css">
	.st0{fill:#808080;}
	.st1{fill:#3DD77A;}
	.st2{fill:#E50000;}
	.st3{fill:#FFBC00;}
	.st4{fill:#FF8578;}
	.st5{fill-rule:evenodd;clip-rule:evenodd;fill:#FF8575;}
	.st6{fill-rule:evenodd;clip-rule:evenodd;fill:#808080;}
	.st7{fill:none;stroke:#808080;stroke-width:4;stroke-miterlimit:10;}
	.st8{display:none;}
	.st9{display:inline;fill:none;}
</style>
<g id="SVG_icons">
	<path class="st0" d="M-430.81,998.22c-15.89,0-28.82,12.93-28.82,28.82s12.93,28.82,28.82,28.82s28.82-12.93,28.82-28.82
		S-414.92,998.22-430.81,998.22z M-430.81,1051.86c-12.99,0-23.68-10.04-24.73-22.77h15.52v10.7h4v-14.7h-19.53
		c1-12.78,11.71-22.87,24.74-22.87s23.74,10.09,24.74,22.87h-15.8v-10.7h-4v14.7h19.79
		C-407.13,1041.82-417.82,1051.86-430.81,1051.86z"/>
</g>
<g id="Rectangles" class="st8">
	<rect x="-466.64" y="991.36" class="st9" width="71.28" height="71.28"/>
</g>
</svg>
