<?xml version="1.0" encoding="utf-8"?>
<!-- Generator: Adobe Illustrator 19.2.0, SVG Export Plug-In . SVG Version: 6.00 Build 0)  -->
<svg version="1.1" xmlns="http://www.w3.org/2000/svg" xmlns:xlink="http://www.w3.org/1999/xlink" x="0px" y="0px" width="72px"
	 height="72px" viewBox="-395 991 72 72" style="enable-background:new -395 991 72 72;" xml:space="preserve">
<style type="text/css">
	.st0{fill:#808080;}
	.st1{fill:#3DD77A;}
	.st2{fill:#E50000;}
	.st3{fill:#FFBC00;}
	.st4{fill:#FF8578;}
	.st5{fill-rule:evenodd;clip-rule:evenodd;fill:#FF8575;}
	.st6{fill-rule:evenodd;clip-rule:evenodd;fill:#808080;}
	.st7{fill:none;stroke:#808080;stroke-width:4;stroke-miterlimit:10;}
	.st8{display:none;}
	.st9{display:inline;fill:none;}
</style>
<g id="SVG_icons">
	<g id="status-pending">
		<g id="XMLID_140_">
			<path class="st3" d="M-358.74,1055.86c-15.89,0-28.82-12.93-28.82-28.82s12.93-28.82,28.82-28.82s28.82,12.93,28.82,28.82
				S-342.85,1055.86-358.74,1055.86z M-358.74,1002.22c-13.69,0-24.82,11.13-24.82,24.82s11.13,24.82,24.82,24.82
				s24.82-11.13,24.82-24.82S-345.06,1002.22-358.74,1002.22z"/>
		</g>
		<g id="XMLID_139_">
			<polygon class="st3" points="-340.78,1030.1 -362.63,1030.1 -362.63,1017.67 -358.63,1017.67 -358.63,1026.1 -340.78,1026.1 			
				"/>
		</g>
	</g>
</g>
<g id="Rectangles" class="st8">
	<rect x="-394.64" y="991.36" class="st9" width="71.28" height="71.28"/>
</g>
</svg>
