<svg xmlns="http://www.w3.org/2000/svg" viewBox="0 0 72 72"><defs><style>.cls-1{fill:gray;}.cls-2{fill:none;}</style></defs><title>m_031</title><g id="SVG_icons" data-name="SVG icons"><g id="Status_-_disconnected" data-name="Status - disconnected"><g id="_Group_" data-name="&lt;Group&gt;"><path class="cls-1" d="M36.49,64.72A28.32,28.32,0,1,1,64.81,36.4,28.35,28.35,0,0,1,36.49,64.72Zm0-53.64A25.32,25.32,0,1,0,61.81,36.4,25.35,25.35,0,0,0,36.49,11.08Z"/></g><g id="_Group_2" data-name="&lt;Group&gt;"><polygon class="cls-1" points="30.78 49.15 27.78 49.15 27.78 37.95 9.96 37.95 9.96 34.95 30.78 34.95 30.78 49.15"/></g><g id="_Group_3" data-name="&lt;Group&gt;"><polygon class="cls-1" points="63.27 37.95 41.92 37.95 41.92 23.76 44.92 23.76 44.92 34.95 63.27 34.95 63.27 37.95"/></g></g></g><g id="Rectangles"><rect class="cls-2" x="0.36" y="0.36" width="71.28" height="71.28"/></g></svg>