<?xml version="1.0" encoding="utf-8"?>
<!-- Generator: Adobe Illustrator 19.2.0, SVG Export Plug-In . SVG Version: 6.00 Build 0)  -->
<svg version="1.1" xmlns="http://www.w3.org/2000/svg" xmlns:xlink="http://www.w3.org/1999/xlink" x="0px" y="0px" width="72px"
	 height="72px" viewBox="-755 775 72 72" style="enable-background:new -755 775 72 72;" xml:space="preserve">
<style type="text/css">
	.st0{fill:#808080;}
	.st1{fill:#3DD77A;}
	.st2{fill:#E50000;}
	.st3{fill:#FFBC00;}
	.st4{fill:#FF8578;}
	.st5{fill-rule:evenodd;clip-rule:evenodd;fill:#FF8575;}
	.st6{fill-rule:evenodd;clip-rule:evenodd;fill:#808080;}
	.st7{fill:none;stroke:#808080;stroke-width:4;stroke-miterlimit:10;}
	.st8{display:none;}
	.st9{display:inline;fill:none;}
</style>
<g id="SVG_icons">
	<g id="control-rewindToFront">
		<g id="XMLID_27_">
			<path class="st0" d="M-699.87,832.78c-1.22,0-2.43-0.34-3.53-1.01l-23.27-14.22c-2.16-1.32-3.45-3.66-3.45-6.27
				s1.29-4.95,3.45-6.27l23.27-14.22c2.12-1.29,4.67-1.34,6.84-0.13c2.27,1.27,3.67,3.72,3.67,6.4v28.44c0,2.68-1.41,5.13-3.67,6.4
				C-697.61,832.49-698.74,832.78-699.87,832.78z M-701.32,828.36c0.88,0.54,1.9,0.56,2.79,0.06c1.02-0.57,1.63-1.66,1.63-2.91
				v-28.44c0-1.25-0.61-2.34-1.63-2.91c-0.9-0.5-1.91-0.48-2.79,0.06l-23.27,14.22c-0.96,0.59-1.53,1.65-1.53,2.86
				s0.57,2.27,1.53,2.86L-701.32,828.36z"/>
		</g>
		<g id="XMLID_26_">
			<path class="st0" d="M-735.69,831.03h-7.25c-1.1,0-2-0.9-2-2v-35.99c0-1.1,0.9-2,2-2h7.25c1.1,0,2,0.9,2,2v35.99
				C-733.69,830.14-734.58,831.03-735.69,831.03z M-740.94,827.03h3.25v-31.99h-3.25V827.03z"/>
		</g>
	</g>
</g>
<g id="Rectangles" class="st8">
	<rect x="-754.64" y="775.36" class="st9" width="71.28" height="71.28"/>
</g>
</svg>
