<svg xmlns="http://www.w3.org/2000/svg" viewBox="0 0 72 72"><defs><style>.cls-1{fill:none;}.cls-2{fill:gray;}</style></defs><title>m_044</title><g id="Rectangles"><rect class="cls-1" x="0.36" y="0.36" width="71.28" height="71.28"/><g id="Control_-_forward" data-name="Control - forward"><g id="_Group_" data-name="&lt;Group&gt;"><path class="cls-2" d="M27.24,57.25a6.25,6.25,0,0,1-3.06-.81,6.81,6.81,0,0,1-3.42-6V22a6.81,6.81,0,0,1,3.42-6,6.19,6.19,0,0,1,6.33.12L53.78,30.41a6.93,6.93,0,0,1,0,11.69L30.51,56.32A6.26,6.26,0,0,1,27.24,57.25Zm0-39a3.24,3.24,0,0,0-1.59.43A3.76,3.76,0,0,0,23.76,22V50.47a3.76,3.76,0,0,0,1.88,3.35,3.19,3.19,0,0,0,3.3-.07L52.21,39.53a3.93,3.93,0,0,0,0-6.57L28.95,18.75A3.26,3.26,0,0,0,27.24,18.25Z"/></g></g></g></svg>