<?xml version="1.0" encoding="utf-8"?>
<!-- Generator: Adobe Illustrator 19.2.0, SVG Export Plug-In . SVG Version: 6.00 Build 0)  -->
<svg version="1.1" xmlns="http://www.w3.org/2000/svg" xmlns:xlink="http://www.w3.org/1999/xlink" x="0px" y="0px" width="72px"
	 height="72px" viewBox="-395 775 72 72" style="enable-background:new -395 775 72 72;" xml:space="preserve">
<style type="text/css">
	.st0{fill:#808080;}
	.st1{fill:#3DD77A;}
	.st2{fill:#E50000;}
	.st3{fill:#FFBC00;}
	.st4{fill:#FF8578;}
	.st5{fill-rule:evenodd;clip-rule:evenodd;fill:#FF8575;}
	.st6{fill-rule:evenodd;clip-rule:evenodd;fill:#808080;}
	.st7{fill:none;stroke:#808080;stroke-width:4;stroke-miterlimit:10;}
	.st8{display:none;}
	.st9{display:inline;fill:none;}
</style>
<g id="SVG_icons">
	<path id="control-fastforward" class="st0" d="M-333.29,805.01l-23.27-14.22c-2.12-1.29-4.68-1.34-6.84-0.13
		c-2.27,1.27-3.67,3.72-3.67,6.4v3.61l-11.56-7.06c-1.9-1.16-4.18-1.2-6.11-0.12c-2.02,1.13-3.27,3.32-3.27,5.7v24.18
		c0,2.39,1.25,4.57,3.27,5.7c0.93,0.52,1.94,0.78,2.96,0.78c1.09,0,2.17-0.3,3.16-0.9l11.56-7.06v3.61c0,2.68,1.41,5.13,3.67,6.4
		c1.04,0.58,2.17,0.88,3.31,0.88c1.22,0,2.43-0.34,3.53-1.01l23.27-14.22c2.16-1.32,3.45-3.66,3.45-6.27
		S-331.13,806.33-333.29,805.01z M-380.71,825.54c-0.9,0.55-1.68,0.26-2.07,0.04c-0.77-0.43-1.23-1.26-1.23-2.21v-24.18
		c0-0.95,0.46-1.78,1.23-2.21c0.22-0.12,0.58-0.27,1.01-0.27c0.32,0,0.68,0.08,1.06,0.31l13.64,8.34v11.85L-380.71,825.54z
		 M-363.07,807.81l2.14,1.31c0.73,0.44,1.16,1.25,1.16,2.17s-0.43,1.73-1.16,2.17l-2.14,1.31V807.81z M-335.38,814.14l-23.27,14.22
		c-0.88,0.54-1.9,0.56-2.79,0.06c-1.02-0.57-1.63-1.66-1.63-2.91v-6.06l4.22-2.58c1.92-1.18,3.07-3.26,3.07-5.58
		s-1.15-4.41-3.07-5.58l-4.22-2.58v-6.06c0-1.25,0.61-2.34,1.63-2.91c0.43-0.24,0.89-0.36,1.35-0.36c0.49,0,0.99,0.14,1.44,0.42
		l23.27,14.22c0.96,0.59,1.53,1.65,1.53,2.86S-334.42,813.55-335.38,814.14z"/>
</g>
<g id="Rectangles" class="st8">
	<rect x="-394.64" y="775.36" class="st9" width="71.28" height="71.28"/>
</g>
</svg>
