<?xml version="1.0" encoding="utf-8"?>
<!-- Generator: Adobe Illustrator 19.2.0, SVG Export Plug-In . SVG Version: 6.00 Build 0)  -->
<svg version="1.1" xmlns="http://www.w3.org/2000/svg" xmlns:xlink="http://www.w3.org/1999/xlink" x="0px" y="0px" width="72px"
	 height="72px" viewBox="-683 775 72 72" style="enable-background:new -683 775 72 72;" xml:space="preserve">
<style type="text/css">
	.st0{fill:#808080;}
	.st1{fill:#3DD77A;}
	.st2{fill:#E50000;}
	.st3{fill:#FFBC00;}
	.st4{fill:#FF8578;}
	.st5{fill-rule:evenodd;clip-rule:evenodd;fill:#FF8575;}
	.st6{fill-rule:evenodd;clip-rule:evenodd;fill:#808080;}
	.st7{fill:none;stroke:#808080;stroke-width:4;stroke-miterlimit:10;}
	.st8{display:none;}
	.st9{display:inline;fill:none;}
</style>
<g id="SVG_icons">
	<g id="control-rewind">
		<g id="XMLID_25_">
			<path class="st0" d="M-637.63,832.78c-1.22,0-2.43-0.34-3.53-1.01l-23.27-14.22c-2.16-1.32-3.44-3.66-3.44-6.27
				s1.29-4.95,3.44-6.27l23.27-14.22c2.12-1.29,4.67-1.34,6.84-0.13c2.27,1.27,3.67,3.72,3.67,6.4v28.44c0,2.68-1.41,5.13-3.67,6.4
				C-635.36,832.49-636.5,832.78-637.63,832.78z M-637.63,793.79c-0.49,0-0.99,0.14-1.44,0.42l-23.27,14.22
				c-0.96,0.59-1.53,1.65-1.53,2.86s0.57,2.27,1.53,2.86l23.27,14.22c0.88,0.54,1.9,0.56,2.79,0.06c1.02-0.57,1.63-1.66,1.63-2.91
				v-28.44c0-1.25-0.61-2.34-1.63-2.91C-636.71,793.91-637.17,793.79-637.63,793.79z"/>
		</g>
	</g>
</g>
<g id="Rectangles" class="st8">
	<rect x="-682.64" y="775.36" class="st9" width="71.28" height="71.28"/>
</g>
</svg>
