<svg xmlns="http://www.w3.org/2000/svg" viewBox="0 0 72 72"><defs><style>.cls-1{fill:none;}.cls-2{fill:gray;}</style></defs><title>m_048</title><g id="Rectangles"><rect class="cls-1" x="0.36" y="0.36" width="71.28" height="71.28"/><g id="Control_-_forward_to_end" data-name="Control - forward to end"><g id="_Group_" data-name="&lt;Group&gt;"><path class="cls-2" d="M16.64,57.25a6.25,6.25,0,0,1-3.06-.81,6.81,6.81,0,0,1-3.42-6V22a6.81,6.81,0,0,1,3.42-6,6.19,6.19,0,0,1,6.33.12L43.18,30.41a6.93,6.93,0,0,1,0,11.69L19.91,56.32A6.26,6.26,0,0,1,16.64,57.25Zm0-39a3.24,3.24,0,0,0-1.59.43A3.76,3.76,0,0,0,13.17,22V50.47a3.76,3.76,0,0,0,1.88,3.35,3.19,3.19,0,0,0,3.3-.07L41.62,39.53a3.93,3.93,0,0,0,0-6.57L18.35,18.75A3.26,3.26,0,0,0,16.64,18.25Z"/></g><g id="_Group_2" data-name="&lt;Group&gt;"><path class="cls-2" d="M59.71,55.5H52.46A1.5,1.5,0,0,1,51,54V18a1.5,1.5,0,0,1,1.5-1.5h7.25a1.5,1.5,0,0,1,1.5,1.5V54A1.5,1.5,0,0,1,59.71,55.5ZM54,52.5h4.25v-33H54Z"/></g></g></g></svg>