<svg xmlns="http://www.w3.org/2000/svg" viewBox="0 0 72 72"><defs><style>.cls-1{fill:none;}.cls-2{fill:gray;}</style></defs><title>m_047</title><g id="Rectangles"><rect class="cls-1" x="0.36" y="0.36" width="71.28" height="71.28"/><g id="Control_-_fast_rewind" data-name="Control - fast rewind"><g id="_Group_" data-name="&lt;Group&gt;"><path class="cls-2" d="M58.4,54.33a5.54,5.54,0,0,1-2.9-.83L35.72,41.41a6.11,6.11,0,0,1,0-10.32L55.5,19a5.49,5.49,0,0,1,5.61-.11,6,6,0,0,1,3,5.27V48.34a6,6,0,0,1-3,5.27A5.53,5.53,0,0,1,58.4,54.33Zm0-33.15a2.55,2.55,0,0,0-1.33.39L37.29,33.65a3.11,3.11,0,0,0,0,5.2L57.07,50.94a2.49,2.49,0,0,0,2.58.05,3,3,0,0,0,1.49-2.65V24.16a3,3,0,0,0-1.49-2.65A2.53,2.53,0,0,0,58.4,21.18Z"/></g><g id="_Group_2" data-name="&lt;Group&gt;"><path class="cls-2" d="M37,57.25a6.25,6.25,0,0,1-3.27-.93L10.42,42.09a6.93,6.93,0,0,1,0-11.69L33.69,16.19A6.19,6.19,0,0,1,40,16.06a6.81,6.81,0,0,1,3.42,6V50.47a6.81,6.81,0,0,1-3.42,6A6.25,6.25,0,0,1,37,57.25Zm0-39a3.26,3.26,0,0,0-1.71.49L12,33a3.93,3.93,0,0,0,0,6.57L35.25,53.76a3.18,3.18,0,0,0,3.3.07,3.76,3.76,0,0,0,1.88-3.35V22a3.76,3.76,0,0,0-1.88-3.35A3.24,3.24,0,0,0,37,18.25Z"/></g></g></g></svg>