<?xml version="1.0" encoding="utf-8"?>
<!-- Generator: Adobe Illustrator 19.2.0, SVG Export Plug-In . SVG Version: 6.00 Build 0)  -->
<svg version="1.1" xmlns="http://www.w3.org/2000/svg" xmlns:xlink="http://www.w3.org/1999/xlink" x="0px" y="0px" width="72px"
	 height="72px" viewBox="-467 775 72 72" style="enable-background:new -467 775 72 72;" xml:space="preserve">
<style type="text/css">
	.st0{fill:#808080;}
	.st1{fill:#3DD77A;}
	.st2{fill:#E50000;}
	.st3{fill:#FFBC00;}
	.st4{fill:#FF8578;}
	.st5{fill-rule:evenodd;clip-rule:evenodd;fill:#FF8575;}
	.st6{fill-rule:evenodd;clip-rule:evenodd;fill:#808080;}
	.st7{fill:none;stroke:#808080;stroke-width:4;stroke-miterlimit:10;}
	.st8{display:none;}
	.st9{display:inline;fill:none;}
</style>
<g id="SVG_icons">
	<path id="control-fastrewind" class="st0" d="M-405.42,793.49c-1.93-1.08-4.22-1.04-6.11,0.12l-11.3,6.91v-3.46
		c0-2.68-1.41-5.13-3.67-6.4c-2.16-1.21-4.72-1.16-6.84,0.13l-23.27,14.22c-2.16,1.32-3.44,3.66-3.44,6.27s1.29,4.95,3.44,6.27
		l23.27,14.22c1.1,0.67,2.31,1.01,3.53,1.01c1.13,0,2.26-0.29,3.31-0.88c2.26-1.27,3.67-3.72,3.67-6.4v-3.46l11.3,6.91
		c0.98,0.6,2.07,0.9,3.16,0.9c1.01,0,2.03-0.26,2.96-0.78c2.02-1.13,3.27-3.32,3.27-5.7v-24.18
		C-402.14,796.81-403.4,794.62-405.42,793.49z M-426.83,825.51c0,1.25-0.61,2.34-1.63,2.91c-0.9,0.5-1.91,0.48-2.79-0.06
		l-23.27-14.22c-0.96-0.59-1.53-1.65-1.53-2.86s0.57-2.27,1.53-2.86l23.27-14.22c0.46-0.28,0.95-0.42,1.44-0.42
		c0.46,0,0.92,0.12,1.35,0.36c1.02,0.57,1.63,1.66,1.63,2.91v5.9l-4.47,2.73c-1.92,1.18-3.07,3.26-3.07,5.58s1.15,4.41,3.07,5.58
		l4.47,2.73V825.51z M-426.83,807.65v7.26l-2.39-1.46c-0.73-0.44-1.16-1.25-1.16-2.17s0.43-1.73,1.16-2.17L-426.83,807.65z
		 M-406.14,823.37c0,0.95-0.46,1.78-1.23,2.21c-0.39,0.22-1.18,0.5-2.07-0.04l-13.39-8.18v-12.15l13.39-8.18
		c0.89-0.55,1.68-0.26,2.07-0.04c0.77,0.43,1.23,1.26,1.23,2.21V823.37z"/>
</g>
<g id="Rectangles" class="st8">
	<rect x="-466.64" y="775.36" class="st9" width="71.28" height="71.28"/>
</g>
</svg>
