<svg xmlns="http://www.w3.org/2000/svg" viewBox="0 0 72 72"><defs><style>.cls-1{fill:none;}.cls-2{fill:gray;}</style></defs><title>m_046</title><g id="Rectangles"><rect class="cls-1" x="0.36" y="0.36" width="71.28" height="71.28"/><g id="Control_-_fast_forward" data-name="Control - fast forward"><g id="_Group_" data-name="&lt;Group&gt;"><path class="cls-2" d="M34.68,57.25a6.25,6.25,0,0,1-3.06-.81,6.81,6.81,0,0,1-3.42-6V22a6.81,6.81,0,0,1,3.42-6,6.19,6.19,0,0,1,6.33.12L61.22,30.41a6.93,6.93,0,0,1,0,11.69L38,56.32A6.26,6.26,0,0,1,34.68,57.25Zm0-39a3.24,3.24,0,0,0-1.59.43A3.76,3.76,0,0,0,31.2,22V50.47a3.76,3.76,0,0,0,1.88,3.35,3.19,3.19,0,0,0,3.3-.07L59.65,39.53a3.93,3.93,0,0,0,0-6.57L36.39,18.75A3.26,3.26,0,0,0,34.68,18.25Z"/></g><g id="_Group_2" data-name="&lt;Group&gt;"><path class="cls-2" d="M13,54.33a5.53,5.53,0,0,1-2.71-.72,6,6,0,0,1-3-5.27V24.16a6,6,0,0,1,3-5.27,5.48,5.48,0,0,1,5.61.11L35.66,31.09a6.11,6.11,0,0,1,0,10.32L15.89,53.5h0A5.54,5.54,0,0,1,13,54.33Zm0-33.15a2.53,2.53,0,0,0-1.24.33,3,3,0,0,0-1.49,2.65V48.34A3,3,0,0,0,11.75,51a2.49,2.49,0,0,0,2.58-.05L34.1,38.85a3.12,3.12,0,0,0,0-5.2L14.32,21.56A2.54,2.54,0,0,0,13,21.18Z"/></g></g></g></svg>