<svg xmlns="http://www.w3.org/2000/svg" viewBox="0 0 72 72"><defs><style>.cls-1{fill:none;}.cls-2{fill:gray;}</style></defs><title>m_045</title><g id="Rectangles"><rect class="cls-1" x="0.36" y="0.36" width="71.28" height="71.28"/><g id="Control_-_rewind" data-name="Control - rewind"><g id="_Group_" data-name="&lt;Group&gt;"><path class="cls-2" d="M45.14,57.25a6.25,6.25,0,0,1-3.27-.93L18.6,42.09a6.93,6.93,0,0,1,0-11.69L41.87,16.19a6.19,6.19,0,0,1,6.33-.12,6.81,6.81,0,0,1,3.42,6V50.47a6.81,6.81,0,0,1-3.42,6A6.25,6.25,0,0,1,45.14,57.25Zm0-39a3.26,3.26,0,0,0-1.71.49L20.17,33a3.93,3.93,0,0,0,0,6.57L43.44,53.76a3.18,3.18,0,0,0,3.3.07,3.76,3.76,0,0,0,1.88-3.35V22a3.76,3.76,0,0,0-1.88-3.35A3.24,3.24,0,0,0,45.14,18.25Z"/></g></g></g></svg>