<svg xmlns="http://www.w3.org/2000/svg" viewBox="0 0 72 72"><title>1-icons_expanded</title><path d="M28.07,67.52a1.5,1.5,0,0,1-1.5-1.5c0-3.09,0-7.38,0-9.59H12.22a5.15,5.15,0,0,1-5.16-5.26V12.83a5.15,5.15,0,0,1,5.16-5.26h47.2a5.24,5.24,0,0,1,5.21,5.26V51.17a5.24,5.24,0,0,1-5.21,5.26H43.34L29,67.22A1.5,1.5,0,0,1,28.07,67.52ZM12.22,10.58a2.18,2.18,0,0,0-2.16,2.26V51.17a2.18,2.18,0,0,0,2.16,2.26H28c1.5,0,1.51,1,1.51,3.23V63l12.37-9.29a1.5,1.5,0,0,1,.9-0.3H59.42a2.21,2.21,0,0,0,2.21-2.26V12.83a2.21,2.21,0,0,0-2.21-2.26H12.22Z" fill="gray"/><path d="M40.86,34.88C42,35.73,45.29,36.51,48,38a1.9,1.9,0,0,1,1,1.61c0.07,0.43.21,5.55,0.21,5.55H22.79s0.14-5.13.2-5.55A1.82,1.82,0,0,1,24,38c2.64-1.49,6.48-2.18,7.59-3a6.84,6.84,0,0,0,.9-3.35c-0.05-.65-0.95-0.72-1-1.94a3.93,3.93,0,0,0-.72-0.82,3.5,3.5,0,0,1-.69-1.87c0-.79.16-0.59,0.16-1.58a12.34,12.34,0,0,1,.53-3.85,4.26,4.26,0,0,1,1.64-2.31c1-.61.58,0.2,3.82-0.52,2.1-.47,5.39,1.71,5.42,3.45A12.71,12.71,0,0,0,42,25.3a5.15,5.15,0,0,1,.3,1.31,4.7,4.7,0,0,1-.69,2.17,4.07,4.07,0,0,0-.54,1.28c-0.17,1.32-1.05,1-1.09,1.72S40.44,34.65,40.86,34.88Z" fill="gray" fill-rule="evenodd"/><path d="M49.17,45.62H22.79a0.5,0.5,0,0,1-.5-0.51c0-.86.14-5.18,0.21-5.62l0-.11a2.24,2.24,0,0,1,1.25-1.86,26.3,26.3,0,0,1,4.73-1.88,12.48,12.48,0,0,0,2.81-1.11,7.32,7.32,0,0,0,.7-2.91,0.66,0.66,0,0,0-.24-0.33A2.25,2.25,0,0,1,31,29.75l-0.13-.12a2.54,2.54,0,0,1-.51-0.53,4,4,0,0,1-.77-2.15,2.94,2.94,0,0,1,.09-0.8,2.78,2.78,0,0,0,.08-0.78V25.2a12.79,12.79,0,0,1,.54-3.8,4.79,4.79,0,0,1,1.86-2.61,1.64,1.64,0,0,1,1.25-.3,7.84,7.84,0,0,0,2.72-.28,5.78,5.78,0,0,1,4.4,1.34,3.7,3.7,0,0,1,1.63,2.59,10.65,10.65,0,0,0,.2,2.43c0,0.18.08,0.38,0.12,0.67a1.35,1.35,0,0,0,.12.43,2,2,0,0,1,.18,1A5.17,5.17,0,0,1,42,29.06a3.71,3.71,0,0,0-.46,1.07,1.91,1.91,0,0,1-.91,1.51c-0.17.12-.17,0.12-0.17,0.17a7.34,7.34,0,0,0,.68,2.66s0,0,0,0h0A13.47,13.47,0,0,0,44,35.71a32.63,32.63,0,0,1,4.23,1.81,2.36,2.36,0,0,1,1.27,1.93c0.07,0.49.19,4.8,0.22,5.66A0.5,0.5,0,0,1,49.17,45.62Zm-25.87-1H48.66c-0.06-2-.14-4.7-0.19-5a1.42,1.42,0,0,0-.76-1.25,31.85,31.85,0,0,0-4.1-1.75,13.58,13.58,0,0,1-3-1.36c-0.7-.49-1.12-3-1.1-3.52a1.15,1.15,0,0,1,.61-0.95A0.94,0.94,0,0,0,40.56,30a4.51,4.51,0,0,1,.62-1.49,4.21,4.21,0,0,0,.61-1.89,1.06,1.06,0,0,0-.09-0.55,2.33,2.33,0,0,1-.2-0.7c0-.26-0.07-0.43-0.11-0.6a11.43,11.43,0,0,1-.22-2.62,2.85,2.85,0,0,0-1.25-1.82,4.83,4.83,0,0,0-3.56-1.15,8.74,8.74,0,0,1-3,.3,0.7,0.7,0,0,0-.62.15,3.8,3.8,0,0,0-1.42,2,11.89,11.89,0,0,0-.51,3.56v0.17a3.68,3.68,0,0,1-.1,1,2,2,0,0,0-.06.57,3,3,0,0,0,.61,1.6,1.68,1.68,0,0,0,.32.32,1.07,1.07,0,0,1,.48.75,1.26,1.26,0,0,0,.47,1,1.49,1.49,0,0,1,.53.95c0.06,0.76-.41,3.27-1.09,3.79a12,12,0,0,1-3.11,1.27,25.54,25.54,0,0,0-4.55,1.8,1.27,1.27,0,0,0-.75,1.13l0,0.12C23.44,39.92,23.36,42.66,23.3,44.62Z" fill="gray"/></svg>