<svg xmlns="http://www.w3.org/2000/svg" viewBox="0 0 72 72"><defs><style>.cls-1{fill:none;}.cls-2{fill:gray;}</style></defs><title>m_049</title><g id="Rectangles"><rect class="cls-1" x="0.36" y="0.36" width="71.28" height="71.28"/><g id="Control_-_rewind_to_front" data-name="Control - rewind to front"><g id="_Group_" data-name="&lt;Group&gt;"><path class="cls-2" d="M54.9,57.25a6.25,6.25,0,0,1-3.27-.93L28.36,42.09a6.93,6.93,0,0,1,0-11.69L51.63,16.19A6.19,6.19,0,0,1,58,16.06a6.81,6.81,0,0,1,3.42,6V50.47a6.81,6.81,0,0,1-3.42,6A6.25,6.25,0,0,1,54.9,57.25Zm-1.71-3.49a3.18,3.18,0,0,0,3.3.07,3.76,3.76,0,0,0,1.88-3.35V22a3.76,3.76,0,0,0-1.88-3.35,3.19,3.19,0,0,0-3.3.07L29.93,33a3.93,3.93,0,0,0,0,6.57Z"/></g><g id="_Group_2" data-name="&lt;Group&gt;"><path class="cls-2" d="M19.08,55.5H11.83a1.5,1.5,0,0,1-1.5-1.5V18a1.5,1.5,0,0,1,1.5-1.5h7.25a1.5,1.5,0,0,1,1.5,1.5V54A1.5,1.5,0,0,1,19.08,55.5Zm-5.75-3h4.25v-33H13.33Z"/></g></g></g></svg>