<svg xmlns="http://www.w3.org/2000/svg" viewBox="0 0 72 72"><title>1-icons_expanded</title><path d="M28.27,67.87a2,2,0,0,1-2-2c0-2.87,0-6.78,0-9.09H12.42A5.65,5.65,0,0,1,6.76,51V12.68a5.65,5.65,0,0,1,5.66-5.76h47.2a5.74,5.74,0,0,1,5.71,5.76V51a5.74,5.74,0,0,1-5.71,5.76H43.71L29.47,67.47A2,2,0,0,1,28.27,67.87ZM12.42,10.93a1.67,1.67,0,0,0-1.66,1.76V51a1.67,1.67,0,0,0,1.66,1.76H28.25c2,0,2,1.65,2,3.73v5.36l11.57-8.69a2,2,0,0,1,1.2-.4H59.62A1.71,1.71,0,0,0,61.33,51V12.68a1.71,1.71,0,0,0-1.71-1.76H12.42Z" fill="gray"/></svg>