<svg xmlns="http://www.w3.org/2000/svg" viewBox="0 0 72 72"><defs><style>.cls-1{fill:none;}.cls-2{fill:gray;}</style></defs><title>m_043</title><g id="Rectangles"><rect class="cls-1" x="0.36" y="0.36" width="71.28" height="71.28"/><g id="Stop"><g id="circle"><path class="cls-2" d="M34,64.06A28.32,28.32,0,1,1,62.27,35.74,28.35,28.35,0,0,1,34,64.06Zm0-53.64A25.32,25.32,0,1,0,59.27,35.74,25.35,25.35,0,0,0,34,10.42Z"/></g><g id="down"><path class="cls-2" d="M45,48.15H22.83a1.5,1.5,0,0,1-1.5-1.5V24.57a1.5,1.5,0,0,1,1.5-1.5H45a1.5,1.5,0,0,1,1.5,1.5V46.65A1.5,1.5,0,0,1,45,48.15Zm-20.68-3H43.5V26.07H24.33Z"/></g></g></g></svg>