<svg xmlns="http://www.w3.org/2000/svg" viewBox="0 0 72 72"><defs><style>.cls-1{fill:none;}.cls-2{fill:gray;}</style></defs><title>m_042</title><g id="Rectangles"><rect class="cls-1" x="0.36" y="0.36" width="71.28" height="71.28"/><g id="Start"><g id="circle"><path class="cls-2" d="M34.13,64.06A28.32,28.32,0,1,1,62.46,35.74,28.35,28.35,0,0,1,34.13,64.06Zm0-53.64A25.32,25.32,0,1,0,59.46,35.74,25.35,25.35,0,0,0,34.13,10.42Z"/></g><g id="down"><path class="cls-2" d="M26.79,50.67a1.5,1.5,0,0,1-1.5-1.5V22.3A1.5,1.5,0,0,1,27.58,21L49.43,34.52a1.5,1.5,0,0,1,0,2.56L27.57,50.45A1.5,1.5,0,0,1,26.79,50.67ZM28.29,25V46.5L45.78,35.79Z"/></g></g></g></svg>