<?xml version="1.0" encoding="utf-8"?>
<!-- Generator: Adobe Illustrator 19.2.0, SVG Export Plug-In . SVG Version: 6.00 Build 0)  -->
<svg version="1.1" xmlns="http://www.w3.org/2000/svg" xmlns:xlink="http://www.w3.org/1999/xlink" x="0px" y="0px" width="72px"
	 height="72px" viewBox="-611 775 72 72" style="enable-background:new -611 775 72 72;" xml:space="preserve">
<style type="text/css">
	.st0{fill:#808080;}
	.st1{fill:#3DD77A;}
	.st2{fill:#E50000;}
	.st3{fill:#FFBC00;}
	.st4{fill:#FF8578;}
	.st5{fill-rule:evenodd;clip-rule:evenodd;fill:#FF8575;}
	.st6{fill-rule:evenodd;clip-rule:evenodd;fill:#808080;}
	.st7{fill:none;stroke:#808080;stroke-width:4;stroke-miterlimit:10;}
	.st8{display:none;}
	.st9{display:inline;fill:none;}
</style>
<g id="SVG_icons">
	<g id="control-forward">
		<g id="XMLID_24_">
			<path class="st0" d="M-583.53,832.78c-1.13,0-2.26-0.29-3.31-0.88c-2.26-1.27-3.67-3.72-3.67-6.4v-28.44
				c0-2.68,1.41-5.13,3.67-6.4c2.16-1.21,4.72-1.16,6.84,0.13l23.27,14.22c2.16,1.32,3.45,3.66,3.45,6.27s-1.29,4.95-3.45,6.27
				L-580,831.77C-581.1,832.45-582.31,832.78-583.53,832.78z M-583.53,793.79c-0.46,0-0.92,0.12-1.35,0.36
				c-1.02,0.57-1.63,1.66-1.63,2.91v28.44c0,1.25,0.61,2.34,1.63,2.91c0.9,0.5,1.91,0.48,2.79-0.06l23.27-14.22
				c0.96-0.59,1.53-1.65,1.53-2.86s-0.57-2.27-1.53-2.86l-23.27-14.22C-582.54,793.93-583.04,793.79-583.53,793.79z"/>
		</g>
	</g>
</g>
<g id="Rectangles" class="st8">
	<rect x="-610.64" y="775.36" class="st9" width="71.28" height="71.28"/>
</g>
</svg>
