<svg id="SVG_icons" data-name="SVG icons" xmlns="http://www.w3.org/2000/svg" viewBox="0 0 72 72"><defs><style>.cls-1{fill:gray;}</style></defs><title>m_055</title><g id="Document"><g id="_Group_" data-name="&lt;Group&gt;"><path class="cls-1" d="M44.87,29.76H26.93a2,2,0,0,1,0-4H44.87a2,2,0,0,1,0,4Z"/></g><g id="_Group_2" data-name="&lt;Group&gt;"><path class="cls-1" d="M44.87,40.11H26.93a2,2,0,0,1,0-4H44.87a2,2,0,1,1,0,4Z"/></g><g id="_Group_3" data-name="&lt;Group&gt;"><path class="cls-1" d="M44.87,50.47H26.93a2,2,0,0,1,0-4H44.87a2,2,0,0,1,0,4Z"/></g><g id="_Group_4" data-name="&lt;Group&gt;"><path class="cls-1" d="M54.53,65h-37a4,4,0,0,1-4-4V11.29a4,4,0,0,1,4-4H42.95a4,4,0,0,1,2.7,1.05L57.23,19A4,4,0,0,1,58.51,22V61A4,4,0,0,1,54.53,65Zm0-4v0ZM42.93,11.3H17.57l0,49.71H54.51V22Z"/></g></g></svg>