<svg id="SVG_icons" data-name="SVG icons" xmlns="http://www.w3.org/2000/svg" viewBox="0 0 72 72"><defs><style>.cls-1{fill:gray;}</style></defs><title>m_057</title><g id="Export_to_Doc" data-name="Export to Doc"><g id="_Group_" data-name="&lt;Group&gt;"><path class="cls-1" d="M44.62,25.72H26.67a2,2,0,0,1,0-4H44.62a2,2,0,0,1,0,4Z"/></g><g id="_Group_2" data-name="&lt;Group&gt;"><path class="cls-1" d="M44.62,34.82H26.67a2,2,0,0,1,0-4H44.62a2,2,0,0,1,0,4Z"/></g><g id="_Group_3" data-name="&lt;Group&gt;"><path class="cls-1" d="M54.28,59.71h-37a4,4,0,0,1-4-4V13.06a4,4,0,0,1,4-4H42.69a4,4,0,0,1,2.7,1.05L57,20.79a4,4,0,0,1,1.29,2.93v32A4,4,0,0,1,54.28,59.71Zm0-4v0ZM42.68,13.07H17.32l0,42.65H54.26v-32Z"/></g><g id="Go_to_Next" data-name="Go to Next"><g id="_Path_" data-name="&lt;Path&gt;"><polygon class="cls-1" points="44.73 52.98 35.65 43.91 26.57 52.98 23.74 50.16 35.65 38.25 47.55 50.16 44.73 52.98"/></g><g id="_Group_4" data-name="&lt;Group&gt;"><rect class="cls-1" x="33.65" y="41.19" width="4" height="26.75"/></g></g></g></svg>