<svg id="SVG_icons" data-name="SVG icons" xmlns="http://www.w3.org/2000/svg" viewBox="0 0 72 72"><defs><style>.cls-1{fill:gray;}</style></defs><title>m_056</title><g id="Report"><g id="_Group_" data-name="&lt;Group&gt;"><path class="cls-1" d="M36.19,52.24a2,2,0,0,1-2-2V31.63a2,2,0,0,1,4,0V50.24A2,2,0,0,1,36.19,52.24Z"/></g><g id="_Group_2" data-name="&lt;Group&gt;"><path class="cls-1" d="M27.13,52.24a2,2,0,0,1-2-2V26.93a2,2,0,0,1,4,0V50.24A2,2,0,0,1,27.13,52.24Z"/></g><g id="_Group_3" data-name="&lt;Group&gt;"><path class="cls-1" d="M45.25,52.48a2,2,0,0,1-2-2V36a2,2,0,0,1,4,0V50.48A2,2,0,0,1,45.25,52.48Z"/></g><g id="_Group_4" data-name="&lt;Group&gt;"><path class="cls-1" d="M54.4,65h-37a4,4,0,0,1-4-4V11.29a4,4,0,0,1,4-4H42.82a4,4,0,0,1,2.69,1.05L57.1,19A4,4,0,0,1,58.38,22V61A4,4,0,0,1,54.4,65Zm0-4v0ZM42.81,11.3H17.45l0,49.71H54.38V22Z"/></g></g></svg>