<svg xmlns="http://www.w3.org/2000/svg" viewBox="0 0 72 72"><title>1-icons_expanded</title><rect x="27.09" y="34.34" width="17.94" height="4" fill="gray"/><rect x="34.06" y="27.37" width="4" height="17.94" fill="gray"/><path d="M61.66,58H10.81a3.37,3.37,0,0,1-3.33-3.4V14.79a3.37,3.37,0,0,1,3.33-3.4H26.05a3.33,3.33,0,0,1,2.69,1.39L31.08,16a0.31,0.31,0,0,0,.25.14H61.66A3.37,3.37,0,0,1,65,19.56v35A3.37,3.37,0,0,1,61.66,58ZM10.81,14.39a0.38,0.38,0,0,0-.33.4V54.58a0.38,0.38,0,0,0,.33.4H61.66a0.38,0.38,0,0,0,.34-0.4v-35a0.38,0.38,0,0,0-.34-0.4H31.33a3.32,3.32,0,0,1-2.69-1.39l-2.34-3.24a0.32,0.32,0,0,0-.25-0.14H10.81Z" fill="gray"/></svg>