<?xml version="1.0" encoding="utf-8"?>
<!-- Generator: Adobe Illustrator 19.2.0, SVG Export Plug-In . SVG Version: 6.00 Build 0)  -->
<svg version="1.1" xmlns="http://www.w3.org/2000/svg" xmlns:xlink="http://www.w3.org/1999/xlink" x="0px" y="0px" width="72px"
	 height="72px" viewBox="-323 775 72 72" style="enable-background:new -323 775 72 72;" xml:space="preserve">
<style type="text/css">
	.st0{fill:#808080;}
	.st1{fill:#3DD77A;}
	.st2{fill:#E50000;}
	.st3{fill:#FFBC00;}
	.st4{fill:#FF8578;}
	.st5{fill-rule:evenodd;clip-rule:evenodd;fill:#FF8575;}
	.st6{fill-rule:evenodd;clip-rule:evenodd;fill:#808080;}
	.st7{fill:none;stroke:#808080;stroke-width:4;stroke-miterlimit:10;}
	.st8{display:none;}
	.st9{display:inline;fill:none;}
</style>
<g id="SVG_icons">
	<g id="control-pause">
		<g id="XMLID_17_">
			<path class="st0" d="M-294.09,831.03h-7.25c-1.1,0-2-0.9-2-2v-35.99c0-1.1,0.9-2,2-2h7.25c1.1,0,2,0.9,2,2v35.99
				C-292.09,830.14-292.99,831.03-294.09,831.03z M-299.34,827.03h3.25v-31.99h-3.25V827.03z"/>
		</g>
		<g id="XMLID_16_">
			<path class="st0" d="M-272.17,831.03h-7.25c-1.1,0-2-0.9-2-2v-35.99c0-1.1,0.9-2,2-2h7.25c1.1,0,2,0.9,2,2v35.99
				C-270.17,830.14-271.06,831.03-272.17,831.03z M-277.42,827.03h3.25v-31.99h-3.25V827.03z"/>
		</g>
	</g>
</g>
<g id="Rectangles" class="st8">
	<rect x="-322.64" y="775.36" class="st9" width="71.28" height="71.28"/>
</g>
</svg>
