<svg xmlns="http://www.w3.org/2000/svg" viewBox="0 0 72 72"><title>1-icons_expanded</title><path d="M44.1,21.69H26.15a2,2,0,0,0,0,4H44.1A2,2,0,0,0,44.1,21.69Z" fill="gray"/><path d="M44.1,30.79H26.15a2,2,0,0,0,0,4H44.1A2,2,0,1,0,44.1,30.79Z" fill="gray"/><path d="M56.12,21.12L44.53,10.45a3.48,3.48,0,0,0-2.36-.92H16.8A3.49,3.49,0,0,0,13.32,13V55.69a3.49,3.49,0,0,0,3.48,3.49H33.64v7.25h3.2V59.18H53.76a3.49,3.49,0,0,0,3.48-3.49v-32A3.49,3.49,0,0,0,56.12,21.12ZM54.24,55.69a0.48,0.48,0,0,1-.48.49H36.84V44.36l7.93,7.93L47,50l-11.8-11.8-12,12,2.26,2.26,8.11-8.11V56.18H16.8a0.48,0.48,0,0,1-.48-0.49V13a0.48,0.48,0,0,1,.48-0.48H42.17a0.48,0.48,0,0,1,.33.13L54.08,23.33a0.49,0.49,0,0,1,.16.36v32Z" fill="gray"/></svg>