<svg xmlns="http://www.w3.org/2000/svg" viewBox="0 0 72 72"><title>1-icons_expanded</title><path d="M45.06,29.74H27.12a2,2,0,0,1,0-4H45.06A2,2,0,0,1,45.06,29.74Z" fill="gray"/><path d="M45.06,40.1H27.12a2,2,0,0,1,0-4H45.06A2,2,0,0,1,45.06,40.1Z" fill="gray"/><path d="M45.06,50.46H27.12a2,2,0,0,1,0-4H45.06A2,2,0,0,1,45.06,50.46Z" fill="gray"/><path d="M54.72,64.49h-37A3.49,3.49,0,0,1,14.28,61V11.28A3.49,3.49,0,0,1,17.77,7.8H43.14a3.48,3.48,0,0,1,2.36.92L57.08,19.38a3.5,3.5,0,0,1,1.12,2.56V61A3.49,3.49,0,0,1,54.72,64.49Zm-37-53.69a0.48,0.48,0,0,0-.48.48V61a0.48,0.48,0,0,0,.48.49h37A0.48,0.48,0,0,0,55.2,61V21.95A0.49,0.49,0,0,0,55,21.59L43.46,10.92a0.48,0.48,0,0,0-.33-0.13H17.77Z" fill="gray"/></svg>