<svg xmlns="http://www.w3.org/2000/svg" viewBox="0 0 72 72"><defs><style>.cls-1{fill:none;}.cls-2{fill:gray;}</style></defs><title>m_050</title><g id="Rectangles"><rect class="cls-1" x="0.36" y="0.36" width="71.28" height="71.28"/><g id="Control_-_pause" data-name="Control - pause"><g id="_Group_" data-name="&lt;Group&gt;"><path class="cls-2" d="M28.68,55.5H21.43a1.5,1.5,0,0,1-1.5-1.5V18a1.5,1.5,0,0,1,1.5-1.5h7.25a1.5,1.5,0,0,1,1.5,1.5V54A1.5,1.5,0,0,1,28.68,55.5Zm-5.75-3h4.25v-33H22.93Z"/></g><g id="_Group_2" data-name="&lt;Group&gt;"><path class="cls-2" d="M50.6,55.5H43.35a1.5,1.5,0,0,1-1.5-1.5V18a1.5,1.5,0,0,1,1.5-1.5H50.6A1.5,1.5,0,0,1,52.1,18V54A1.5,1.5,0,0,1,50.6,55.5Zm-5.75-3H49.1v-33H44.85Z"/></g></g></g></svg>