<svg id="SVG_icons" data-name="SVG icons" xmlns="http://www.w3.org/2000/svg" viewBox="0 0 72 72"><defs><style>.cls-1{fill:gray;}</style></defs><title>m_059</title><g id="new_folder" data-name="new folder"><g id="_Group_" data-name="&lt;Group&gt;"><rect class="cls-1" x="26.9" y="34.35" width="17.94" height="4"/></g><g id="_Group_2" data-name="&lt;Group&gt;"><rect class="cls-1" x="33.87" y="27.38" width="4" height="17.94"/></g><g id="_Group_3" data-name="&lt;Group&gt;"><path class="cls-1" d="M61.47,58.49H10.62a3.87,3.87,0,0,1-3.84-3.9V14.8a3.87,3.87,0,0,1,3.84-3.9H25.86A3.83,3.83,0,0,1,29,12.49l2.29,3.17H61.47a3.87,3.87,0,0,1,3.84,3.9v35A3.87,3.87,0,0,1,61.47,58.49Zm-50.69-4H61.31V19.67H31.14A3.83,3.83,0,0,1,28,18.07L25.76,14.9h-15Z"/></g></g></svg>