<svg xmlns="http://www.w3.org/2000/svg" viewBox="0 0 72 72"><title>1-icons_expanded</title><rect x="33.88" y="31.61" width="5" height="18.61" fill="gray"/><rect x="24.82" y="26.92" width="5" height="23.31" fill="gray"/><rect x="42.95" y="35.95" width="5" height="14.52" fill="gray"/><path d="M54.59,64.49h-37A3.49,3.49,0,0,1,14.16,61V11.28A3.49,3.49,0,0,1,17.64,7.8H43a3.47,3.47,0,0,1,2.36.92L57,19.38a3.5,3.5,0,0,1,1.12,2.56V61A3.49,3.49,0,0,1,54.59,64.49Zm-37-53.69a0.48,0.48,0,0,0-.48.48V61a0.48,0.48,0,0,0,.48.49h37A0.48,0.48,0,0,0,55.08,61V21.95a0.49,0.49,0,0,0-.16-0.36L43.34,10.92A0.48,0.48,0,0,0,43,10.8H17.64Z" fill="gray"/></svg>