<svg id="SVG_icons" data-name="SVG icons" xmlns="http://www.w3.org/2000/svg" viewBox="0 0 72 72"><defs><style>.cls-1{fill:gray;}</style></defs><title>m_058</title><g id="bookmark"><path class="cls-1" d="M47.42,63.45a3.49,3.49,0,0,1-2.41-1l-8.28-7.9a1.25,1.25,0,0,0-1.68,0l-8.28,7.9a3.51,3.51,0,0,1-3.81.68A3.4,3.4,0,0,1,20.89,60V14.44a5.3,5.3,0,0,1,5.37-5.21H45.52a5.3,5.3,0,0,1,5.37,5.21V60a3.39,3.39,0,0,1-2.08,3.11A3.54,3.54,0,0,1,47.42,63.45ZM35.89,50.27a5.2,5.2,0,0,1,3.6,1.42h0l7.4,7.06V14.44a1.3,1.3,0,0,0-1.37-1.21H26.26a1.3,1.3,0,0,0-1.37,1.21V58.75l7.4-7.06A5.21,5.21,0,0,1,35.89,50.27Z"/></g></svg>