<svg xmlns="http://www.w3.org/2000/svg" viewBox="0 0 72 72"><title>1-icons_special</title><path d="M31.22,33.34H8.63a2,2,0,0,1-2-2V8.9a2,2,0,0,1,2-2H31.22a2,2,0,0,1,2,2V31.34A2,2,0,0,1,31.22,33.34Zm-20.59-4H29.22V10.9H10.63V29.34Z" fill="gray"/><path d="M62.87,33.34H40.28a2,2,0,0,1-2-2V8.9a2,2,0,0,1,2-2H62.87a2,2,0,0,1,2,2V31.34A2,2,0,0,1,62.87,33.34Zm-20.59-4H60.87V10.9H42.28V29.34Z" fill="gray"/><path d="M31.22,65H8.63a2,2,0,0,1-2-2V40.55a2,2,0,0,1,2-2H31.22a2,2,0,0,1,2,2V63A2,2,0,0,1,31.22,65ZM10.63,61H29.22V42.55H10.63V61Z" fill="gray"/><path d="M62.87,65H40.28a2,2,0,0,1-2-2V40.55a2,2,0,0,1,2-2H62.87a2,2,0,0,1,2,2V63A2,2,0,0,1,62.87,65ZM42.28,61H60.87V42.55H42.28V61Z" fill="gray"/><rect x="0.36" y="0.36" width="71.28" height="71.28" fill="none"/></svg>