<svg xmlns="http://www.w3.org/2000/svg" viewBox="0 0 72 72"><title>m_brand</title><path d="M36.14,8A28.32,28.32,0,1,0,64.46,36.36,28.35,28.35,0,0,0,36.14,8Zm9,37.21A11.54,11.54,0,0,1,45,57.06a13.3,13.3,0,0,1-3.66,4.07l-0.25.05V40.85A13.28,13.28,0,0,1,45.16,45.26Zm-4-4.61V20.11q5.57,4,5.57,10.12a11.88,11.88,0,0,1-1.83,6.41A12,12,0,0,1,41.13,40.64Zm13,13.55a17.13,17.13,0,0,0,.26-2.88,20.4,20.4,0,0,0-3.07-10.56,18.75,18.75,0,0,0,3.07-10.44A17.34,17.34,0,0,0,51,19.85H33.5V61.54A25.35,25.35,0,1,1,54.1,54.19Z" fill="gray"/></svg>