<svg id="SVG_icons" data-name="SVG icons" xmlns="http://www.w3.org/2000/svg" viewBox="0 0 72 72"><defs><style>.cls-1,.cls-2{fill:gray;}.cls-1{fill-rule:evenodd;}</style></defs><title>m_061</title><g id="Image"><g id="_Group_" data-name="&lt;Group&gt;"><path class="cls-1" d="M53.84,49,44.57,37.53a1.5,1.5,0,0,0-2.35,0L41,39.12a1.77,1.77,0,0,1-2.77,0L33.6,33.46a2.06,2.06,0,0,0-3.23,0l-12,15a1.46,1.46,0,0,0,1.09,2.38l33.51,0A1.18,1.18,0,0,0,53.84,49Z"/></g><g id="_Group_2" data-name="&lt;Group&gt;"><path class="cls-1" d="M54.08,25.71a3.87,3.87,0,1,1-4.3-3.41A3.9,3.9,0,0,1,54.08,25.71Z"/></g><g id="_Group_3" data-name="&lt;Group&gt;"><path class="cls-2" d="M61,62.23H11.61a4,4,0,0,1-4-4V13.81a4,4,0,0,1,4-4H61a4,4,0,0,1,4,4V58.25A4,4,0,0,1,61,62.23Zm-49.38-4H61l0-44.42-49.38,0Z"/></g></g></svg>