<svg xmlns="http://www.w3.org/2000/svg" viewBox="0 0 72 72"><title>1-icons_expanded</title><path d="M61.84,58H11a3.37,3.37,0,0,1-3.34-3.4V14.79A3.37,3.37,0,0,1,11,11.39H26.23a3.33,3.33,0,0,1,2.69,1.39L31.26,16a0.32,0.32,0,0,0,.25.14H61.84a3.37,3.37,0,0,1,3.34,3.4v35A3.37,3.37,0,0,1,61.84,58ZM11,14.39a0.38,0.38,0,0,0-.34.4V54.58A0.38,0.38,0,0,0,11,55H61.84a0.38,0.38,0,0,0,.34-0.4v-35a0.38,0.38,0,0,0-.34-0.4H31.51a3.32,3.32,0,0,1-2.69-1.39l-2.34-3.24a0.32,0.32,0,0,0-.25-0.14H11Z" fill="gray"/></svg>