<svg xmlns="http://www.w3.org/2000/svg" viewBox="0 0 72 72"><title>1-icons_special</title><path d="M27.67,37.53H9A1.5,1.5,0,0,1,7.49,36V8.79A1.5,1.5,0,0,1,9,7.29H27.67a1.5,1.5,0,0,1,1.5,1.5V36A1.5,1.5,0,0,1,27.67,37.53Zm-17.19-3H26.17V10.29H10.49V34.53Z" fill="gray"/><path d="M63,64.65H9a1.5,1.5,0,0,1-1.5-1.5V43.28A1.5,1.5,0,0,1,9,41.78H63a1.5,1.5,0,0,1,1.5,1.5V63.15A1.5,1.5,0,0,1,63,64.65Zm-52.56-3H61.55V44.78H10.49V61.65Z" fill="gray"/><path d="M63,37.53H35.28a1.5,1.5,0,0,1-1.5-1.5V8.79a1.5,1.5,0,0,1,1.5-1.5H63a1.5,1.5,0,0,1,1.5,1.5V36A1.5,1.5,0,0,1,63,37.53Zm-26.27-3H61.55V10.29H36.78V34.53Z" fill="gray"/></svg>