<svg xmlns="http://www.w3.org/2000/svg" viewBox="0 0 72 72"><title>1-icons_expanded</title><path d="M57.42,63H14.33a3.5,3.5,0,0,1-3.5-3.5V27.71a1.5,1.5,0,0,1,3,0V59.5a0.5,0.5,0,0,0,.5.5h43.1a0.5,0.5,0,0,0,.5-0.5V24.56a3.5,3.5,0,0,1,3.5-3.5h0.23a0.5,0.5,0,0,0,.45-0.5V12.18a0.5,0.5,0,0,0-.5-0.5H9.65a0.5,0.5,0,0,0-.5.5v8.39a0.5,0.5,0,0,0,.5.5H51.17a1.5,1.5,0,0,1,0,3H9.65a3.5,3.5,0,0,1-3.5-3.5V12.18a3.5,3.5,0,0,1,3.5-3.5H61.6a3.5,3.5,0,0,1,3.5,3.5v8.39a3.5,3.5,0,0,1-3.5,3.5H61.37a0.5,0.5,0,0,0-.45.5V59.5A3.5,3.5,0,0,1,57.42,63Z" fill="gray"/><path d="M45.86,40.62H25.78a1,1,0,0,1-1-1V32.81a1,1,0,0,1,1-1H45.86a1,1,0,0,1,1,1v6.81A1,1,0,0,1,45.86,40.62Zm-19.08-2H44.86V33.81H26.78v4.81Z" fill="gray"/></svg>