<svg xmlns="http://www.w3.org/2000/svg" viewBox="0 0 72 72"><title>m_delete</title><rect x="11.28" y="14.07" width="49.49" height="3.85" fill="gray"/><rect x="25.52" y="23.66" width="3" height="32.24" fill="gray"/><rect x="34.45" y="23.66" width="3" height="32.24" fill="gray"/><rect x="43.6" y="23.66" width="3" height="32.24" fill="gray"/><path d="M56.26,65H16a2,2,0,0,1-2-2.15v-47h3.7V61.18H54.41V15.92h3.85v47A2,2,0,0,1,56.26,65Z" fill="gray"/><path d="M46.51,16.07h-3v-5.7h-15v5.7h-3V8.88A1.5,1.5,0,0,1,27,7.38H45a1.5,1.5,0,0,1,1.5,1.5v7.2Z" fill="gray"/></svg>