<svg xmlns="http://www.w3.org/2000/svg" viewBox="0 0 72 72"><title>1-icons_special</title><path d="M33.14,55.11a1.5,1.5,0,0,1-1.06-.44l-5.81-5.81a1.5,1.5,0,0,1,2.12-2.12l4.75,4.75L44.25,40.38a1.5,1.5,0,0,1,2.12,2.12L34.2,54.67A1.5,1.5,0,0,1,33.14,55.11Z" fill="gray"/><path d="M63.32,28.29h-54a1.5,1.5,0,0,1-.83-2.75L35.53,7.45a1.5,1.5,0,0,1,1.67,0l27,18.09A1.5,1.5,0,0,1,63.32,28.29Zm-49.09-3H58.39l-22-14.78Z" fill="gray"/><path d="M22.68,64.35H9.29a1.5,1.5,0,1,1,0-3h1.85V35.23H9.29a1.5,1.5,0,1,1,0-3h13.4a1.5,1.5,0,0,1,0,3H20.83V61.35h1.85A1.5,1.5,0,0,1,22.68,64.35Zm-8.55-3h3.7V35.23h-3.7V61.35Z" fill="gray"/><path d="M63.33,64.35H49.94a1.5,1.5,0,1,1,0-3h1.85V35.23H49.94a1.5,1.5,0,0,1,0-3h13.4a1.5,1.5,0,0,1,0,3H61.48V61.35h1.85A1.5,1.5,0,0,1,63.33,64.35Zm-8.55-3h3.7V35.23h-3.7V61.35Z" fill="gray"/></svg>