<svg xmlns="http://www.w3.org/2000/svg" viewBox="0 0 72 72"><title>1-icons_special</title><path d="M32.67,35.22a1.5,1.5,0,0,1-1.06-.44l-5.85-5.85a1.5,1.5,0,0,1,2.12-2.12l4.79,4.79L43.87,20.39A1.5,1.5,0,0,1,46,22.51L33.73,34.78A1.5,1.5,0,0,1,32.67,35.22Z" fill="gray"/><path d="M32.67,53.37a1.5,1.5,0,0,1-1.06-.44l-5.85-5.85A1.5,1.5,0,0,1,27.88,45l4.79,4.79L43.87,38.54A1.5,1.5,0,0,1,46,40.66L33.73,52.93A1.5,1.5,0,0,1,32.67,53.37Z" fill="gray"/><path d="M53.61,64.59H18.15A4.19,4.19,0,0,1,14,60.4V14.46a4.19,4.19,0,0,1,4.18-4.19h5.52v3H18.15A1.19,1.19,0,0,0,17,14.46V60.4a1.19,1.19,0,0,0,1.18,1.19H53.61a1.19,1.19,0,0,0,1.18-1.19V14.46a1.19,1.19,0,0,0-1.18-1.19H48.13v-3h5.48a4.19,4.19,0,0,1,4.18,4.19V60.4A4.19,4.19,0,0,1,53.61,64.59Z" fill="gray"/><path d="M42.84,9.69H39.43a3.56,3.56,0,0,0-6.9,0H29.12a1,1,0,0,0-1,1v2.24a1,1,0,0,0,1,1H42.84a1,1,0,0,0,1-1V10.67A1,1,0,0,0,42.84,9.69Z" fill="gray"/></svg>