<svg xmlns="http://www.w3.org/2000/svg" viewBox="0 0 72 72"><defs><style>.cls-1{fill:gray;}.cls-2{fill:none;}</style></defs><title>m_069</title><g id="SVG_icons" data-name="SVG icons"><rect class="cls-1" x="11.93" y="14.12" width="48.14" height="4"/><rect class="cls-1" x="25.08" y="23.7" width="4" height="32.24"/><rect class="cls-1" x="34" y="23.7" width="4" height="32.24"/><rect class="cls-1" x="43.15" y="23.7" width="4" height="32.24"/><path class="cls-1" d="M54.07,65.08H17.9a2,2,0,0,1-2-2v-47h4v45H52.07v-45h4v47A2,2,0,0,1,54.07,65.08Z"/><path class="cls-1" d="M47.07,16.12h-4v-5.2h-14v5.2h-4V8.92a2,2,0,0,1,2-2h18a2,2,0,0,1,2,2Z"/></g><g id="Rectangles"><rect class="cls-2" x="0.36" y="0.36" width="71.28" height="71.28"/></g></svg>