<svg xmlns="http://www.w3.org/2000/svg" viewBox="0 0 72 72"><title>m_certificate</title><path d="M60.66,60.3L55,47.58a10.21,10.21,0,0,0-1.84-14.15V11.13a3.5,3.5,0,0,0-3.5-3.5H17.49a3.5,3.5,0,0,0-3.5,3.5V60.92a3.5,3.5,0,0,0,3.5,3.5h9a1.5,1.5,0,0,0,0-3h-9a0.5,0.5,0,0,1-.5-0.5V11.13a0.5,0.5,0,0,1,.5-0.5H49.65a0.5,0.5,0,0,1,.5.5V31.78A10.25,10.25,0,0,0,38.34,47.29l-5.83,13a1,1,0,0,0,1.4,1.28l4.42-2.44L39.39,64a1,1,0,0,0,.87.78h0.1a1,1,0,0,0,.91-0.59L46.6,52.36l5.28,11.85a1,1,0,0,0,.91.59h0.1A1,1,0,0,0,53.77,64l1.12-4.92,4.36,2.47A1,1,0,0,0,60.66,60.3ZM46.78,33.19A8.25,8.25,0,0,1,53,46.92c-0.14.16-.29,0.32-0.44,0.47l-0.18.17c-0.15.14-.3,0.27-0.46,0.4l-0.18.14c-0.17.13-.35,0.25-0.53,0.36l-0.16.1c-0.2.12-.41,0.23-0.62,0.34l-0.11.05c-0.23.11-.47,0.21-0.72,0.3l-0.06,0a8.26,8.26,0,0,1-.8.24h0a8.24,8.24,0,0,1-1.74.22H46.78l-0.46,0h0a8.25,8.25,0,0,1-5.45-2.48h0A8.25,8.25,0,0,1,46.78,33.19ZM40.7,60.62L40,57.37a1,1,0,0,0-1.46-.66l-3,1.64L39.78,49,39.88,49a10.31,10.31,0,0,0,1,.79l0,0a10.27,10.27,0,0,0,1.2.72h0a10.19,10.19,0,0,0,1.3.55h0a10.14,10.14,0,0,0,1.37.38Zm14-3.91a1,1,0,0,0-1.47.65l-0.76,3.31-4-9.08h0a10.16,10.16,0,0,0,2.6-.8l0.14-.07a10.25,10.25,0,0,0,1.1-.61l0.08,0a10.32,10.32,0,0,0,1-.79l0.07-.06,4.08,9.15Z" fill="gray"/><rect x="24.48" y="16.63" width="18.15" height="3" fill="gray"/><rect x="24.6" y="24.15" width="18.02" height="3" fill="gray"/></svg>