<svg xmlns="http://www.w3.org/2000/svg" viewBox="0 0 72 72"><defs><style>.cls-1{fill:none;}.cls-2{fill:gray;}</style></defs><title>m_070</title><g id="Rectangles"><rect class="cls-1" x="0.5" y="0.36" width="71.28" height="71.28"/><path class="cls-2" d="M31.8,57.27H8.85a1.5,1.5,0,0,1-1.5-1.5V15.59a1.5,1.5,0,0,1,1.5-1.5H31.8a1.5,1.5,0,0,1,0,3H10.35V54.27H31.8a1.5,1.5,0,0,1,0,3Z"/><path class="cls-2" d="M38.73,61.28a1.5,1.5,0,0,1-1.5-1.5V46.32H19.93a1.5,1.5,0,0,1-1.5-1.5V26.72a1.5,1.5,0,0,1,1.5-1.5h17.3v-14a1.5,1.5,0,0,1,2.56-1.06L64,34.46a1.5,1.5,0,0,1,0,2.12L39.79,60.84A1.5,1.5,0,0,1,38.73,61.28Zm-17.3-18h17.3a1.5,1.5,0,0,1,1.5,1.5V56.16L60.86,35.52,40.23,14.88V26.72a1.5,1.5,0,0,1-1.5,1.5H21.43Z"/></g></svg>