<svg xmlns="http://www.w3.org/2000/svg" viewBox="0 0 72 72"><title>1-icons_special</title><path d="M48.3,66.42c-11.51,0-20.5-12.78-26.52-21.35l-0.26-.36c-6.46-9.19-13.25-22-8.92-30.88C13,13,16.49,5.34,22.7,5.34a2,2,0,0,1,1.64.85L34,20a2,2,0,0,1-.42,2.73l-5.12,3.95a0.53,0.53,0,0,1-.13.11,1.48,1.48,0,0,0-.17,1c0.1,1,2.19,4.85,6,10.26,3,4.28,6.06,7.86,7.25,8.5a1.58,1.58,0,0,0,1.13.26,0.53,0.53,0,0,1,.18-0.1l5.69-3.13a2,2,0,0,1,2.6.6l9.65,13.73A2,2,0,0,1,61,59c0,5.77-9.53,7.12-11.44,7.33C49.16,66.41,48.73,66.42,48.3,66.42ZM21.75,9.48c-2.69.75-4.84,4.45-5.49,6l0,0.1c-2.74,5.56.31,15.1,8.58,26.86l0.26,0.37c5.72,8.14,14.36,20.44,24.16,19.61,3.21-.36,6.95-1.65,7.7-2.91L48.79,47.93l-4.06,2.24a5.05,5.05,0,0,1-5.2-.11c-2.6-1.4-6.9-7.26-8.63-9.72-4.24-6-6.5-10.12-6.7-12.16a4.94,4.94,0,0,1,1.87-4.74l3.56-2.75ZM42.5,46.85h0ZM28.27,26.77h0Z" fill="gray"/></svg>