<svg xmlns="http://www.w3.org/2000/svg" viewBox="0 0 72 72"><title>1-icons_special</title><path d="M45.06,65.44H26.85a8.64,8.64,0,0,1-8.63-8.63V15.31a8.64,8.64,0,0,1,8.63-8.63H45.06a8.64,8.64,0,0,1,8.63,8.63v41.5A8.64,8.64,0,0,1,45.06,65.44ZM26.85,9.68a5.64,5.64,0,0,0-5.63,5.63v41.5a5.64,5.64,0,0,0,5.63,5.63H45.06a5.64,5.64,0,0,0,5.63-5.63V15.31a5.64,5.64,0,0,0-5.63-5.63Z" fill="gray"/><rect x="32.85" y="12.68" width="6.21" height="1.02" fill="gray"/><path d="M48,55.6h-24a.5.5,0,0,1-.5-.5V16.54a.5.5,0,0,1,.5-.5H48a.5.5,0,0,1,.5.5V55.1A.5.5,0,0,1,48,55.6Zm-23.54-1h23V17h-23Z" fill="gray"/><rect x="0.36" y="0.36" width="71.28" height="71.28" fill="none"/></svg>