<svg xmlns="http://www.w3.org/2000/svg" viewBox="0 0 72 72"><defs><style>.cls-1{fill:none;}.cls-2{fill:gray;}</style></defs><title>m_072</title><g id="Rectangles"><rect class="cls-1" x="0.36" y="0.36" width="71.28" height="71.28"/><g id="History"><g id="_Group_" data-name="&lt;Group&gt;"><path class="cls-2" d="M33.92,63A25.24,25.24,0,0,1,15.1,20.77a1.5,1.5,0,0,1,1.07-.49,1.46,1.46,0,0,1,1.09.44L34.95,38.4a1.5,1.5,0,0,1-2.12,2.12L16.3,24a22.11,22.11,0,0,0-4.8,13.78A22.46,22.46,0,1,0,27.92,16.32a1.5,1.5,0,1,1-.81-2.89A25.29,25.29,0,1,1,33.92,63Z"/></g><g id="_Group_2" data-name="&lt;Group&gt;"><path class="cls-2" d="M34.12,25.18a1.5,1.5,0,0,1-1.06-.44l-9.12-9.12a1.5,1.5,0,0,1,0-2.12l9-9A1.5,1.5,0,0,1,35,6.64l-7.93,7.93,8.06,8.06a1.5,1.5,0,0,1-1.06,2.56Z"/></g></g></g></svg>