<svg xmlns="http://www.w3.org/2000/svg" viewBox="0 0 72 72"><title>m_signout</title><path d="M33,60.42H9a2,2,0,0,1-1.85-2V13.6a2,2,0,0,1,2-2h24c1.1,0,1.4.9,1.4,2s-0.3,1.85-1.4,1.85H11V56.57H33.1c1.1,0,1.25.75,1.25,1.85S34.2,60.42,33,60.42Z" fill="gray"/><path d="M39.09,65.07a2,2,0,0,1-2-2V49H20a2,2,0,0,1-2-2V25a2,2,0,0,1,2-2H37.11V9.1a2,2,0,0,1,3.41-1.41L67.65,34.52a2,2,0,0,1,0,2.83L40.5,64.49A2,2,0,0,1,39.09,65.07ZM22,45H39a2,2,0,0,1,2,2l0,11.25L63.4,35.93,41,13.93,41,25a1.88,1.88,0,0,1-1.85,2H22V45Z" fill="gray"/><rect x="0.36" y="0.36" width="71.28" height="71.28" fill="none"/></svg>