<svg id="SVG_icons" data-name="SVG icons" xmlns="http://www.w3.org/2000/svg" viewBox="0 0 72 72"><defs><style>.cls-1,.cls-2{fill:gray;}.cls-2{fill-rule:evenodd;}</style></defs><title>m_073</title><g id="settings"><g id="_Group_" data-name="&lt;Group&gt;"><path class="cls-1" d="M35.9,46.27A10.37,10.37,0,1,1,46.31,35.91,10.4,10.4,0,0,1,35.9,46.27Zm0-16.73a6.37,6.37,0,1,0,6.41,6.37A6.4,6.4,0,0,0,35.9,29.54Z"/></g><g id="_Group_2" data-name="&lt;Group&gt;"><path class="cls-2" d="M54.85,39.32a3.45,3.45,0,0,0-2.59,2.25,17.45,17.45,0,0,1-.77,1.85,3.42,3.42,0,0,0,.23,3.42L55,51.59,51.66,54.9l-4.78-3.26a3.48,3.48,0,0,0-3.43-.24,17.57,17.57,0,0,1-1.86.77,3.45,3.45,0,0,0-2.26,2.58l-1.07,5.73H33.55l-1.06-5.73a3.45,3.45,0,0,0-2.26-2.58,17.68,17.68,0,0,1-1.86-.77,3.47,3.47,0,0,0-3.43.23l-4.76,3.24-3.33-3.32,3.25-4.73a3.44,3.44,0,0,0,.24-3.41,17.36,17.36,0,0,1-.78-1.85A3.46,3.46,0,0,0,17,39.32l-6.2-1.06V33.57L17,32.52a3.46,3.46,0,0,0,2.59-2.25,17.12,17.12,0,0,1,.77-1.85A3.42,3.42,0,0,0,20.09,25l-3.33-4.82,3.33-3.32,4.84,3.32a3.48,3.48,0,0,0,3.43.24,17.54,17.54,0,0,1,1.86-.77,3.45,3.45,0,0,0,2.26-2.58L33.55,11h4.71l1.06,6.07a3.45,3.45,0,0,0,2.26,2.58,17.29,17.29,0,0,1,1.86.77,3.48,3.48,0,0,0,3.43-.23l4.86-3.34,3.33,3.32L51.72,25a3.44,3.44,0,0,0-.24,3.41,17.34,17.34,0,0,1,.78,1.85,3.45,3.45,0,0,0,2.59,2.25l5.73,1.06v4.69Zm6.23-9.19-5.36-1.07a21,21,0,0,0-.94-2.24l3-4.53a3.47,3.47,0,0,0-.44-4.39L54,14.54a3.51,3.51,0,0,0-4.42-.44l-4.56,3a21.22,21.22,0,0,0-2.26-.93l-1.07-5.34a3.49,3.49,0,0,0-3.43-2.8H33.52a3.5,3.5,0,0,0-3.43,2.8L29,16.2a21.23,21.23,0,0,0-2.26.93l-4.56-3a3.51,3.51,0,0,0-4.42.44l-3.37,3.35A3.47,3.47,0,0,0,14,22.29l3,4.53a20.8,20.8,0,0,0-.94,2.25l-5.37,1.07A3.49,3.49,0,0,0,7.9,33.54v4.73a3.49,3.49,0,0,0,2.81,3.41l5.36,1.07A21,21,0,0,0,17,45l-3,4.53a3.47,3.47,0,0,0,.44,4.39l3.37,3.35a3.51,3.51,0,0,0,4.42.44l4.56-3a20.7,20.7,0,0,0,2.26.93L30.09,61a3.5,3.5,0,0,0,3.43,2.8h4.76A3.5,3.5,0,0,0,41.71,61l1.08-5.33A21.24,21.24,0,0,0,45,54.69l4.56,3A3.51,3.51,0,0,0,54,57.28l3.37-3.35a3.47,3.47,0,0,0,.44-4.39l-3-4.53a20.64,20.64,0,0,0,.94-2.25l5.36-1.07a3.49,3.49,0,0,0,2.82-3.41V33.54A3.49,3.49,0,0,0,61.09,30.13Z"/></g></g></svg>