<svg xmlns="http://www.w3.org/2000/svg" viewBox="0 0 72 72"><title>1-icons_expanded</title><path d="M28.16,51.09q0.49-.52,2.23-2a31.27,31.27,0,0,0,3-2.77,7.21,7.21,0,0,0,1.28-1.92A4.72,4.72,0,0,0,35,42.55a4.13,4.13,0,0,0-1.32-3.12,5,5,0,0,0-3.59-1.26,5.24,5.24,0,0,0-3.58,1.17A4.89,4.89,0,0,0,25,42.73l2,0.2a3.17,3.17,0,0,1,.85-2.32,3,3,0,0,1,2.23-.84,3,3,0,0,1,2.14.79,2.58,2.58,0,0,1,.82,1.94,4,4,0,0,1-.9,2.33,21.42,21.42,0,0,1-3.47,3.34,19.92,19.92,0,0,0-2.53,2.38,7.09,7.09,0,0,0-1.27,2.09A3.41,3.41,0,0,0,24.65,54H35.06V52.13H27.34A6.38,6.38,0,0,1,28.16,51.09Z" fill="gray"/><path d="M44.53,45.45a3.62,3.62,0,0,0,1.75-1.25,3.21,3.21,0,0,0,.57-1.91,3.88,3.88,0,0,0-1.26-2.92,4.61,4.61,0,0,0-3.32-1.2A4.58,4.58,0,0,0,39,39.35a3.82,3.82,0,0,0-1.24,2.89,3.29,3.29,0,0,0,.58,2,3.64,3.64,0,0,0,1.78,1.26,3.9,3.9,0,0,0-2.22,1.41,4.16,4.16,0,0,0-.78,2.57,4.59,4.59,0,0,0,1.43,3.44,5.18,5.18,0,0,0,3.76,1.38,5.19,5.19,0,0,0,3.76-1.37,4.52,4.52,0,0,0,1.43-3.39A4.19,4.19,0,0,0,46.73,47,4.24,4.24,0,0,0,44.53,45.45Zm-4.8-3.28a2.28,2.28,0,0,1,.73-1.7,2.7,2.7,0,0,1,3.67,0,2.41,2.41,0,0,1,.74,1.79A2.33,2.33,0,0,1,44.14,44a2.5,2.5,0,0,1-1.83.7A2.55,2.55,0,0,1,40.44,44,2.45,2.45,0,0,1,39.72,42.18Zm4.89,9.6a3.12,3.12,0,0,1-2.29.89,3.4,3.4,0,0,1-1.67-.42A2.77,2.77,0,0,1,39.49,51a3.49,3.49,0,0,1-.39-1.6,3.08,3.08,0,0,1,3.16-3.16,3.19,3.19,0,0,1,2.33.91,3.1,3.1,0,0,1,.93,2.31A3.05,3.05,0,0,1,44.61,51.78Z" fill="gray"/><path d="M58,12H47V7.5a2,2,0,0,0-4,0V12H29V7.5a2,2,0,0,0-4,0V12H14.16a4.38,4.38,0,0,0-4.37,4.37V60.22a4.38,4.38,0,0,0,4.37,4.37H58a4.38,4.38,0,0,0,4.37-4.37V16.34A4.38,4.38,0,0,0,58,12ZM14.16,15H25v4.78a2,2,0,0,0,4,0V15H43v4.78a2,2,0,0,0,4,0V15H58a1.38,1.38,0,0,1,1.37,1.37v9.11H12.79V16.34A1.38,1.38,0,0,1,14.16,15ZM58,61.59H14.16a1.38,1.38,0,0,1-1.37-1.37V28.46H59.36V60.22A1.38,1.38,0,0,1,58,61.59Z" fill="gray"/></svg>