<svg xmlns="http://www.w3.org/2000/svg" viewBox="0 0 72 72"><title>m_device-mobile-99</title><path d="M45.07,64.2H26.86a8.64,8.64,0,0,1-8.63-8.63V16.23A8.64,8.64,0,0,1,26.86,7.6H45.07a8.64,8.64,0,0,1,8.63,8.63V55.57A8.64,8.64,0,0,1,45.07,64.2ZM26.86,10.6a5.64,5.64,0,0,0-5.63,5.63V55.57a5.64,5.64,0,0,0,5.63,5.63H45.07a5.64,5.64,0,0,0,5.63-5.63V16.23a5.64,5.64,0,0,0-5.63-5.63H26.86Z" fill="gray"/><rect x="32.86" y="14.35" width="6.21" height="1.5" fill="gray"/><circle cx="35.89" cy="56.15" r="1.75" fill="gray"/></svg>