<svg id="SVG_icons" data-name="SVG icons" xmlns="http://www.w3.org/2000/svg" viewBox="0 0 72 72"><defs><style>.cls-1{fill:gray;}</style></defs><title>m_085</title><g id="email"><g id="_Group_" data-name="&lt;Group&gt;"><path class="cls-1" d="M59.63,58H12.45a5.31,5.31,0,0,1-5.31-5.31V19.17a5.31,5.31,0,0,1,5.31-5.31H59.63a5.31,5.31,0,0,1,5.31,5.31V52.74A5.31,5.31,0,0,1,59.63,58ZM12.45,17.86a1.31,1.31,0,0,0-1.31,1.31V52.74A1.31,1.31,0,0,0,12.45,54H59.63a1.31,1.31,0,0,0,1.31-1.31V19.17a1.31,1.31,0,0,0-1.31-1.31Z"/></g><g id="_Group_2" data-name="&lt;Group&gt;"><path class="cls-1" d="M35.92,46.85a2,2,0,0,1-1.3-.48l-27-23.05,2.6-3L35.92,42.23,61.65,20.28l2.6,3-27,23.05A2,2,0,0,1,35.92,46.85Z"/></g></g></svg>