<svg xmlns="http://www.w3.org/2000/svg" viewBox="0 0 72 72"><title>1-icons_expanded</title><path d="M58.38,64.35H13.86A6.48,6.48,0,0,1,7.6,57.69V32A6.86,6.86,0,0,1,10,26.69L32.3,8.47a6,6,0,0,1,7.64,0L62.2,26.69A6.86,6.86,0,0,1,64.65,32V57.69A6.48,6.48,0,0,1,58.38,64.35ZM36.12,10.09a3,3,0,0,0-1.92.7L11.94,29a3.83,3.83,0,0,0-1.34,3V57.69a3.48,3.48,0,0,0,3.26,3.66H58.38a3.48,3.48,0,0,0,3.26-3.66V32a3.83,3.83,0,0,0-1.34-3L38,10.8A3,3,0,0,0,36.12,10.09Z" fill="gray"/><path d="M46.67,62.85h-3V49.76H28.55v13.1h-3V48.26a1.5,1.5,0,0,1,1.5-1.5H45.17a1.5,1.5,0,0,1,1.5,1.5v14.6Z" fill="gray"/></svg>