<svg xmlns="http://www.w3.org/2000/svg" viewBox="0 0 72 72"><title>1-icons_special</title><path d="M61.45,56.1c-0.28-.19-6.94-4.82-6.94-19.31,0,0,0-.13-0.21-8.39A18.19,18.19,0,0,0,40.17,10.68a4,4,0,0,0-8,0A18.17,18.17,0,0,0,18.07,28.35c-0.21,8.31-.21,8.4-0.21,8.44,0,14.49-6.66,19.12-6.93,19.3A2,2,0,0,0,12,59.77H28.34a8,8,0,0,0,15.69,0H60.35A2,2,0,0,0,61.45,56.1Zm-25.26,7a5,5,0,0,1-4.71-3.29H40.9A5,5,0,0,1,36.19,63.06ZM16.68,55.77c2.42-3.37,5.19-9.32,5.19-19,0-.3.21-8.36,0.21-8.41a14.11,14.11,0,1,1,28.23.05s0.21,8.06.21,8.33c0,9.65,2.76,15.61,5.19,19h-39Z" fill="gray"/></svg>