<svg xmlns="http://www.w3.org/2000/svg" viewBox="0 0 72 72"><title>1-icons_special</title><path d="M35.9,7.81A28.32,28.32,0,1,0,64.22,36.13,28.35,28.35,0,0,0,35.9,7.81ZM10.61,37.29H21A51.06,51.06,0,0,0,22.33,48H13.56A25.14,25.14,0,0,1,10.61,37.29Zm26.79-16V11c3.27,0.92,6.17,4.78,8.07,10.26H37.4Zm9,3a47.39,47.39,0,0,1,1.4,10H37.4v-10h9ZM34.4,11V21.29H26.33C28.23,15.81,31.13,12,34.4,11Zm0,13.26v10H24a47.39,47.39,0,0,1,1.4-10h9ZM21,34.29H10.65a25.13,25.13,0,0,1,2.88-10h8.78A50.73,50.73,0,0,0,21,34.29Zm3,3H34.4V48h-9A47.65,47.65,0,0,1,24,37.29ZM34.4,51v10.2c-3.26-.92-6.15-4.75-8.05-10.2H34.4Zm3,10.19V51h8.05C43.55,56.48,40.66,60.32,37.4,61.23ZM37.4,48V37.29H47.8A47.65,47.65,0,0,1,46.36,48h-9ZM50.79,37.29h10.4a25.14,25.14,0,0,1-3,10.75H49.47A51.07,51.07,0,0,0,50.79,37.29Zm0-3a50.73,50.73,0,0,0-1.29-10h8.78a25.13,25.13,0,0,1,2.88,10H50.78Zm5.62-13H48.66a27,27,0,0,0-4.76-9.17A25.42,25.42,0,0,1,56.39,21.29ZM27.9,12.12a27,27,0,0,0-4.76,9.17H15.41A25.42,25.42,0,0,1,27.9,12.12ZM15.45,51h7.71a26.93,26.93,0,0,0,4.74,9.11A25.42,25.42,0,0,1,15.45,51ZM43.9,60.15A26.93,26.93,0,0,0,48.64,51h7.71A25.42,25.42,0,0,1,43.9,60.15Z" fill="gray"/></svg>