<svg xmlns="http://www.w3.org/2000/svg" viewBox="0 0 72 72"><title>m_fingerprint</title><rect x="0.5" y="0.36" width="71.28" height="71.28" fill="none"/><path d="M52.06,59.51a1.75,1.75,0,0,1-1-3.17,25.43,25.43,0,0,0,7.48-32.73,1.75,1.75,0,0,1,3.08-1.67,28.94,28.94,0,0,1-8.5,37.24A1.75,1.75,0,0,1,52.06,59.51Z" fill="gray"/><path d="M36.19,64.64A29,29,0,0,1,20.43,60a1.75,1.75,0,0,1,1.9-2.94,25.5,25.5,0,0,0,20.49,3.2,1.75,1.75,0,1,1,.92,3.38A28.79,28.79,0,0,1,36.19,64.64Z" fill="gray"/><path d="M55.69,18.33a1.49,1.49,0,0,1-1.08-.46,25.47,25.47,0,0,0-18.44-7.82,1.5,1.5,0,0,1,0-3,28.44,28.44,0,0,1,20.6,8.73A1.5,1.5,0,0,1,55.69,18.33Z" fill="gray"/><path d="M9.86,30.68a1.75,1.75,0,0,1-1.7-2.19A29.09,29.09,0,0,1,27.57,8.11a1.75,1.75,0,0,1,1,3.34A25.57,25.57,0,0,0,11.55,29.36,1.75,1.75,0,0,1,9.86,30.68Z" fill="gray"/><path d="M13.72,52.53a1.5,1.5,0,0,1-1.24-.65,28.59,28.59,0,0,1-4.9-14,1.5,1.5,0,1,1,3-.22A25.6,25.6,0,0,0,15,50.18,1.5,1.5,0,0,1,13.72,52.53Z" fill="gray"/><path d="M24,52.53a1.74,1.74,0,0,1-1.1-.39,21.11,21.11,0,0,1,13.3-37.49,1.75,1.75,0,0,1,0,3.5A17.6,17.6,0,0,0,25.07,49.42,1.75,1.75,0,0,1,24,52.53Z" fill="gray"/><path d="M42.09,55.93a1.75,1.75,0,0,1-.54-3.42,17.67,17.67,0,0,0,7.5-4.78,1.75,1.75,0,1,1,2.56,2.38,21.18,21.18,0,0,1-9,5.72A1.74,1.74,0,0,1,42.09,55.93Z" fill="gray"/><path d="M54.09,44.81a1.75,1.75,0,0,1-1.62-2.41,17.63,17.63,0,0,0-8.26-22.31A1.75,1.75,0,0,1,45.82,17a21.13,21.13,0,0,1,9.89,26.75A1.75,1.75,0,0,1,54.09,44.81Z" fill="gray"/><path d="M43.25,46.87a1.5,1.5,0,0,1-.91-2.69,10.21,10.21,0,0,0,2.88-12.74,1.5,1.5,0,0,1,2.67-1.37,13.21,13.21,0,0,1-3.73,16.49A1.49,1.49,0,0,1,43.25,46.87Z" fill="gray"/><path d="M28.8,28.47a1.5,1.5,0,0,1-.95-2.67,13.24,13.24,0,0,1,8.31-2.94A13.08,13.08,0,0,1,42,24.24a1.5,1.5,0,1,1-1.33,2.69,10.39,10.39,0,0,0-11,1.22A1.49,1.49,0,0,1,28.8,28.47Z" fill="gray"/><path d="M33.39,55.83a1.5,1.5,0,0,1-1.5-1.5c0-2.48-1.09-5.8-3.17-7.34A13.62,13.62,0,0,1,23,36.08a13.13,13.13,0,0,1,1-5.13,1.5,1.5,0,1,1,2.76,1.17,10.14,10.14,0,0,0-.8,4,10.65,10.65,0,0,0,4.56,8.51c3,2.24,4.38,6.51,4.38,9.75A1.5,1.5,0,0,1,33.39,55.83Z" fill="gray"/><path d="M38.21,50.72a1.5,1.5,0,0,1-1.5-1.5c0-2.07-.5-4.86-1.3-5.75C35,43,33,41,32.31,40.36A5.83,5.83,0,1,1,42,36a1.5,1.5,0,0,1-3,0,2.83,2.83,0,1,0-4.7,2.12c0.8,0.71,2.85,2.81,3.34,3.34,2,2.24,2.08,7.21,2.08,7.77A1.5,1.5,0,0,1,38.21,50.72Z" fill="gray"/></svg>