<svg xmlns="http://www.w3.org/2000/svg" viewBox="0 0 72 72"><title>m_email1</title><path d="M59.54,14.53H12.37a4.81,4.81,0,0,0-4.81,4.81V52.9a4.81,4.81,0,0,0,4.81,4.81H59.54a4.81,4.81,0,0,0,4.81-4.81V19.33A4.81,4.81,0,0,0,59.54,14.53Zm-47.17,3H59.54a1.81,1.81,0,0,1,1.81,1.81v2L35.84,43,10.57,21.5V19.33A1.81,1.81,0,0,1,12.37,17.53ZM59.54,54.7H12.37a1.81,1.81,0,0,1-1.81-1.81V25.44l24.3,20.72a1.5,1.5,0,0,0,1.95,0L61.35,25.23V52.9A1.81,1.81,0,0,1,59.54,54.7Z" fill="gray"/><rect x="0.36" y="0.36" width="71.28" height="71.28" fill="none"/></svg>