<svg id="SVG_icons" data-name="SVG icons" xmlns="http://www.w3.org/2000/svg" viewBox="0 0 72 72"><defs><style>.cls-1{fill:gray;}</style></defs><title>m_088</title><g id="home"><g id="_Group_" data-name="&lt;Group&gt;"><path class="cls-1" d="M58.19,64.87H13.67a7,7,0,0,1-6.76-7.16V32a7.26,7.26,0,0,1,2.63-5.67L31.79,8.1a6.47,6.47,0,0,1,8.27,0L62.33,26.31A7.36,7.36,0,0,1,65,32V57.71A7,7,0,0,1,58.19,64.87ZM35.93,10.61a2.52,2.52,0,0,0-1.6.59L12.06,29.41A3.33,3.33,0,0,0,10.91,32V57.71a3,3,0,0,0,2.76,3.16H58.19A3,3,0,0,0,61,57.71V32a3.33,3.33,0,0,0-1.16-2.57L37.53,11.2A2.53,2.53,0,0,0,35.93,10.61Z"/></g><g id="_Group_2" data-name="&lt;Group&gt;"><path class="cls-1" d="M47,62.87H43V50.27H28.86v12.6h-4V48.27a2,2,0,0,1,2-2H45a2,2,0,0,1,2,2Z"/></g></g></svg>