<svg xmlns="http://www.w3.org/2000/svg" viewBox="0 0 72 72"><title>1-icons_special</title><path d="M64.45,56.4a3.2,3.2,0,0,0-1.7-2.55,34.72,34.72,0,0,0-4.52-1.93,17.27,17.27,0,0,1-2.65-1.12,9,9,0,0,1-.51-2,2.67,2.67,0,0,0,1.1-2,3.41,3.41,0,0,1,.37-.84,6.18,6.18,0,0,0,.93-3,2.8,2.8,0,0,0-.25-1.29.74.74,0,0,1-.07-.26c0-.33-.09-.54-.14-.75a10.58,10.58,0,0,1-.19-2.4,4.5,4.5,0,0,0-2-3.26,8.18,8.18,0,0,0-.9-.6L56,31.07a1.75,1.75,0,0,0,0-1.81L43.76,9a1.75,1.75,0,0,0-1.5-.85H20.64a1.75,1.75,0,0,0-1.5.85L6.89,29.26a1.75,1.75,0,0,0,0,1.81L19.14,51.46a1.75,1.75,0,0,0,1.5.85H31.5a1.75,1.75,0,0,0,1.75-1.75V43a6.51,6.51,0,0,0,5.22-6.4c0-4-2.9-5.67-5.74-6.76-3-1.17-3.56-2-3.56-3.21,0-1,.8-2.27,3.06-2.27a7.32,7.32,0,0,1,3.51.88.8.8,0,0,0,1.14-.45l.73-2.16a.8.8,0,0,0-.36-1,9.8,9.8,0,0,0-4.54-1.09V17a1.4,1.4,0,0,0-2.8,0v3.83a6.27,6.27,0,0,0-5,6.05c0,3,1.94,5.14,5.92,6.55,2.81,1.08,3.35,2,3.35,3.33,0,1.69-1.3,2.7-3.49,2.7a8.6,8.6,0,0,1-4.32-1.22.8.8,0,0,0-1.19.45l-.67,2.22a.8.8,0,0,0,.32.9,11,11,0,0,0,4.93,1.45v5.53H21.63L10.43,30.17l11.2-18.55H41.27l11.2,18.55-2,3.32a4.19,4.19,0,0,0-.85.09,7.52,7.52,0,0,1-2.62.28,2.42,2.42,0,0,0-1.77.43A5.73,5.73,0,0,0,43,37.46a14.28,14.28,0,0,0-.59,4.15v.18a2.26,2.26,0,0,1-.06.64,3.8,3.8,0,0,0-.11,1,4.84,4.84,0,0,0,.93,2.65,3.14,3.14,0,0,0,.59.64,3.08,3.08,0,0,0,1,1.76l0,0a8.61,8.61,0,0,1-.56,2.32,17.31,17.31,0,0,1-2.62,1,28,28,0,0,0-5.08,2,3.12,3.12,0,0,0-1.69,2.58c-.07.46-.17,3.93-.23,6a1.25,1.25,0,0,0,1.25,1.28H63.43a1.25,1.25,0,0,0,1.25-1.28C64.63,60.38,64.52,56.91,64.45,56.4ZM37.11,61.2c.06-1.93.13-4.07.16-4.37l0-.14a.64.64,0,0,1,.43-.65,26.2,26.2,0,0,1,4.62-1.83,12.82,12.82,0,0,0,3.47-1.44c1.08-.83,1.48-3.89,1.42-4.6a2.25,2.25,0,0,0-.76-1.44c-.22-.23-.27-.28-.28-.54a1.81,1.81,0,0,0-.77-1.32,1.6,1.6,0,0,1-.2-.19,2.57,2.57,0,0,1-.51-1.27,1.41,1.41,0,0,1,0-.43,4.61,4.61,0,0,0,.13-1.23V41.6a11.84,11.84,0,0,1,.52-3.54,3.23,3.23,0,0,1,1.17-1.66l.1-.06h.1a9.75,9.75,0,0,0,3.4-.33,4.35,4.35,0,0,1,3.12,1.07c.75.59,1,1.13,1,1.35a12.86,12.86,0,0,0,.25,2.88c0,.16.07.32.11.57a3.21,3.21,0,0,0,.28,1,1.28,1.28,0,0,1,0,.23,3.75,3.75,0,0,1-.51,1.58,5.36,5.36,0,0,0-.77,1.87.75.75,0,0,1-.06.24l-.13.1a1.93,1.93,0,0,0-1,1.55c0,.25.27,3.41,1.42,4.29a14.24,14.24,0,0,0,3.39,1.54,32.82,32.82,0,0,1,4.2,1.79c.34.18.36.35.43.76s.11,2.46.17,4.39Z" fill="gray"/><rect x="0.36" y="0.36" width="71.28" height="71.28" fill="none"/></svg>