<svg xmlns="http://www.w3.org/2000/svg" viewBox="0 0 72 72"><title>1-icons_special</title><path d="M36.2,36.08a9.73,9.73,0,1,1,9.73-9.73A9.75,9.75,0,0,1,36.2,36.08Zm0-15.47a5.73,5.73,0,1,0,5.73,5.73A5.74,5.74,0,0,0,36.2,20.62Z" fill="gray"/><path d="M58.62,63.85l-5.76-9.22A1,1,0,0,0,52,54.17H42.38c5.23-7.6,13-20.21,13-27.73a19.21,19.21,0,1,0-38.41,0c0,7.5,7.81,20.12,13,27.73H20.23a1,1,0,0,0-.85.47l-5.76,9.22a1,1,0,0,0,.85,1.53h43.3A1,1,0,0,0,58.62,63.85ZM36.2,11.23A15.22,15.22,0,0,1,51.41,26.44c0,7.26-9.84,22.21-15.2,29.53C30.84,48.63,21,33.68,21,26.44A15.22,15.22,0,0,1,36.2,11.23ZM16.27,63.38l4.51-7.22H31.43c1.75,2.48,3,4.12,3.19,4.36a2,2,0,0,0,1.58.78h0a2,2,0,0,0,1.58-.78c0.18-.24,1.44-1.88,3.2-4.36H51.45L56,63.38H16.27Z" fill="gray"/></svg>