<svg id="SVG_icons" data-name="SVG icons" xmlns="http://www.w3.org/2000/svg" viewBox="0 0 72 72"><defs><style>.cls-1{fill:gray;}</style></defs><title>m_089</title><path class="cls-1" d="M51.53,32h-4V22.2a11.67,11.67,0,1,0-23.34,0V32h-4V22.2a15.67,15.67,0,1,1,31.34,0Z"/><path class="cls-1" d="M35.86,65.19c-8.8,0-17.08-2-23.32-5.51a2,2,0,0,1-1-1.74V35.69a2,2,0,0,1,1-1.74c6.24-3.56,14.52-5.51,23.32-5.51S53,30.42,59.28,34a2,2,0,0,1,1,1.73V57.88a2,2,0,0,1-1,1.73C53,63.21,44.71,65.19,35.86,65.19ZM15.53,56.75c5.52,2.87,12.68,4.44,20.33,4.44S50.75,59.6,56.29,56.7V36.93c-5.53-2.9-12.73-4.49-20.43-4.49S21.05,34,15.53,36.88Z"/></svg>