<svg xmlns="http://www.w3.org/2000/svg" viewBox="0 0 72 72"><title>m_connector</title><path d="M36.45,8A28.32,28.32,0,1,0,64.77,36.31,28.35,28.35,0,0,0,36.45,8Zm0,3A25.35,25.35,0,0,1,61.77,36.31c0,0.47,0,.94,0,1.4H53.24v-9.5H40.44v9.5H31.85v-9.5H19.24v9.5H11.17c0-.46,0-0.93,0-1.4A25.35,25.35,0,0,1,36.45,11Zm0,50.64A25.35,25.35,0,0,1,11.36,39.72h9.87v-9.5h8.62v9.5H42.44v-9.5h8.8v9.5h10.3A25.35,25.35,0,0,1,36.45,61.63Z" fill="gray"/><path d="M29.23,46.33c-0.2-.88-0.63-1.76-1.66-1.76A1.65,1.65,0,0,0,26,46.49c0,1,.2,1.28,2.09,2.41,1.48,0.88,2.49,1.62,2.49,3.48s-1,3.39-3,3.39-2.9-1.4-3.08-3.31l1.21-.16c0.16,1.33.45,2.34,1.91,2.34,1,0,1.78-.7,1.78-2.14s-1-2.12-2.27-2.85-2.3-1.39-2.3-3.15a2.87,2.87,0,0,1,2.79-3.06c1.69,0,2.52,1.21,2.83,2.72Z" fill="gray"/><path d="M27.53,56.26C25.4,56.26,24.19,55,24,52.5A0.5,0.5,0,0,1,24.39,52l1.21-.16a0.5,0.5,0,0,1,.56.44c0.18,1.49.48,1.9,1.41,1.9s1.28-.89,1.28-1.64c0-1.19-.65-1.62-1.9-2.34l-0.12-.07c-1.37-.8-2.55-1.49-2.55-3.58a3.36,3.36,0,0,1,3.29-3.56c1.73,0,2.91,1.11,3.32,3.12a0.5,0.5,0,0,1-.41.59l-1.17.18a0.51,0.51,0,0,1-.56-0.38c-0.31-1.37-.93-1.37-1.17-1.37a1.2,1.2,0,0,0-1.08,1.43c0,0.69,0,.88,1.85,2,1.55,0.92,2.73,1.8,2.73,3.9C31.06,54.74,29.68,56.26,27.53,56.26ZM25,52.88c0.27,1.64,1.06,2.38,2.52,2.38,2.34,0,2.53-2.21,2.53-2.89,0-1.54-.72-2.14-2.24-3-1.86-1.12-2.33-1.54-2.33-2.84a2.13,2.13,0,0,1,2.08-2.43,2.08,2.08,0,0,1,2,1.7l0.19,0a2.22,2.22,0,0,0-2.21-1.81,2.37,2.37,0,0,0-2.29,2.56c0,1.45.67,1.91,2.06,2.72l0.12,0.07c1.23,0.71,2.4,1.39,2.4,3.21s-1.18,2.64-2.28,2.64a2.28,2.28,0,0,1-2.34-2.28Z" fill="gray"/><path d="M38.17,46.33c-0.2-.88-0.63-1.76-1.66-1.76a1.65,1.65,0,0,0-1.58,1.93c0,1,.2,1.28,2.09,2.41,1.48,0.88,2.49,1.62,2.49,3.48s-1,3.39-3,3.39-2.9-1.4-3.08-3.31l1.21-.16c0.16,1.33.45,2.34,1.91,2.34,1,0,1.78-.7,1.78-2.14s-1-2.12-2.27-2.85-2.3-1.39-2.3-3.15a2.87,2.87,0,0,1,2.79-3.06c1.69,0,2.52,1.21,2.83,2.72Z" fill="gray"/><path d="M36.47,56.26c-2.14,0-3.34-1.27-3.58-3.77A0.5,0.5,0,0,1,33.33,52l1.21-.16a0.49,0.49,0,0,1,.37.1,0.5,0.5,0,0,1,.19.33c0.18,1.49.48,1.9,1.41,1.9s1.28-.89,1.28-1.64c0-1.19-.65-1.62-1.9-2.34l-0.12-.07c-1.37-.8-2.55-1.49-2.55-3.58a3.36,3.36,0,0,1,3.29-3.56c1.73,0,2.91,1.11,3.32,3.12a0.5,0.5,0,0,1-.41.59l-1.17.18a0.51,0.51,0,0,1-.56-0.38c-0.31-1.37-.93-1.37-1.17-1.37a1.2,1.2,0,0,0-1.08,1.43c0,0.69,0,.88,1.85,2,1.55,0.92,2.73,1.8,2.73,3.9C40,54.74,38.62,56.26,36.47,56.26ZM34,52.88c0.27,1.64,1.06,2.38,2.52,2.38,2.34,0,2.53-2.21,2.53-2.89,0-1.54-.72-2.14-2.24-3-1.86-1.12-2.33-1.54-2.33-2.84a2.13,2.13,0,0,1,2.08-2.43,2.08,2.08,0,0,1,2,1.7l0.19,0a2.22,2.22,0,0,0-2.21-1.81,2.37,2.37,0,0,0-2.29,2.56c0,1.45.67,1.91,2.06,2.72l0.12,0.07c1.23,0.71,2.4,1.39,2.4,3.21s-1.18,2.64-2.28,2.64a2.28,2.28,0,0,1-2.34-2.28Z" fill="gray"/><path d="M48.71,49.59c0,1.51.05,6.18-3.33,6.18S42,51.13,42,49.59c0-2,.13-6.16,3.33-6.16C48.76,43.43,48.71,48,48.71,49.59Zm-5.4,0c0,3.24.38,5,2.07,5,2.09,0,2.07-3,2.07-5,0-2.27.05-5-2.07-5S43.31,47.82,43.31,49.59Z" fill="gray"/><path d="M45.38,56.26A3.2,3.2,0,0,1,43,55.34c-1.49-1.49-1.48-4.29-1.48-5.63V49.59c0-1.65,0-6.66,3.83-6.66,1.15,0,2.67.48,3.39,2.77a13,13,0,0,1,.44,3.81l-0.5.07,0.5,0.07a13,13,0,0,1-.44,3.8C48,55.77,46.52,56.26,45.38,56.26Zm0-12.33c-2.54,0-2.83,3.23-2.83,5.66V49.7c0,1.12,0,3.73,1.19,4.93a2.2,2.2,0,0,0,1.64.63c1.2,0,2-.69,2.44-2.11a12.11,12.11,0,0,0,.39-3.5V49.51A12.13,12.13,0,0,0,47.82,46,2.48,2.48,0,0,0,45.38,43.93Zm0,11.2c-2.37,0-2.57-2.74-2.57-5.54V49.46a13.51,13.51,0,0,1,.27-3.24c0.46-1.78,1.5-2.15,2.3-2.15a2.29,2.29,0,0,1,2.3,2,13.6,13.6,0,0,1,.28,3.4v0.16A14.45,14.45,0,0,1,47.67,53C47.22,54.77,46.18,55.13,45.38,55.13Zm0-10.06c-0.42,0-1,.15-1.33,1.4a12.75,12.75,0,0,0-.24,3v0.13c0,3.78.6,4.54,1.57,4.54,0.46,0,1-.15,1.33-1.34a13.53,13.53,0,0,0,.24-3.15V49.42a12.94,12.94,0,0,0-.24-3.13A1.3,1.3,0,0,0,45.38,45.06Z" fill="gray"/></svg>