<svg xmlns="http://www.w3.org/2000/svg" viewBox="0 0 72 72"><defs><style>.cls-1{fill:none;}.cls-2{fill:gray;}</style></defs><title>m_099</title><g id="Rectangles"><rect class="cls-1" x="0.36" y="0.36" width="71.28" height="71.28"/><path class="cls-2" d="M33.83,65.33a1.5,1.5,0,0,1-.61-.13c-.65-.29-15.84-7.16-18.49-20.32-1.52-7.54,1.42-15.47,8.73-23.61L12.92,10.73A1.5,1.5,0,0,1,14,8.17h0l39,.07a1.5,1.5,0,0,1,1.5,1.5V48.68a1.5,1.5,0,0,1-2.56,1.06L41.08,38.88c-1.83.82-6.17,3.21-8.09,7.94-1.81,4.47-1.08,10,2.18,16.32a1.5,1.5,0,0,1-1.33,2.18ZM17.61,11.17l9,9a1.5,1.5,0,0,1,0,2.09c-7.32,7.76-10.33,15.17-9,22,1.57,7.82,8.54,13.32,13,16.1-2-5.5-2.18-10.43-.44-14.71,3-7.32,10.42-9.86,10.74-10a1.5,1.5,0,0,1,1.53.36l9,9V11.23Z"/></g></svg>