<svg xmlns="http://www.w3.org/2000/svg" viewBox="0 0 72 72"><defs><style>.cls-1{fill:none;}.cls-2{fill:gray;}</style></defs><title>m_095</title><g id="Rectangles"><rect class="cls-1" x="0.36" y="0.36" width="71.28" height="71.28"/><g id="Select"><g id="_Group_" data-name="&lt;Group&gt;"><polygon class="cls-2" points="26.43 63.18 8.69 63.18 8.69 45.42 11.69 45.42 11.69 60.18 26.43 60.18 26.43 63.18"/></g><g id="_Group_2" data-name="&lt;Group&gt;"><polygon class="cls-2" points="11.69 27.66 8.69 27.66 8.69 9.9 26.43 9.9 26.43 12.9 11.69 12.9 11.69 27.66"/></g><g id="_Group_3" data-name="&lt;Group&gt;"><polygon class="cls-2" points="61.69 63.18 43.96 63.18 43.96 60.18 58.69 60.18 58.69 45.42 61.69 45.42 61.69 63.18"/></g><g id="_Group_4" data-name="&lt;Group&gt;"><polygon class="cls-2" points="61.69 27.66 58.69 27.66 58.69 12.9 43.96 12.9 43.96 9.9 61.69 9.9 61.69 27.66"/></g></g></g></svg>