<svg xmlns="http://www.w3.org/2000/svg" viewBox="0 0 72 72"><title>m_brand</title><path d="M62.74,63.95H8.81a1.5,1.5,0,0,1-1.5-1.54c0.07-2.48.3-10.64,0.44-11.54l0-.21a5.05,5.05,0,0,1,2.8-4.16,54,54,0,0,1,9.75-3.88,27.34,27.34,0,0,0,5.53-2.15,15.13,15.13,0,0,0,1.31-5.57s-0.22-.23-0.35-0.37a5.07,5.07,0,0,1-1.66-3.27L25,31.16A5.66,5.66,0,0,1,23.91,30a8.67,8.67,0,0,1-1.66-4.66,6.53,6.53,0,0,1,.2-1.75,5.21,5.21,0,0,0,.14-1.47V21.73a26.54,26.54,0,0,1,1.12-7.87,10.17,10.17,0,0,1,4-5.62,3.8,3.8,0,0,1,2.86-.69A15.54,15.54,0,0,0,36,7a1.5,1.5,0,0,1,.33,0h3.49v3H36.47a17.9,17.9,0,0,1-6.19.59,1,1,0,0,0-1,.24,7.2,7.2,0,0,0-2.69,3.8,23.88,23.88,0,0,0-1,7.15v0.35a8.16,8.16,0,0,1-.22,2.17,3.63,3.63,0,0,0-.11,1.05,5.71,5.71,0,0,0,1.16,3,3.07,3.07,0,0,0,.57.56,2.64,2.64,0,0,1,1.16,1.89A2.14,2.14,0,0,0,29,32.42a3.48,3.48,0,0,1,1.21,2.23c0.13,1.62-.83,6.94-2.42,8.16-1.27,1-3.58,1.72-6.49,2.67a51.84,51.84,0,0,0-9.2,3.64,2.13,2.13,0,0,0-1.3,2l0,0.26c-0.07.55-.23,5.11-0.36,9.62H61.24V50.52h3V62.45A1.5,1.5,0,0,1,62.74,63.95Z" fill="gray"/><path d="M42.74,21V19.15H64.27V21H42.74Zm0,5.39V24.54H64.27v1.83H42.74Zm0-16.26V6.63H64.27v3.48H42.74Zm0,5.43V13.82H64.27v1.72H42.74Zm0,16.17V30H64.27v1.72H42.74Zm0,5.39V35.38H64.27V37.1H42.74Zm0,5.39V40.77H64.27v1.72H42.74Zm0,5.39V46.16H64.27v1.72H42.74Z" fill="gray"/></svg>