<svg xmlns="http://www.w3.org/2000/svg" viewBox="0 0 72 72"><title>1-icons_expanded</title><rect x="45.14" y="26.46" width="16.73" height="1.83" fill="gray"/><rect x="45.14" y="31.85" width="16.73" height="1.83" fill="gray"/><rect x="45.14" y="16.18" width="7.43" height="7.08" fill="gray"/><polygon points="55.94 23.14 55.94 21.42 61.87 21.42 61.87 23.14 55.94 23.14 55.94 23.14" fill="gray"/><polygon points="55.94 18.05 55.94 16.32 61.87 16.32 61.87 18.04 55.94 18.04 55.94 18.05" fill="gray"/><polygon points="45.14 39.02 45.14 37.29 61.87 37.29 61.87 39.01 45.14 39.01 45.14 39.02" fill="gray"/><path d="M65,7.93H42a2.72,2.72,0,0,0-1.51.46A1.49,1.49,0,0,0,39.75,8l-3-.6a1.49,1.49,0,0,0-.62,0,15.55,15.55,0,0,1-5.41.57,3.8,3.8,0,0,0-2.86.69,10.17,10.17,0,0,0-4,5.62,26.54,26.54,0,0,0-1.12,7.87v0.34a5.21,5.21,0,0,1-.14,1.47,6.54,6.54,0,0,0-.2,1.75,8.67,8.67,0,0,0,1.66,4.66,5.66,5.66,0,0,0,1.13,1.19l0.12,0.1A5.07,5.07,0,0,0,27,34.93l0.35,0.37A15.14,15.14,0,0,1,26,40.87,27.28,27.28,0,0,1,20.49,43a54,54,0,0,0-9.75,3.88,5.05,5.05,0,0,0-2.8,4.16l0,0.21c-0.14.9-.37,9.06-0.44,11.54A1.5,1.5,0,0,0,9,64.35H62.9a1.5,1.5,0,0,0,1.5-1.5V50.92a1.5,1.5,0,0,0-3,0V61.35H10.51c0.13-4.51.29-9.07,0.36-9.62l0-.26a2.13,2.13,0,0,1,1.3-2,51.87,51.87,0,0,1,9.2-3.64c2.92-.95,5.22-1.69,6.49-2.67C29.5,42,30.44,36.5,30.32,35a3.49,3.49,0,0,0-1.21-2.23,2.14,2.14,0,0,1-.82-1.67,2.64,2.64,0,0,0-1.16-1.89,3.07,3.07,0,0,1-.57-0.56,5.71,5.71,0,0,1-1.16-3,3.63,3.63,0,0,1,.11-1.05,8.17,8.17,0,0,0,.22-2.17V22.13a23.88,23.88,0,0,1,1-7.15,7.2,7.2,0,0,1,2.69-3.8,1,1,0,0,1,1-.24,17.63,17.63,0,0,0,6-.56l2.68,0.54h0.13v33A2.74,2.74,0,0,0,42,46.63H65a2.74,2.74,0,0,0,2.74-2.74V10.67A2.74,2.74,0,0,0,65,7.93Zm0.74,36a0.74,0.74,0,0,1-.74.74H42a0.74,0.74,0,0,1-.74-0.74V10.67A0.74,0.74,0,0,1,42,9.93H65a0.74,0.74,0,0,1,.74.74V43.89Z" fill="gray"/></svg>