<svg xmlns="http://www.w3.org/2000/svg" viewBox="0 0 72 72"><title>1-icons_expanded</title><path d="M62.45,36.8c-2.71-6.51-8-12.5-14.84-16.87a42.63,42.63,0,0,0-7.09-3.64l9.66-3.54A2,2,0,0,0,48.79,9L34.36,14.29a2,2,0,0,0-1.19,2.57L38.54,31.5a2,2,0,1,0,3.76-1.38L38.49,19.74a2,2,0,0,0,.33.17,38.72,38.72,0,0,1,6.64,3.39c6.17,3.93,10.9,9.27,13.3,15C61,43.85,60.92,49.07,58.39,53c-5.37,8.43-19.94,8.8-32.47.82s-18.35-21.34-13-29.77a2,2,0,1,0-3.37-2.15C3,32.23,9.38,48.06,23.77,57.23a38.52,38.52,0,0,0,20.35,6.32c7.55,0,14.11-2.82,17.64-8.36C65,50.08,65.26,43.55,62.45,36.8Z" fill="gray"/></svg>