<svg xmlns="http://www.w3.org/2000/svg" viewBox="0 0 72 72"><defs><style>.cls-1{fill:none;}.cls-2{fill:gray;}</style></defs><title>m_102</title><g id="Rectangles"><rect class="cls-1" x="0.36" y="0.36" width="71.28" height="71.28"/><g id="History"><g id="_Group_" data-name="&lt;Group&gt;"><path class="cls-2" d="M42.75,60.42a38.09,38.09,0,0,1-20.11-6.28C15.87,49.82,10.66,43.9,8,37.48c-2.76-6.61-2.54-13,.62-17.95a1.5,1.5,0,1,1,2.53,1.61c-2.62,4.11-2.75,9.5-.38,15.18C13.19,42.19,18,47.61,24.25,51.61s13.22,6.05,19.56,5.79c6.15-.25,11-2.65,13.6-6.76,5.52-8.66-.35-22.31-13.08-30.43a51.11,51.11,0,0,0-11-4.84,1.5,1.5,0,0,1,.89-2.87,54.42,54.42,0,0,1,11.69,5.18c14.13,9,20.41,24.51,14,34.57-3.16,5-8.84,7.85-16,8.14Z"/></g><g id="_Group_2" data-name="&lt;Group&gt;"><path class="cls-2" d="M39,29.64a1.5,1.5,0,0,1-1.41-1L32.24,14a1.5,1.5,0,0,1,.89-1.92L47.57,6.79a1.5,1.5,0,1,1,1,2.82l-13,4.78,4.85,13.24a1.5,1.5,0,0,1-1.41,2Z"/></g></g></g></svg>