<svg xmlns="http://www.w3.org/2000/svg" viewBox="0 0 72 72"><title>m_brand</title><path d="M68.22,45.46v-0.1a3.42,3.42,0,0,0-1.85-2.77c-1.53-.83-2.9-1.5-4.1-2.08a23.46,23.46,0,0,1-3.57-1.94,10.13,10.13,0,0,1-.8-3.28c0-.19.24-0.9,1.87-3.3l0.14-.2A7.17,7.17,0,0,0,61,28.33a3,3,0,0,0-.27-1.41,1.47,1.47,0,0,1-.14-0.49c-0.06-.4-0.11-0.66-0.17-0.92a13.92,13.92,0,0,1-.26-3.17,5.18,5.18,0,0,0-2.31-3.71c-1.48-1.16-4-2.34-6.15-1.85a10.19,10.19,0,0,1-3.53.37,2.5,2.5,0,0,0-1.88.45,6.66,6.66,0,0,0-2.62,3.68,17.32,17.32,0,0,0-.73,5.15v0.23a3.39,3.39,0,0,1-.09,1,4.29,4.29,0,0,0-.13,1.15,5.61,5.61,0,0,0,1.09,3.05c0.08,0.12.24,0.33,0.44,0.6A14.39,14.39,0,0,1,45.91,35a10.44,10.44,0,0,1-.81,3.59c-0.24.18-1.51,0.84-2.54,1.37-1.37.71-2.9,1.51-4,2.14a18.18,18.18,0,0,1-2.94-1.6,14,14,0,0,1-1-3.94l0,0a3.91,3.91,0,0,0,1.85-3.05,6,6,0,0,1,.7-1.6,9.6,9.6,0,0,0,1.45-4.6,4.09,4.09,0,0,0-.37-1.91,1.74,1.74,0,0,1-.16-0.58C38.09,24.31,38,24,37.94,23.63a18,18,0,0,1-.33-4.1c0-1.68-1.13-3.44-3.08-5s-5.27-3.1-8.18-2.46a13,13,0,0,1-4.54.48,3.44,3.44,0,0,0-2.58.62,8.9,8.9,0,0,0-3.51,4.92,22.75,22.75,0,0,0-1,6.75v0.29a4.27,4.27,0,0,1-.11,1.2,5.81,5.81,0,0,0-.17,1.54A7.59,7.59,0,0,0,15.94,32a5,5,0,0,0,1,1.06l0,0a4.52,4.52,0,0,0,1.46,2.83l0.24,0.26a13.31,13.31,0,0,1-1.07,4.49,24.82,24.82,0,0,1-4.06,2,66.38,66.38,0,0,0-6.35,3.07,4.55,4.55,0,0,0-2.49,3.71l0,0.17c-0.12.77-.32,7.29-0.37,9.27a1.5,1.5,0,0,0,1.5,1.54h41.7A1.5,1.5,0,0,0,49,58.89c-0.06-2-.25-8.49-0.39-9.35a4.73,4.73,0,0,0-2.53-3.81c-1.89-1-3.65-1.84-5.26-2.57,0.83-.45,1.76-0.94,2.64-1.39a28.21,28.21,0,0,0,2.83-1.56c1-.8,1.67-4.28,1.59-5.34-0.07-.81-0.79-1.91-2.09-3.65l-0.37-.51a3.71,3.71,0,0,1-.75-1.94,2.34,2.34,0,0,1,.07-0.68,5.34,5.34,0,0,0,.15-1.42V26.43a15.55,15.55,0,0,1,.67-4.66,4.75,4.75,0,0,1,1.75-2.47A0.67,0.67,0,0,1,48,19.14a11.9,11.9,0,0,0,4.15-.41,6.08,6.08,0,0,1,4.48,1.48,3.57,3.57,0,0,1,1.54,2.17,15.51,15.51,0,0,0,.3,3.56c0,0.21.1,0.44,0.14,0.78a3.43,3.43,0,0,0,.29,1,1.13,1.13,0,0,1,.09.59,5.31,5.31,0,0,1-.75,2.34l-0.13.19c-1.53,2.26-2.17,3.51-2.21,4.31,0,0.61.44,4.16,1.59,5a24.33,24.33,0,0,0,3.91,2.15c1.19,0.57,2.53,1.22,4,2a1.44,1.44,0,0,1,.83,1.31l0,0.11c0,0.35.15,3.09,0.23,5.82H55.18a1,1,0,0,0,0,2H67.5a1,1,0,0,0,1-1C68.46,51,68.31,46,68.22,45.46ZM45.68,50.07c0.06,0.46.19,3.9,0.29,7.36H7.37c0.11-3.46.23-6.9,0.29-7.35l0-.23a1.6,1.6,0,0,1,1-1.5,64,64,0,0,1,6.07-2.93A24.15,24.15,0,0,0,19.53,43c1.48-1.13,2.25-5.93,2.15-7.14a3.2,3.2,0,0,0-1.09-2,1.59,1.59,0,0,1-.64-1.27,2.43,2.43,0,0,0-1.07-1.77,2.46,2.46,0,0,1-.44-0.43,4.78,4.78,0,0,1-.95-2.43,2.91,2.91,0,0,1,.09-0.84,7.13,7.13,0,0,0,.2-1.9v-0.3a20.14,20.14,0,0,1,.87-6,6,6,0,0,1,2.2-3.1,1.82,1.82,0,0,1,.36-0.19,1.79,1.79,0,0,1,.33,0A15.67,15.67,0,0,0,27,15c1.5-.33,3.83.44,5.67,1.89C34.08,18,34.59,19,34.61,19.59a20.31,20.31,0,0,0,.4,4.68c0.06,0.27.12,0.56,0.18,1a4.67,4.67,0,0,0,.39,1.38,1.31,1.31,0,0,1,.11.69,6.72,6.72,0,0,1-.95,2.94,8.38,8.38,0,0,0-1.18,2.87,1,1,0,0,1-.57,1,2.61,2.61,0,0,0-1.33,2.13c0,0.83.57,5.47,2.13,6.65h0a28.13,28.13,0,0,0,5.14,2.7c1.73,0.78,3.68,1.67,5.74,2.78A1.87,1.87,0,0,1,45.68,50.07Z" fill="gray"/></svg>