<svg xmlns="http://www.w3.org/2000/svg" viewBox="0 0 72 72"><defs><style>.cls-1{fill:none;}.cls-2{fill:gray;}</style></defs><title>m_101</title><g id="Rectangles"><rect class="cls-1" x="0.5" y="0.36" width="71.28" height="71.28"/><g id="Stop"><g id="circle"><path class="cls-2" d="M34,63.84A28.32,28.32,0,1,1,62.27,35.52,28.35,28.35,0,0,1,34,63.84ZM34,10.2A25.32,25.32,0,1,0,59.27,35.52,25.35,25.35,0,0,0,34,10.2Z"/></g></g><path class="cls-2" d="M31.7,44.19l-.11-1.4c-.32-2.92.65-6.1,3.35-9.34,2.43-2.86,3.78-5,3.78-7.4,0-2.75-1.73-4.59-5.13-4.64a9.6,9.6,0,0,0-5.45,1.67l-1.3-3.4a14.16,14.16,0,0,1,7.72-2.16c6.21,0,9,3.83,9,7.94,0,3.67-2.05,6.32-4.64,9.4-2.38,2.81-3.24,5.18-3.08,7.94l.05,1.4Zm-1.19,7.56a3.19,3.19,0,0,1,3.24-3.4,3.38,3.38,0,1,1-3.24,3.4Z"/></g></svg>