<svg xmlns="http://www.w3.org/2000/svg" viewBox="0 0 72 72"><title>m_brand</title><path d="M63,64H9.09a1.5,1.5,0,0,1-1.5-1.54c0.07-2.48.3-10.64,0.44-11.54l0-.21a5.06,5.06,0,0,1,2.8-4.16,54,54,0,0,1,9.75-3.88,27.31,27.31,0,0,0,5.53-2.15,15.13,15.13,0,0,0,1.31-5.57l-0.35-.37a5.08,5.08,0,0,1-1.66-3.27l-0.12-.1A5.64,5.64,0,0,1,24.19,30a8.68,8.68,0,0,1-1.66-4.66,6.51,6.51,0,0,1,.2-1.75,5.21,5.21,0,0,0,.14-1.47V21.75A26.52,26.52,0,0,1,24,13.88a10.16,10.16,0,0,1,4-5.62,3.8,3.8,0,0,1,2.86-.69A15.56,15.56,0,0,0,36.26,7c3.33-.74,7.14,1.06,9.39,2.84s3.49,3.76,3.52,5.65a21.38,21.38,0,0,0,.4,4.87c0.08,0.39.17,0.79,0.26,1.4a2.3,2.3,0,0,0,.21.76,4.52,4.52,0,0,1,.41,2.14,11,11,0,0,1-1.66,5.26,7.36,7.36,0,0,0-.87,2,4.32,4.32,0,0,1-2.07,3.41l-0.15.1a15.94,15.94,0,0,0,1.24,4.94,28.41,28.41,0,0,0,5.58,2.44,67.1,67.1,0,0,1,8.71,3.72,5.32,5.32,0,0,1,2.83,4.29c0.15,1,.38,9.15.45,11.63A1.5,1.5,0,0,1,63,64ZM10.64,61H61.48c-0.13-4.51-.29-9.08-0.36-9.63v-0.1a2.37,2.37,0,0,0-1.3-2.1,64.83,64.83,0,0,0-8.32-3.54,27.84,27.84,0,0,1-6.34-2.86c-1.74-1.25-2.47-6.68-2.43-7.61a2.84,2.84,0,0,1,1.45-2.3,1.45,1.45,0,0,0,.78-1.32,9.69,9.69,0,0,1,1.34-3.26,8.24,8.24,0,0,0,1.16-3.6,1.76,1.76,0,0,0-.15-0.92,5.21,5.21,0,0,1-.44-1.55c-0.07-.52-0.15-0.86-0.22-1.19a23.65,23.65,0,0,1-.46-5.44c0-.93-0.93-2.21-2.38-3.35-2.22-1.74-5-2.68-6.88-2.27a18.18,18.18,0,0,1-6.35.63,1,1,0,0,0-1,.24,7.19,7.19,0,0,0-2.7,3.8,23.88,23.88,0,0,0-1,7.15V22.1a8.17,8.17,0,0,1-.22,2.17,3.61,3.61,0,0,0-.11,1.05,5.71,5.71,0,0,0,1.16,3,3,3,0,0,0,.57.56,2.64,2.64,0,0,1,1.16,1.89,2.14,2.14,0,0,0,.82,1.67,3.48,3.48,0,0,1,1.21,2.23c0.12,1.45-.82,6.93-2.42,8.15-1.27,1-3.58,1.72-6.49,2.67a51.84,51.84,0,0,0-9.2,3.64,2.13,2.13,0,0,0-1.3,2l0,0.26C10.92,51.9,10.76,56.46,10.64,61ZM46.75,40.22h0Z" fill="gray"/></svg>