<svg xmlns="http://www.w3.org/2000/svg" viewBox="0 0 72 72"><title>m_brand</title><path d="M63.27,9.19h-54a1.5,1.5,0,0,0-1.5,1.5V53.22a1.5,1.5,0,0,0,1.5,1.5H34.7V61.1H25.57a1.5,1.5,0,0,0,0,3H46.7a1.5,1.5,0,1,0,0-3h-9V54.72H63.27a1.5,1.5,0,0,0,1.5-1.5V10.69A1.5,1.5,0,0,0,63.27,9.19ZM32.73,36.47A2.2,2.2,0,0,0,32,35.06a1.23,1.23,0,0,1-.48-1,1.68,1.68,0,0,0-.74-1.21,1.8,1.8,0,0,1-.33-0.33,3.42,3.42,0,0,1-.69-1.79,2.15,2.15,0,0,1,.07-0.62,5.05,5.05,0,0,0,.14-1.35V28.58a14.54,14.54,0,0,1,.63-4.35,4.38,4.38,0,0,1,1.61-2.28,0.59,0.59,0,0,1,.54-0.13,11.18,11.18,0,0,0,3.91-.38,5.64,5.64,0,0,1,4.14,1.37,3.28,3.28,0,0,1,1.42,2,14.53,14.53,0,0,0,.29,3.35c0,0.2.09,0.41,0.13,0.72a3.28,3.28,0,0,0,.28,1,1,1,0,0,1,.08.53,4.94,4.94,0,0,1-.69,2.16,5.93,5.93,0,0,0-.83,2,0.82,0.82,0,0,1-.44.75,1.81,1.81,0,0,0-.92,1.47c0,0.57.42,3.9,1.5,4.71a16.84,16.84,0,0,0,3.92,1.77,39.63,39.63,0,0,1,5.08,2.16,1.42,1.42,0,0,1,.76,1.28c0,0.31.12,2.59,0.2,5H20.64c0.07-2.45.15-4.72,0.19-5l0-.16a1.24,1.24,0,0,1,.75-1.13,31.67,31.67,0,0,1,5.61-2.22,15.17,15.17,0,0,0,4-1.64C32.26,40.74,32.8,37.33,32.73,36.47Zm29,15.25H53.52c-0.06-2.07-.16-4.94-0.23-5.39a3.33,3.33,0,0,0-1.78-2.68,41.14,41.14,0,0,0-5.34-2.28A17.69,17.69,0,0,1,42.8,39.9,9.93,9.93,0,0,1,42.06,37l0.05,0a2.75,2.75,0,0,0,1.3-2.14,4.37,4.37,0,0,1,.52-1.18,6.82,6.82,0,0,0,1-3.27A2.88,2.88,0,0,0,44.71,29a1.3,1.3,0,0,1-.12-0.44c-0.05-.37-0.11-0.62-0.16-0.86a13,13,0,0,1-.24-3A4.91,4.91,0,0,0,42,21.23c-1.39-1.09-3.75-2.21-5.81-1.75a9.4,9.4,0,0,1-3.28.34,2.42,2.42,0,0,0-1.8.44,6.31,6.31,0,0,0-2.49,3.49,16.27,16.27,0,0,0-.69,4.84v0.21a3.12,3.12,0,0,1-.08.88,4.08,4.08,0,0,0-.12,1.09,5.32,5.32,0,0,0,1,2.9,3.55,3.55,0,0,0,.71.75l0,0a3.18,3.18,0,0,0,1,2l0.19,0.17A9.93,9.93,0,0,1,30,39.95a15.74,15.74,0,0,1-3.4,1.33,33.18,33.18,0,0,0-6,2.38,3.17,3.17,0,0,0-1.75,2.61l0,0.13c-0.06.41-.16,3.27-0.22,5.33H10.76V12.19h51V51.72Z" fill="gray"/></svg>