<svg xmlns="http://www.w3.org/2000/svg" viewBox="0 0 72 72"><title>m_brand</title><path d="M63.13,9.36h-54a1.5,1.5,0,0,0-1.5,1.5V53.39a1.5,1.5,0,0,0,1.5,1.5H34.56v6.38H25.44a1.5,1.5,0,0,0,0,3H46.56a1.5,1.5,0,0,0,0-3h-9V54.89H63.13a1.5,1.5,0,0,0,1.5-1.5V10.86A1.5,1.5,0,0,0,63.13,9.36ZM60.34,20.79L57.81,22.6l-1.7-2.87L54.4,22.6l-2.53-1.81,2.58-2.56-3.2-.72,1.19-2.81,2.66,1.55-0.65-3.18h3.31l-0.65,3.18,2.66-1.55L61,17.51l-3.2.72ZM32.59,36.64a2.2,2.2,0,0,0-.76-1.42,1.23,1.23,0,0,1-.48-1A1.68,1.68,0,0,0,30.61,33a1.82,1.82,0,0,1-.33-0.33,3.42,3.42,0,0,1-.7-1.79,2.14,2.14,0,0,1,.07-0.62A5,5,0,0,0,29.79,29V28.74a14.53,14.53,0,0,1,.63-4.35A4.37,4.37,0,0,1,32,22.11,0.59,0.59,0,0,1,32.58,22a11.18,11.18,0,0,0,3.91-.38A5.64,5.64,0,0,1,40.62,23,3.28,3.28,0,0,1,42,25a14.48,14.48,0,0,0,.29,3.35c0,0.2.09,0.41,0.13,0.72a3.29,3.29,0,0,0,.28,1,1,1,0,0,1,.08.53,4.92,4.92,0,0,1-.7,2.16,5.91,5.91,0,0,0-.83,2,0.82,0.82,0,0,1-.44.75,1.81,1.81,0,0,0-.92,1.47c0,0.57.42,3.9,1.5,4.71a16.84,16.84,0,0,0,3.92,1.77,39.62,39.62,0,0,1,5.08,2.16,1.42,1.42,0,0,1,.76,1.28c0,0.31.12,2.59,0.2,5H20.5c0.07-2.45.15-4.72,0.19-5l0-.16a1.23,1.23,0,0,1,.75-1.13,31.66,31.66,0,0,1,5.61-2.22,15.17,15.17,0,0,0,4-1.64C32.12,40.9,32.66,37.5,32.59,36.64ZM53.39,51.89c-0.06-2.07-.16-4.94-0.23-5.39a3.33,3.33,0,0,0-1.78-2.68A41.14,41.14,0,0,0,46,41.54a17.66,17.66,0,0,1-3.38-1.47,9.93,9.93,0,0,1-.74-2.92l0.05,0A2.75,2.75,0,0,0,43.28,35a4.37,4.37,0,0,1,.52-1.18,6.8,6.8,0,0,0,1-3.27,2.88,2.88,0,0,0-.25-1.34,1.31,1.31,0,0,1-.12-0.44c-0.05-.37-0.11-0.62-0.16-0.86a13,13,0,0,1-.24-3,4.92,4.92,0,0,0-2.19-3.52c-1.39-1.09-3.75-2.21-5.81-1.75a9.4,9.4,0,0,1-3.29.34,2.42,2.42,0,0,0-1.8.44,6.31,6.31,0,0,0-2.48,3.49,16.27,16.27,0,0,0-.69,4.84V29a3.1,3.1,0,0,1-.08.88,4,4,0,0,0-.12,1.09,5.38,5.38,0,0,0,1,2.9,3.54,3.54,0,0,0,.71.75l0,0a3.17,3.17,0,0,0,1,2l0.19,0.17a9.93,9.93,0,0,1-.73,3.31,15.76,15.76,0,0,1-3.4,1.33,33.14,33.14,0,0,0-6,2.38,3.17,3.17,0,0,0-1.75,2.61l0,0.12c-0.06.41-.16,3.27-0.22,5.33H10.63V12.36H38.33L61.63,35.65V51.89H53.39Z" fill="gray" fill-rule="evenodd"/></svg>