<svg xmlns="http://www.w3.org/2000/svg" viewBox="0 0 72 72"><title>m_brand</title><path d="M51.55,24.61h0a1.5,1.5,0,0,1-1.06-.44l-3.79-3.79a1.5,1.5,0,0,1,2.12-2.12L51.55,21l6.89-6.89a1.5,1.5,0,0,1,2.12,2.12l-8,8A1.5,1.5,0,0,1,51.55,24.61Z" fill="gray"/><path d="M51.55,38.17h0a1.5,1.5,0,0,1-1.06-.44l-3.79-3.79a1.5,1.5,0,0,1,2.12-2.12l2.73,2.73,6.89-6.89a1.5,1.5,0,0,1,2.12,2.12l-8,7.95A1.5,1.5,0,0,1,51.55,38.17Z" fill="gray"/><path d="M65.11,7.14H61.56v2h3.55a0.74,0.74,0,0,1,.74.74v34a0.74,0.74,0,0,1-.74.74h-23a0.74,0.74,0,0,1-.74-0.74v-34a0.74,0.74,0,0,1,.74-0.74h3.58v-2H42.14a2.72,2.72,0,0,0-1.61.53,1.49,1.49,0,0,0-1-.37h-3a1.5,1.5,0,0,0-.33,0,15.56,15.56,0,0,1-5.41.57A3.8,3.8,0,0,0,28,8.6a10.17,10.17,0,0,0-4,5.62,26.54,26.54,0,0,0-1.12,7.87v0.34a5.21,5.21,0,0,1-.14,1.47,6.54,6.54,0,0,0-.2,1.75,8.67,8.67,0,0,0,1.66,4.66,5.66,5.66,0,0,0,1.13,1.19l0.12,0.1a5.07,5.07,0,0,0,1.66,3.27l0.35,0.37a15.13,15.13,0,0,1-1.31,5.57A27.34,27.34,0,0,1,20.59,43a54,54,0,0,0-9.75,3.88A5.05,5.05,0,0,0,8,51l0,0.21c-0.14.9-.37,9.06-0.44,11.54a1.5,1.5,0,0,0,1.5,1.54H63a1.5,1.5,0,0,0,1.5-1.5V50.88a1.5,1.5,0,0,0-3,0V61.31H10.62c0.13-4.51.29-9.07,0.36-9.62l0-.26a2.13,2.13,0,0,1,1.3-2,51.84,51.84,0,0,1,9.2-3.64c2.91-.95,5.22-1.69,6.49-2.67C29.6,42,30.56,36.64,30.43,35a3.49,3.49,0,0,0-1.21-2.23,2.14,2.14,0,0,1-.82-1.67,2.64,2.64,0,0,0-1.16-1.89,3.07,3.07,0,0,1-.57-0.56,5.71,5.71,0,0,1-1.16-3,3.63,3.63,0,0,1,.11-1.05,8.17,8.17,0,0,0,.22-2.17V22.09a23.88,23.88,0,0,1,1-7.15,7.2,7.2,0,0,1,2.69-3.8,1,1,0,0,1,1-.24,17.93,17.93,0,0,0,6.19-.59H39.4V43.85a2.74,2.74,0,0,0,2.74,2.74h23a2.74,2.74,0,0,0,2.74-2.74v-34A2.74,2.74,0,0,0,65.11,7.14Z" fill="gray"/><path d="M58.14,6.79H55.93a2.31,2.31,0,0,0-4.47,0H49.24a0.63,0.63,0,0,0-.63.63V8.87a0.63,0.63,0,0,0,.63.63h8.89a0.63,0.63,0,0,0,.63-0.63V7.42A0.63,0.63,0,0,0,58.14,6.79Z" fill="gray"/></svg>