<svg xmlns="http://www.w3.org/2000/svg" viewBox="0 0 72 72"><title>1-icons_special</title><path d="M62.79,63.52H51v-3H61.25C61.12,56,61,51.44,60.89,50.89l0-.1a2.37,2.37,0,0,0-1.3-2.1,64.84,64.84,0,0,0-8.32-3.54,27.85,27.85,0,0,1-6.34-2.86c-1.74-1.25-2.47-6.68-2.43-7.61a2.84,2.84,0,0,1,1.45-2.3,1.45,1.45,0,0,0,.78-1.32,9.68,9.68,0,0,1,1.34-3.26,8.22,8.22,0,0,0,1.16-3.6,1.76,1.76,0,0,0-.15-0.92,5.23,5.23,0,0,1-.44-1.55c-0.07-.52-0.15-0.86-0.22-1.19a23.67,23.67,0,0,1-.47-5.44c0-.93-0.93-2.21-2.38-3.35-2.22-1.74-5-2.68-6.88-2.27a18.18,18.18,0,0,1-6.35.63,1,1,0,0,0-1,.24,7.2,7.2,0,0,0-2.7,3.8,23.86,23.86,0,0,0-1,7.15v0.35a8.16,8.16,0,0,1-.22,2.17,3.61,3.61,0,0,0-.11,1.05,5.72,5.72,0,0,0,1.16,3,3.09,3.09,0,0,0,.57.56,2.64,2.64,0,0,1,1.16,1.89A2.14,2.14,0,0,0,29,32a3.49,3.49,0,0,1,1.21,2.23c0.12,1.45-.82,6.93-2.42,8.16-1.27,1-3.58,1.72-6.49,2.67a51.86,51.86,0,0,0-9.2,3.64,2.13,2.13,0,0,0-1.3,2l0,0.26c-0.07.55-.23,5.11-0.36,9.62H20.71v3H8.86A1.5,1.5,0,0,1,7.36,62c0.07-2.48.3-10.64,0.44-11.54l0-.21a5.06,5.06,0,0,1,2.8-4.16,54.06,54.06,0,0,1,9.75-3.88A27.31,27.31,0,0,0,25.91,40a15.13,15.13,0,0,0,1.31-5.57l-0.35-.37a5.08,5.08,0,0,1-1.66-3.27l-0.12-.1A5.64,5.64,0,0,1,24,29.53a8.68,8.68,0,0,1-1.66-4.66,6.51,6.51,0,0,1,.2-1.75,5.21,5.21,0,0,0,.14-1.47V21.3a26.5,26.5,0,0,1,1.12-7.87,10.17,10.17,0,0,1,4-5.62,3.8,3.8,0,0,1,2.86-.69A15.57,15.57,0,0,0,36,6.55c3.33-.74,7.14,1.06,9.39,2.84S48.9,13.15,48.94,15a21.39,21.39,0,0,0,.4,4.87c0.08,0.39.17,0.79,0.26,1.4a2.31,2.31,0,0,0,.21.76,4.53,4.53,0,0,1,.41,2.14,11,11,0,0,1-1.66,5.26,7.37,7.37,0,0,0-.87,2,4.32,4.32,0,0,1-2.07,3.41l-0.15.1a15.94,15.94,0,0,0,1.24,4.94,28.41,28.41,0,0,0,5.58,2.44A67.11,67.11,0,0,1,61,46.06a5.32,5.32,0,0,1,2.83,4.29c0.15,1,.38,9.15.45,11.63A1.5,1.5,0,0,1,62.79,63.52ZM46.52,39.77h0Z" fill="gray"/><path d="M32.89,66.44A1.64,1.64,0,0,1,31.72,66l-6.44-6.44a1.65,1.65,0,0,1,2.33-2.33l5.27,5.27L45.22,50.13a1.65,1.65,0,0,1,2.33,2.33L34.06,66A1.64,1.64,0,0,1,32.89,66.44Z" fill="gray"/><rect x="0.36" y="0.36" width="71.28" height="71.28" fill="none"/></svg>