<svg xmlns="http://www.w3.org/2000/svg" viewBox="0 0 72 72"><title>m</title><path d="M63.22,27.71c-0.3-.23-0.74-0.56-0.94-0.76C60.61,14.87,49.69,6.1,36.17,6H35.9C22.39,6.1,11.47,14.86,9.79,26.94c-0.21.2-.65,0.53-1,0.76-1.36,1-3.06,2.26-3.06,4.12V43.63a1.5,1.5,0,0,0,.15.65C6.84,46.19,9.75,50.88,17,54a2,2,0,0,0,.25.76,21.54,21.54,0,0,0,39.39-4.37h0.22c3.67-.48,6.91-2.75,9.15-6.45a1.5,1.5,0,0,0,.22-0.78V31.82C66.19,30,64.54,28.72,63.22,27.71Zm0,15a9.75,9.75,0,0,1-5.91,4.52,21.52,21.52,0,0,0,.25-3.08V33.57a21.55,21.55,0,1,0-43.09,0V43a2,2,0,0,0,4,0V33.57a17.55,17.55,0,1,1,35.09,0V44.15A17.54,17.54,0,0,1,23,55.89,48.11,48.11,0,0,0,33.4,56.95a1.5,1.5,0,0,0,0-3C16,53.95,10.27,46.14,8.77,43.28V31.83a6.47,6.47,0,0,1,1.84-1.72c1.07-.79,2-1.47,2.12-2.53C14.1,16.85,23.89,9,36,9S58,16.85,59.34,27.59c0.13,1,1,1.73,2.07,2.51a6.28,6.28,0,0,1,1.79,1.72V42.71Z" fill="gray"/></svg>