<svg xmlns="http://www.w3.org/2000/svg" viewBox="0 0 72 72"><title>1-icons_special</title><ellipse cx="38.61" cy="38.82" rx="2.71" ry="2.16" transform="translate(-5.88 6.91) rotate(-9.51)" fill="gray"/><path d="M32.22,42.49a4.4,4.4,0,0,0-2.85.43c-1.95,1-2.86,3.1-2,4.72a3.23,3.23,0,0,0,3,1.65,4.54,4.54,0,0,0,2-.5,4.4,4.4,0,0,0,2-2.05A2.93,2.93,0,0,0,32.22,42.49Zm0.88,3.66a3,3,0,0,1-1.39,1.38c-1.26.64-2.66,0.4-3.13-.53s0.17-2.2,1.42-2.84a3.16,3.16,0,0,1,1.42-.35,2.6,2.6,0,0,1,.52.05A1.54,1.54,0,0,1,33.1,46.15Z" fill="gray"/><path d="M63.54,35.49C58.47,27.56,47.71,27,38.82,30.42a2.21,2.21,0,0,1-.19-0.86l0.12-.08a3.5,3.5,0,0,0,1.67-2.76,5.93,5.93,0,0,1,.7-1.61,8.9,8.9,0,0,0,1.34-4.26,3.67,3.67,0,0,0-.33-1.73A1.87,1.87,0,0,1,42,18.5c-0.07-.49-0.14-0.82-0.21-1.13a17.32,17.32,0,0,1-.32-3.94c0-1.53-1-3.16-2.85-4.58S33.68,6,31,6.55A12.58,12.58,0,0,1,26.6,7a3.08,3.08,0,0,0-2.32.56A8.23,8.23,0,0,0,21,12.13a21.47,21.47,0,0,0-.91,6.38v0.28A4.21,4.21,0,0,1,20,20a5.27,5.27,0,0,0-.16,1.42,7,7,0,0,0,1.35,3.78,4.56,4.56,0,0,0,.92,1l0.1,0.08a4.11,4.11,0,0,0,1.34,2.65l0.29,0.3a12.26,12.26,0,0,1-1.06,4.51,22.13,22.13,0,0,1-4.48,1.74,43.8,43.8,0,0,0-7.9,3.15,4.09,4.09,0,0,0-2.27,3.37l0,0.17c-0.11.73-.3,7.34-0.35,9.34A1.21,1.21,0,0,0,9,52.7H25.34a8.68,8.68,0,0,0,8.87.31l0.06,0a12.31,12.31,0,0,1,3.49-1.62,1,1,0,0,1,.75.2c0.56,0.6.39,2.8,0.27,4.41-0.21,2.81-.45,6,1.75,7.54a4.51,4.51,0,0,0,2.66.75,16,16,0,0,0,6.21-1.72c8-3.59,13.65-9.27,15.54-15.6A13.68,13.68,0,0,0,63.54,35.49Zm-53,7,0-.21a1.74,1.74,0,0,1,1.05-1.58,42,42,0,0,1,7.45-3,20.05,20.05,0,0,0,5.26-2.16c1.3-1,2.06-5.43,2-6.61a2.82,2.82,0,0,0-1-1.81,1.73,1.73,0,0,1-.67-1.35,2.14,2.14,0,0,0-.94-1.53,2.47,2.47,0,0,1-.46-0.45,4.63,4.63,0,0,1-.94-2.43,2.93,2.93,0,0,1,.09-0.85,6.6,6.6,0,0,0,.18-1.76V18.5a19.35,19.35,0,0,1,.84-5.79,5.83,5.83,0,0,1,2.18-3.08,0.85,0.85,0,0,1,.79-0.19,14.73,14.73,0,0,0,5.14-.51c1.48-.33,3.78.42,5.57,1.84A4.38,4.38,0,0,1,39,13.47a19.18,19.18,0,0,0,.38,4.41c0.06,0.27.12,0.54,0.18,1a4.23,4.23,0,0,0,.36,1.26,1.42,1.42,0,0,1,.12.75,6.66,6.66,0,0,1-.94,2.92A7.84,7.84,0,0,0,38,26.4a1.18,1.18,0,0,1-.63,1.07,2.3,2.3,0,0,0-1.18,1.87,4.57,4.57,0,0,0,.38,2h0c-5.29,2.56-11.75,7.46-13.4,11.21a9.3,9.3,0,0,0,0,7.67h-13C10.33,46.61,10.46,42.92,10.52,42.47ZM62,46.07c-1.63,5.48-6.69,10.47-13.88,13.7-4.34,2-5.61,1.45-5.9,1.25-0.79-.56-0.61-3-0.47-4.84,0.19-2.52.38-5.12-1.07-6.69a3.86,3.86,0,0,0-3-1.17c-1.2,0-2.72.73-5,2-2.64,1.32-5.58.79-6.83-1.26a6.17,6.17,0,0,1,0-5.25c1-2.36,6.2-6.92,11.95-9.71C48.51,29,57.55,31.73,61,37.12A10.56,10.56,0,0,1,62,46.07Z" fill="gray"/><ellipse cx="46.76" cy="35.91" rx="2.71" ry="2.16" transform="translate(-5.29 8.22) rotate(-9.51)" fill="gray"/><ellipse cx="55" cy="37.9" rx="2.71" ry="2.16" transform="translate(-5.51 9.61) rotate(-9.51)" fill="gray"/><ellipse cx="57.18" cy="44.85" rx="2.71" ry="2.16" transform="translate(-6.62 10.06) rotate(-9.51)" fill="gray"/><ellipse cx="53.16" cy="51.15" rx="2.71" ry="2.16" transform="translate(-7.72 9.48) rotate(-9.51)" fill="gray"/><rect x="0.36" y="0.36" width="71.28" height="71.28" fill="none"/></svg>