<svg xmlns="http://www.w3.org/2000/svg" viewBox="0 0 72 72"><title>1-icons_special</title><path d="M62.92,63.68H8.85a1,1,0,0,1-1-1V9.26a1,1,0,0,1,1-1H62.92a1,1,0,0,1,1,1V62.68A1,1,0,0,1,62.92,63.68Zm-53.06-2H61.92V10.26H9.85V61.68Z" fill="gray"/><ellipse cx="29.78" cy="30.4" rx="2.71" ry="2.16" transform="matrix(0.99, -0.17, 0.17, 0.99, -4.61, 5.34)" fill="gray"/><path d="M21.46,40.87a3.22,3.22,0,0,1-3-1.65c-0.82-1.62.1-3.74,2-4.72a4.39,4.39,0,0,1,2.85-.43,2.93,2.93,0,0,1,2.15,4.24,4.4,4.4,0,0,1-2,2.05A4.54,4.54,0,0,1,21.46,40.87Zm1.12-5.48a3.16,3.16,0,0,0-1.42.35c-1.26.64-1.9,1.91-1.42,2.84s1.88,1.17,3.13.53a3,3,0,0,0,1.39-1.38,1.66,1.66,0,0,0,0-1.46h0a1.66,1.66,0,0,0-1.19-.83A2.6,2.6,0,0,0,22.58,35.4Z" fill="gray"/><path d="M34.37,55.83a4.5,4.5,0,0,1-2.66-.75c-2.2-1.54-2-4.72-1.75-7.53,0.12-1.61.28-3.81-.28-4.42a1,1,0,0,0-.75-0.21,12.31,12.31,0,0,0-3.49,1.62l-0.06,0c-4.06,2.06-8.7,1-10.79-2.35a9.16,9.16,0,0,1-.22-8C16,30.44,22.46,25.54,27.75,23c9.23-4.47,21.45-4.5,26.94,4.1A13.67,13.67,0,0,1,56.1,38.52c-1.89,6.32-7.55,12-15.53,15.59A16,16,0,0,1,34.37,55.83ZM28.93,39.92a3.85,3.85,0,0,1,3,1.17c1.45,1.56,1.26,4.17,1.07,6.68-0.14,1.91-.32,4.29.48,4.85,0.29,0.2,1.56.7,5.91-1.25,7.19-3.23,12.25-8.23,13.88-13.71a10.57,10.57,0,0,0-1.06-9c-3.45-5.39-12.49-8.16-23.11-3-5.2,2.52-10.79,7.06-12,9.72a6.19,6.19,0,0,0,0,5.26c1.26,2.05,4.2,2.59,6.85,1.26C26.21,40.65,27.74,39.92,28.93,39.92Z" fill="gray"/><ellipse cx="37.93" cy="27.5" rx="2.71" ry="2.16" transform="translate(-4.02 6.64) rotate(-9.51)" fill="gray"/><ellipse cx="46.16" cy="29.49" rx="2.71" ry="2.16" transform="matrix(0.99, -0.17, 0.17, 0.99, -4.24, 8.03)" fill="gray"/><ellipse cx="48.35" cy="36.43" rx="2.71" ry="2.16" transform="matrix(0.99, -0.17, 0.17, 0.99, -5.35, 8.49)" fill="gray"/><ellipse cx="44.32" cy="42.73" rx="2.71" ry="2.16" transform="translate(-6.45 7.91) rotate(-9.51)" fill="gray"/><path d="M62.36,18.07H9a1,1,0,0,1,0-2H62.36A1,1,0,0,1,62.36,18.07Z" fill="gray"/><rect x="0.36" y="0.36" width="71.28" height="71.28" fill="none"/></svg>