<svg xmlns="http://www.w3.org/2000/svg" viewBox="0 0 72 72"><title>1-icons_special</title><ellipse cx="28.09" cy="25.57" rx="3.87" ry="3.08" transform="translate(-3.84 4.99) rotate(-9.51)" fill="gray"/><path d="M16.19,40.54a5.65,5.65,0,0,1-1.14-.11A4.32,4.32,0,0,1,12,38.18c-1.17-2.31.14-5.34,2.91-6.75s6-.67,7.17,1.64h0a4.32,4.32,0,0,1,0,3.82,6.28,6.28,0,0,1-2.9,2.93A6.53,6.53,0,0,1,16.19,40.54Zm1.64-7.83a4.56,4.56,0,0,0-2,.51c-1.79.91-2.71,2.73-2,4.06a2.37,2.37,0,0,0,1.71,1.19,4.54,4.54,0,0,0,4.76-2.41,2.37,2.37,0,0,0,0-2.08A2.6,2.6,0,0,0,17.83,32.7Z" fill="gray"/><path d="M34.65,61.75a6.29,6.29,0,0,1-3.71-1c-3.07-2.15-2.73-6.65-2.44-10.63,0.18-2.45.41-5.51-.43-6.42a1.43,1.43,0,0,0-1.18-.34c-0.63,0-2.34.79-5.06,2.34l-0.09,0C16,48.61,9.45,47.19,6.5,42.39A12.94,12.94,0,0,1,6.19,31C8.53,25.71,17.72,18.75,25.26,15.1,33.08,11.31,41,10,48.12,11.23c6.73,1.19,12.21,4.63,15.44,9.68a19.38,19.38,0,0,1,2,16.22c-2.68,9-10.74,17.07-22.11,22.18C39.81,60.94,36.92,61.75,34.65,61.75ZM26.88,39.32A5.36,5.36,0,0,1,31,40.94c2,2.19,1.76,5.87,1.49,9.44-0.21,2.77-.46,6.21.75,7.05,0.55,0.38,2.47,1,8.58-1.77C52.11,51,59.37,43.85,61.72,36a15.24,15.24,0,0,0-1.53-12.92C53.64,12.81,38.54,13.11,27,18.7c-7.59,3.68-15.44,10.06-17.15,14a9,9,0,0,0,.05,7.65c1.84,3,6.12,3.79,10,1.86C23,40.36,25.2,39.32,26.88,39.32Z" fill="gray"/><ellipse cx="39.73" cy="21.43" rx="3.87" ry="3.08" transform="translate(-2.99 6.86) rotate(-9.51)" fill="gray"/><ellipse cx="51.5" cy="24.27" rx="3.87" ry="3.08" transform="translate(-3.3 8.84) rotate(-9.51)" fill="gray"/><ellipse cx="54.62" cy="34.19" rx="3.87" ry="3.08" transform="translate(-4.9 9.49) rotate(-9.51)" fill="gray"/><ellipse cx="48.87" cy="43.19" rx="3.87" ry="3.08" transform="translate(-6.46 8.67) rotate(-9.51)" fill="gray"/><rect x="0.36" y="0.36" width="71.28" height="71.28" fill="none"/></svg>