<svg xmlns="http://www.w3.org/2000/svg" viewBox="0 0 72 72"><title>1-icons_special</title><polygon points="63.1 64.3 7 64.3 7 8.3 11 8.3 11 60.3 63.1 60.3 63.1 64.3" fill="gray"/><path d="M44.67,38.51A2,2,0,0,1,43.34,38L32.4,28.28,18,36.26A2,2,0,0,1,16,32.76L31.7,24.1a2,2,0,0,1,2.3.26l10.49,9.32,16-18.47a2,2,0,0,1,3,2.62l-17.33,20a2,2,0,0,1-1.38.69H44.67Z" fill="gray"/><path d="M17.77,54.89a1.25,1.25,0,0,1-1.25-1.25V44A1.25,1.25,0,0,1,19,44v9.67A1.25,1.25,0,0,1,17.77,54.89Z" fill="gray"/><path d="M27,54.89a1.25,1.25,0,0,1-1.25-1.25V37.47a1.25,1.25,0,0,1,2.5,0V53.64A1.25,1.25,0,0,1,27,54.89Z" fill="gray"/><path d="M36,54.89a1.25,1.25,0,0,1-1.25-1.25V42.8a1.25,1.25,0,0,1,2.5,0V53.64A1.25,1.25,0,0,1,36,54.89Z" fill="gray"/><path d="M45.16,54.89a1.25,1.25,0,0,1-1.25-1.25V49a1.25,1.25,0,0,1,2.5,0v4.67A1.25,1.25,0,0,1,45.16,54.89Z" fill="gray"/><path d="M54,54.89a1.25,1.25,0,0,1-1.25-1.25v-18a1.25,1.25,0,0,1,2.5,0v18A1.25,1.25,0,0,1,54,54.89Z" fill="gray"/><rect x="0.36" y="0.36" width="71.28" height="71.28" fill="none"/></svg>