<svg xmlns="http://www.w3.org/2000/svg" viewBox="0 0 72 72"><title>1-icons_special</title><path d="M35.75,59.36A4.34,4.34,0,1,1,40.11,55,4.36,4.36,0,0,1,35.75,59.36Zm0-7.07A2.73,2.73,0,1,0,38.49,55,2.74,2.74,0,0,0,35.75,52.29Z" fill="gray"/><path d="M44.09,56.52a1.52,1.52,0,0,0-1.14,1,7.68,7.68,0,0,1-.34.81,1.51,1.51,0,0,0,.1,1.5l1.44,2.09-1.47,1.46-2.1-1.43a1.53,1.53,0,0,0-1.51-.1,7.73,7.73,0,0,1-.82.34,1.52,1.52,0,0,0-1,1.13l-0.47,2.52H34.71l-0.47-2.52a1.52,1.52,0,0,0-1-1.13,7.78,7.78,0,0,1-.82-0.34,1.53,1.53,0,0,0-1.51.1l-2.09,1.42-1.47-1.46,1.43-2.08a1.51,1.51,0,0,0,.1-1.5,7.64,7.64,0,0,1-.34-0.82,1.52,1.52,0,0,0-1.14-1l-2.73-.47V54l2.73-.46a1.52,1.52,0,0,0,1.14-1,7.53,7.53,0,0,1,.34-0.82,1.51,1.51,0,0,0-.1-1.5L27.33,48.1l1.47-1.46,2.13,1.46a1.53,1.53,0,0,0,1.51.1,7.72,7.72,0,0,1,.82-0.34,1.52,1.52,0,0,0,1-1.13l0.47-2.67h2.07l0.47,2.67a1.52,1.52,0,0,0,1,1.13,7.61,7.61,0,0,1,.82.34,1.53,1.53,0,0,0,1.51-.1l2.14-1.47,1.47,1.46-1.48,2.13a1.51,1.51,0,0,0-.1,1.5,7.63,7.63,0,0,1,.34.82,1.52,1.52,0,0,0,1.14,1L46.61,54v2.06Zm3.3-4.17-2.48-.49a9.7,9.7,0,0,0-.43-1l1.4-2.09a1.6,1.6,0,0,0-.2-2l-1.56-1.55a1.62,1.62,0,0,0-2-.2L40,46.34a9.81,9.81,0,0,0-1-.43l-0.5-2.46a1.61,1.61,0,0,0-1.59-1.29h-2.2a1.62,1.62,0,0,0-1.59,1.29l-0.5,2.46a9.81,9.81,0,0,0-1,.43l-2.1-1.4a1.62,1.62,0,0,0-2,.2L25.82,46.7a1.6,1.6,0,0,0-.2,2L27,50.82a9.61,9.61,0,0,0-.43,1l-2.48.49a1.61,1.61,0,0,0-1.3,1.58v2.19a1.61,1.61,0,0,0,1.3,1.58l2.48,0.49a9.69,9.69,0,0,0,.43,1l-1.4,2.09a1.6,1.6,0,0,0,.2,2l1.56,1.55a1.62,1.62,0,0,0,2,.2l2.11-1.4a9.57,9.57,0,0,0,1,.43l0.5,2.46a1.62,1.62,0,0,0,1.59,1.29h2.2a1.62,1.62,0,0,0,1.59-1.29l0.5-2.46a9.81,9.81,0,0,0,1-.43l2.11,1.4a1.62,1.62,0,0,0,2-.2l1.56-1.55a1.6,1.6,0,0,0,.2-2l-1.4-2.09a9.53,9.53,0,0,0,.43-1l2.48-.49a1.61,1.61,0,0,0,1.3-1.58V53.93A1.61,1.61,0,0,0,47.38,52.35Z" fill="gray" fill-rule="evenodd"/><path d="M62.85,63.52H51v-3H61.3C61.17,56,61,51.44,60.94,50.89l0-.1a2.37,2.37,0,0,0-1.3-2.1,64.79,64.79,0,0,0-8.32-3.54A27.86,27.86,0,0,1,45,42.29c-1.74-1.25-2.47-6.68-2.43-7.61A2.84,2.84,0,0,1,44,32.38a1.45,1.45,0,0,0,.78-1.32,9.68,9.68,0,0,1,1.34-3.26,8.22,8.22,0,0,0,1.16-3.6,1.76,1.76,0,0,0-.15-0.92,5.23,5.23,0,0,1-.44-1.55c-0.07-.52-0.15-0.86-0.22-1.19A23.67,23.67,0,0,1,46,15.09c0-.92-1-2.23-2.38-3.35-2.22-1.74-5-2.68-6.88-2.27a18.18,18.18,0,0,1-6.35.63,1,1,0,0,0-1,.24,7.2,7.2,0,0,0-2.7,3.8,23.86,23.86,0,0,0-1,7.15v0.35a8.14,8.14,0,0,1-.22,2.17,3.63,3.63,0,0,0-.11,1.05,5.72,5.72,0,0,0,1.16,3,3.09,3.09,0,0,0,.57.56,2.64,2.64,0,0,1,1.16,1.89A2.14,2.14,0,0,0,29.06,32a3.48,3.48,0,0,1,1.21,2.23c0.12,1.45-.82,6.93-2.42,8.15-1.27,1-3.58,1.72-6.49,2.67a51.86,51.86,0,0,0-9.2,3.64,2.13,2.13,0,0,0-1.3,2l0,0.26c-0.07.55-.23,5.11-0.36,9.62H20.77v3H8.92A1.5,1.5,0,0,1,7.42,62c0.07-2.48.3-10.64,0.44-11.54l0-.21a5.06,5.06,0,0,1,2.8-4.16,54.06,54.06,0,0,1,9.75-3.88A27.31,27.31,0,0,0,26,40a15.13,15.13,0,0,0,1.31-5.57s-0.22-.23-0.35-0.37a5.08,5.08,0,0,1-1.66-3.27l-0.12-.1A5.64,5.64,0,0,1,24,29.53a8.68,8.68,0,0,1-1.66-4.66,6.51,6.51,0,0,1,.2-1.75,5.2,5.2,0,0,0,.14-1.47V21.3a26.51,26.51,0,0,1,1.12-7.87,10.17,10.17,0,0,1,4-5.62,3.8,3.8,0,0,1,2.86-.69,15.57,15.57,0,0,0,5.41-.57c3.32-.74,7.13,1.06,9.39,2.84S49,13.15,49,15a21.39,21.39,0,0,0,.4,4.87c0.08,0.39.17,0.79,0.26,1.4a2.31,2.31,0,0,0,.21.76,4.53,4.53,0,0,1,.41,2.14,11,11,0,0,1-1.66,5.26,7.37,7.37,0,0,0-.87,2,4.32,4.32,0,0,1-2.07,3.41l-0.15.1a15.94,15.94,0,0,0,1.24,4.94,28.4,28.4,0,0,0,5.58,2.44,67.13,67.13,0,0,1,8.71,3.72,5.32,5.32,0,0,1,2.83,4.29c0.15,1,.38,9.15.45,11.63A1.5,1.5,0,0,1,62.85,63.52ZM46.57,39.77h0Z" fill="gray"/><rect x="0.36" y="0.36" width="71.28" height="71.28" fill="none"/></svg>