<svg xmlns="http://www.w3.org/2000/svg" viewBox="0 0 72 72"><title>1-icons_special</title><path d="M53.59,20.26a11.51,11.51,0,0,0-1.63.11A18.26,18.26,0,0,0,18,26.06a10.71,10.71,0,0,0-2.43-.28,10.84,10.84,0,0,0-.21,21.68H33.91V62h4V30.29l9.46,9.46,2.83-2.83L35.91,22.63,21.59,36.95l2.83,2.83,9.49-9.49V43.46H15.43a6.84,6.84,0,0,1,.17-13.68,6.57,6.57,0,0,1,2.17.36,3.08,3.08,0,0,0,4.09-2.56,14.26,14.26,0,0,1,26.86-4.8,3.08,3.08,0,0,0,3.41,1.62,7,7,0,0,1,1.47-.14c4.92,0,8.91,4.31,8.91,9.61s-3.74,9.39-8.44,9.58l-6.88,0v4l7,0c6.93-.27,12.36-6.23,12.36-13.58C66.5,26.37,60.71,20.26,53.59,20.26Z" fill="gray"/><rect x="0.5" y="0.36" width="71.28" height="71.28" fill="none"/></svg>