<svg xmlns="http://www.w3.org/2000/svg" viewBox="0 0 72 72"><title>1-icons_special</title><path d="M62.88,63.52H51.07v-3H61.34C61.21,56,61,51.44,61,50.89v-0.1a2.37,2.37,0,0,0-1.3-2.1,64.79,64.79,0,0,0-8.32-3.54A27.86,27.86,0,0,1,45,42.29c-1.74-1.25-2.47-6.68-2.43-7.61A2.84,2.84,0,0,1,44,32.38a1.45,1.45,0,0,0,.78-1.32,9.68,9.68,0,0,1,1.34-3.26,8.22,8.22,0,0,0,1.16-3.6,1.76,1.76,0,0,0-.15-0.92,5.23,5.23,0,0,1-.44-1.55c-0.07-.52-0.15-0.86-0.22-1.19A23.67,23.67,0,0,1,46,15.09c0-.92-1-2.23-2.38-3.35C41.43,10,38.6,9.06,36.77,9.48a18.18,18.18,0,0,1-6.35.63,1,1,0,0,0-1,.24,7.2,7.2,0,0,0-2.7,3.8,23.87,23.87,0,0,0-1,7.15v0.35a8.14,8.14,0,0,1-.22,2.17,3.63,3.63,0,0,0-.11,1.05,5.71,5.71,0,0,0,1.16,3,3.09,3.09,0,0,0,.57.56,2.64,2.64,0,0,1,1.16,1.89A2.14,2.14,0,0,0,29.09,32a3.48,3.48,0,0,1,1.21,2.23c0.12,1.45-.82,6.93-2.42,8.16-1.27,1-3.58,1.72-6.49,2.67a51.87,51.87,0,0,0-9.2,3.64,2.13,2.13,0,0,0-1.3,2l0,0.26c-0.07.55-.23,5.11-0.36,9.62H20.8v3H9A1.5,1.5,0,0,1,7.45,62c0.07-2.48.3-10.64,0.44-11.54l0-.21a5.06,5.06,0,0,1,2.8-4.16,54.09,54.09,0,0,1,9.75-3.88A27.29,27.29,0,0,0,26,40a15.12,15.12,0,0,0,1.31-5.57L27,34.1a5.08,5.08,0,0,1-1.66-3.27l-0.12-.1A5.64,5.64,0,0,1,24,29.53a8.67,8.67,0,0,1-1.66-4.66,6.51,6.51,0,0,1,.2-1.75,5.2,5.2,0,0,0,.14-1.47V21.3a26.51,26.51,0,0,1,1.12-7.87,10.16,10.16,0,0,1,4-5.62,3.8,3.8,0,0,1,2.86-.69,15.57,15.57,0,0,0,5.41-.57c3.32-.74,7.13,1.06,9.39,2.84S49,13.15,49,15a21.39,21.39,0,0,0,.4,4.87c0.08,0.39.17,0.79,0.26,1.4a2.31,2.31,0,0,0,.21.76,4.53,4.53,0,0,1,.41,2.14,11,11,0,0,1-1.66,5.26,7.37,7.37,0,0,0-.87,2,4.32,4.32,0,0,1-2.07,3.41l-0.15.1A15.94,15.94,0,0,0,46.8,39.9a28.4,28.4,0,0,0,5.58,2.44,67.13,67.13,0,0,1,8.71,3.72,5.32,5.32,0,0,1,2.83,4.29c0.15,1,.38,9.15.45,11.63A1.5,1.5,0,0,1,62.88,63.52ZM46.61,39.77h0Z" fill="gray"/><path d="M34.81,62.4A9.17,9.17,0,1,1,44,53.23,9.18,9.18,0,0,1,34.81,62.4Zm0-15.84a6.67,6.67,0,1,0,6.67,6.67A6.68,6.68,0,0,0,34.81,46.56Z" fill="gray"/><rect x="42.13" y="57.72" width="2.5" height="8.94" transform="translate(-30.86 46.76) rotate(-43.36)" fill="gray"/><rect x="0.36" y="0.36" width="71.28" height="71.28" fill="none"/></svg>