<svg xmlns="http://www.w3.org/2000/svg" viewBox="0 0 72 72"><title>1-icons_special</title><path d="M35.92,59.38a3.6,3.6,0,1,1,3.61-3.6A3.61,3.61,0,0,1,35.92,59.38Zm0-6a2.4,2.4,0,1,0,2.41,2.4A2.41,2.41,0,0,0,35.92,53.39Z" fill="gray"/><path d="M42.71,57a1.24,1.24,0,0,0-.93.81,6.25,6.25,0,0,1-.28.66,1.23,1.23,0,0,0,.08,1.22l1.17,1.7-1.19,1.19-1.71-1.17a1.25,1.25,0,0,0-1.23-.08,6.3,6.3,0,0,1-.67.28,1.24,1.24,0,0,0-.81.92l-.38,2.05H35.08l-.38-2.05a1.24,1.24,0,0,0-.81-.92,6.34,6.34,0,0,1-.67-.28,1.25,1.25,0,0,0-1.23.08l-1.71,1.16L29.09,61.4l1.17-1.7a1.23,1.23,0,0,0,.09-1.22,6.22,6.22,0,0,1-.28-.66,1.24,1.24,0,0,0-.93-.8l-2.22-.38V54.95l2.22-.38a1.24,1.24,0,0,0,.93-.81,6.14,6.14,0,0,1,.28-.66,1.23,1.23,0,0,0-.08-1.22l-1.19-1.73L30.25,49,32,50.15a1.25,1.25,0,0,0,1.23.08,6.29,6.29,0,0,1,.67-.28A1.24,1.24,0,0,0,34.7,49l.38-2.17h1.69L37.15,49A1.24,1.24,0,0,0,38,50a6.2,6.2,0,0,1,.67.28,1.25,1.25,0,0,0,1.23-.08L41.6,49l1.19,1.19-1.2,1.73a1.23,1.23,0,0,0-.09,1.22,6.21,6.21,0,0,1,.28.66,1.24,1.24,0,0,0,.93.81l2.05.38v1.68Zm2.23-3.29L43,53.33a7.52,7.52,0,0,0-.34-.8l1.09-1.62a1.24,1.24,0,0,0-.16-1.57l-1.21-1.2A1.26,1.26,0,0,0,40.83,48L39.2,49.05a7.61,7.61,0,0,0-.81-.33L38,46.81a1.25,1.25,0,0,0-1.23-1H35.07a1.25,1.25,0,0,0-1.23,1l-.39,1.91a7.61,7.61,0,0,0-.81.33L31,48a1.26,1.26,0,0,0-1.58.16l-1.21,1.2a1.24,1.24,0,0,0-.16,1.57l1.09,1.62a7.46,7.46,0,0,0-.34.8l-1.92.38a1.25,1.25,0,0,0-1,1.22v1.7a1.25,1.25,0,0,0,1,1.22l1.92.38a7.52,7.52,0,0,0,.34.8l-1.09,1.62a1.24,1.24,0,0,0,.16,1.57l1.21,1.2A1.26,1.26,0,0,0,31,63.6l1.63-1.08a7.42,7.42,0,0,0,.81.34l.38,1.91a1.25,1.25,0,0,0,1.23,1h1.71a1.25,1.25,0,0,0,1.23-1l.39-1.91a7.61,7.61,0,0,0,.81-.34l1.63,1.08a1.26,1.26,0,0,0,1.58-.16l1.21-1.2a1.24,1.24,0,0,0,.16-1.57L42.69,59a7.4,7.4,0,0,0,.34-.81l1.92-.38a1.25,1.25,0,0,0,1-1.22v-1.7A1.25,1.25,0,0,0,44.95,53.71Z" fill="gray" fill-rule="evenodd"/><path d="M62.88,54.89H51.14a1.5,1.5,0,0,1-1.5-1.46c-.07-2.71-.19-6.74-.25-7.21s-.11-.71-.53-.94c-1.49-.81-2.92-1.45-4.17-2a20.74,20.74,0,0,1-3.84-2h0c-1.39-1.07-1.73-4.89-1.71-5.2a2.33,2.33,0,0,1,1.15-1.87l.17-.12h0a.85.85,0,0,0,.08-.31,6.49,6.49,0,0,1,.93-2.27,4.59,4.59,0,0,0,.63-1.93,1.6,1.6,0,0,0,0-.29,3.89,3.89,0,0,1-.35-1.17c0-.3-.09-.51-.13-.7a15.63,15.63,0,0,1-.3-3.5A3,3,0,0,0,40,22.22a5.32,5.32,0,0,0-3.81-1.3,11.78,11.78,0,0,1-4.13.4H32l-.13.08a4,4,0,0,0-1.43,2,14.41,14.41,0,0,0-.63,4.31v.22a5.56,5.56,0,0,1-.15,1.48,1.75,1.75,0,0,0-.05.52,3.16,3.16,0,0,0,.63,1.55,1.92,1.92,0,0,0,.25.23,2.18,2.18,0,0,1,.93,1.59c0,.32.08.39.35.66a2.72,2.72,0,0,1,.92,1.74c.08,1-.5,4.64-1.73,5.57a17.88,17.88,0,0,1-3.57,1.84,46.38,46.38,0,0,0-4.41,2.13.8.8,0,0,0-.53.8l0,.17c-.05.45-.17,4.48-.24,7.19a1.5,1.5,0,0,1-1.5,1.46H8.94a1.5,1.5,0,0,1-1.5-1.5V16.87c0-5.68,3.84-9.5,9.54-9.5H54.83c5.71,0,9.54,3.82,9.54,9.5V53.39A1.5,1.5,0,0,1,62.88,54.89Zm-10.28-3h8.78v-35c0-4-2.51-6.5-6.54-6.5H17c-4,0-6.54,2.49-6.54,6.5v35h8.73c.07-2.53.17-5.65.24-6.11l0-.12a3.7,3.7,0,0,1,2-3,49.6,49.6,0,0,1,4.68-2.26A19.49,19.49,0,0,0,29,39a10.39,10.39,0,0,0,.69-2.85l-.06-.06A3.73,3.73,0,0,1,28.42,34a3.8,3.8,0,0,1-.72-.78A5.87,5.87,0,0,1,26.57,30a4.6,4.6,0,0,1,.14-1.22,2.76,2.76,0,0,0,.07-.79v-.21a17.15,17.15,0,0,1,.71-5,7,7,0,0,1,2.74-3.84,2.93,2.93,0,0,1,2.14-.52A9.24,9.24,0,0,0,35.56,18c2.26-.5,4.82.69,6.32,1.87a5.46,5.46,0,0,1,2.41,4,12.87,12.87,0,0,0,.24,2.92c.05.25.11.51.17.91a.9.9,0,0,0,.09.32,3.39,3.39,0,0,1,.3,1.56A7.49,7.49,0,0,1,44,33.13a4.14,4.14,0,0,0-.45,1,3.23,3.23,0,0,1-1.35,2.37,10.9,10.9,0,0,0,.62,2.41,22.22,22.22,0,0,0,3.15,1.6c1.3.59,2.78,1.26,4.37,2.12a3.87,3.87,0,0,1,2.05,3.08C52.43,46.24,52.53,49.36,52.6,51.89ZM42.49,38.73h0ZM28.37,33.45h0Z" fill="gray"/><rect x="0.36" y="0.36" width="71.28" height="71.28" fill="none"/></svg>