<svg xmlns="http://www.w3.org/2000/svg" viewBox="0 0 72 72"><title>1-icons_special</title><polygon points="51.46 38.3 36.02 22.86 20.71 38.18 23.54 41.01 34.02 30.52 34.02 65.08 38.02 65.08 38.02 30.52 48.63 41.13 51.46 38.3" fill="gray"/><path d="M60.28,57.75H50.43v-4h9.85a0.67,0.67,0,0,0,.66-0.67V11.48a0.67,0.67,0,0,0-.66-0.67H11.67a0.67,0.67,0,0,0-.66.67v41.6a0.67,0.67,0,0,0,.66.67H34.84v4H11.67A4.67,4.67,0,0,1,7,53.08V11.48a4.67,4.67,0,0,1,4.66-4.67h48.6a4.67,4.67,0,0,1,4.66,4.67v41.6A4.67,4.67,0,0,1,60.28,57.75Z" fill="gray"/><rect x="0.5" y="0.36" width="71.28" height="71.28" fill="none"/></svg>