<svg xmlns="http://www.w3.org/2000/svg" viewBox="0 0 72 72"><title>1-icons_special</title><path d="M47.74,48H24.45a1.25,1.25,0,0,1-1.25-1.28c.06-2.1.14-4.68.19-5.06a2.84,2.84,0,0,1,1.52-2.32,23.79,23.79,0,0,1,4.32-1.73,16.68,16.68,0,0,0,2.12-.78,7.62,7.62,0,0,0,.42-1.75,2.75,2.75,0,0,1-.83-1.5,2.73,2.73,0,0,1-.48-.54,4.26,4.26,0,0,1-.82-2.35,3.41,3.41,0,0,1,.1-.9,1.73,1.73,0,0,0,0-.49V29.2a12.18,12.18,0,0,1,.5-3.55,5,5,0,0,1,2-2.79,2.23,2.23,0,0,1,1.62-.39,6.17,6.17,0,0,0,2.15-.23,5.93,5.93,0,0,1,4.56,1.34,4,4,0,0,1,1.75,2.9,8.76,8.76,0,0,0,.16,2c0,.18.08.37.12.65a.44.44,0,0,0,0,.17,2.56,2.56,0,0,1,.23,1.17,5.35,5.35,0,0,1-.82,2.61,2.73,2.73,0,0,0-.28.64,2.41,2.41,0,0,1-.91,1.69,7.66,7.66,0,0,0,.37,1.44,16,16,0,0,0,2.15.9,29.5,29.5,0,0,1,3.84,1.64,2.88,2.88,0,0,1,1.53,2.29c.06.42.14,3,.2,5.1A1.25,1.25,0,0,1,47.74,48Zm-22-2.5H46.46c-.05-1.69-.11-3.24-.13-3.49s-.06-.39-.26-.49a27.57,27.57,0,0,0-3.52-1.49,12.1,12.1,0,0,1-2.91-1.33h0c-1.07-.82-1.28-3.54-1.27-3.79a1.81,1.81,0,0,1,.89-1.46l.06,0s0,0,0-.11A4.66,4.66,0,0,1,40,31.67a3,3,0,0,0,.4-1.22,1,1,0,0,0,0-.16,2.63,2.63,0,0,1-.24-.82c0-.21-.06-.34-.09-.47a11,11,0,0,1-.21-2.47,2,2,0,0,0-.82-1,3.54,3.54,0,0,0-2.45-.85,8.6,8.6,0,0,1-2.93.28h0l0,0a2.54,2.54,0,0,0-.9,1.28,9.82,9.82,0,0,0-.43,2.94v.15a4.1,4.1,0,0,1-.11,1.08,1,1,0,0,0,0,.31,2,2,0,0,0,.4,1,1.07,1.07,0,0,0,.13.12,1.72,1.72,0,0,1,.72,1.25c0,.14,0,.14.18.32a2.1,2.1,0,0,1,.69,1.34c.06.7-.32,3.31-1.28,4.05A10.9,10.9,0,0,1,30,40a22,22,0,0,0-3.87,1.53c-.22.13-.22.13-.26.4l0,.12C25.84,42.3,25.78,43.85,25.73,45.54ZM41,36.65h0Z" fill="gray"/><path d="M36.07,7.61A28.32,28.32,0,1,0,64.39,35.93,28.35,28.35,0,0,0,36.07,7.61ZM61.32,34.15H47.87c0-1.34.09-2.87.13-3.15a.52.52,0,0,1,.33-.5,17.75,17.75,0,0,1,3.14-1.24,8.63,8.63,0,0,0,2.31-1c.66-.5,1-2.48.93-3a1.42,1.42,0,0,0-.48-.91c-.16-.16-.21-.21-.22-.42a1.12,1.12,0,0,0-.48-.82,1,1,0,0,1-.15-.14,1.83,1.83,0,0,1-.36-.91,1,1,0,0,1,0-.31,3,3,0,0,0,.08-.81v-.12a8.06,8.06,0,0,1,.35-2.41,2,2,0,0,1,.28-.58A25.25,25.25,0,0,1,61.32,34.15Zm.07,1.78a25.28,25.28,0,0,1-.76,6.16,4.07,4.07,0,0,0-.9-1,4.49,4.49,0,0,0-3.44-1,5.18,5.18,0,0,1-1.8.19,1.54,1.54,0,0,0-1.13.27,3.77,3.77,0,0,0-1.49,2.08,9.45,9.45,0,0,0-.39,2.78v.12a1.6,1.6,0,0,1,0,.45,2.48,2.48,0,0,0-.07.66A3.18,3.18,0,0,0,52,48.4a2.16,2.16,0,0,0,.41.44A2,2,0,0,0,53,50l.06.06a5.68,5.68,0,0,1-.4,1.67,10.79,10.79,0,0,1-1.81.69,18.81,18.81,0,0,0-3.41,1.36,2,2,0,0,0-1.09,1.68c0,.29-.11,2.44-.14,3.67a25.1,25.1,0,0,1-5.87,1.76,1.64,1.64,0,0,0,.17-.21,3.18,3.18,0,0,0,.61-1.74,2.48,2.48,0,0,0-.07-.66,1.61,1.61,0,0,1,0-.46v-.12a9.44,9.44,0,0,0-.39-2.78,3.77,3.77,0,0,0-1.48-2.08A1.53,1.53,0,0,0,38,52.57a5.13,5.13,0,0,1-1.8-.19,4.49,4.49,0,0,0-3.44,1,3,3,0,0,0-1.31,2.13,7.19,7.19,0,0,1-.13,1.64c0,.14-.06.28-.09.5a.59.59,0,0,1-.06.2,1.78,1.78,0,0,0-.16.83,4.06,4.06,0,0,0,.61,1.95,1.79,1.79,0,0,1,.12.22,25.1,25.1,0,0,1-5.85-1.76c0-1.23-.1-3.37-.15-3.72a2,2,0,0,0-1.08-1.61,18.8,18.8,0,0,0-3.41-1.36,10.79,10.79,0,0,1-1.81-.69,5.66,5.66,0,0,1-.4-1.67l.06-.06a2,2,0,0,0,.63-1.17,2.12,2.12,0,0,0,.41-.44,3.18,3.18,0,0,0,.61-1.74,2.48,2.48,0,0,0-.07-.66,1.6,1.6,0,0,1,0-.45v-.12a9.44,9.44,0,0,0-.39-2.78,3.77,3.77,0,0,0-1.49-2.08,1.54,1.54,0,0,0-1.13-.27,5.18,5.18,0,0,1-1.8-.19,4.48,4.48,0,0,0-3.44,1,4.08,4.08,0,0,0-.88.94,25.27,25.27,0,0,1-.75-6.13c0-.09,0-.19,0-.28H25.44a.75.75,0,0,0,.75-.77c0-1.1-.1-3.7-.16-4.08a2,2,0,0,0-1.08-1.61,18.83,18.83,0,0,0-3.41-1.36,10.86,10.86,0,0,1-1.81-.68,5.68,5.68,0,0,1-.4-1.67l.06-.06A2,2,0,0,0,20,24.24a2.11,2.11,0,0,0,.41-.44A3.18,3.18,0,0,0,21,22.06,2.5,2.5,0,0,0,21,21.4a1.58,1.58,0,0,1,0-.46v-.12a9.44,9.44,0,0,0-.39-2.78,3.71,3.71,0,0,0-.79-1.44,25.36,25.36,0,0,1,6.55-4c0,.12,0,.22-.05.32,0,.31-.12,2.91-.15,4a.75.75,0,0,0,.75.77H45.47a.75.75,0,0,0,.75-.77c0-1.1-.1-3.7-.16-4,0-.06,0-.13,0-.22a25.36,25.36,0,0,1,6.62,4.16A3.61,3.61,0,0,0,52,18.05a9.44,9.44,0,0,0-.39,2.77v.12a1.61,1.61,0,0,1,0,.46,2.48,2.48,0,0,0-.07.66,3.22,3.22,0,0,0,.61,1.74,2.16,2.16,0,0,0,.41.44,2,2,0,0,0,.63,1.17l.06.06a5.68,5.68,0,0,1-.4,1.67,10.81,10.81,0,0,1-1.81.68,18.85,18.85,0,0,0-3.41,1.36,2,2,0,0,0-1.09,1.68c0,.31-.12,2.91-.15,4a.75.75,0,0,0,.75.77H61.38C61.39,35.75,61.39,35.84,61.39,35.93ZM40.62,11l.78.29a22.21,22.21,0,0,1,2.85,1.21c.27.15.29.3.34.58s.07,1.61.12,3.07H27.6c0-1.34.09-2.87.13-3.15a.52.52,0,0,1,.33-.5,17.76,17.76,0,0,1,3.14-1.24c.44-.14.83-.27,1.18-.4a25.08,25.08,0,0,1,8.23.15Zm-22,6.58a2.22,2.22,0,0,1,.44.8,8.05,8.05,0,0,1,.35,2.42v.12a3,3,0,0,0,.08.81,1,1,0,0,1,0,.31,1.82,1.82,0,0,1-.36.91,1,1,0,0,1-.15.15,1.13,1.13,0,0,0-.48.82c0,.21-.06.26-.22.42a1.42,1.42,0,0,0-.48.91c0,.54.27,2.52.93,3a8.64,8.64,0,0,0,2.31,1,17.75,17.75,0,0,1,3.14,1.24c.29.16.3.26.35.59s.07,1.61.12,3.07H10.82A25.25,25.25,0,0,1,18.62,17.61ZM12.45,45a9.73,9.73,0,0,0,.13-1.75,1.71,1.71,0,0,1,.73-1,3.06,3.06,0,0,1,2.18-.74,6.45,6.45,0,0,0,2.27.22l.08,0,.11.06A2.29,2.29,0,0,1,18.79,43a8.06,8.06,0,0,1,.35,2.42v.12a3,3,0,0,0,.08.81,1.06,1.06,0,0,1,0,.31,1.82,1.82,0,0,1-.36.91,1,1,0,0,1-.15.14,1.12,1.12,0,0,0-.48.82A.51.51,0,0,1,18,49a1.42,1.42,0,0,0-.48.91c0,.54.27,2.52.93,3a8.61,8.61,0,0,0,2.31,1,17.73,17.73,0,0,1,3.14,1.24c.29.16.3.26.35.59s.07,1.38.1,2.7A25.46,25.46,0,0,1,12.45,45ZM33.39,61.11V61a3.56,3.56,0,0,0-.5-1.22,2.61,2.61,0,0,1-.36-1.12.5.5,0,0,1,0-.23,2,2,0,0,0,.17-.6c0-.17,0-.29.07-.39A8.63,8.63,0,0,0,33,55.56a1.71,1.71,0,0,1,.73-1,3.05,3.05,0,0,1,2.18-.74,6.47,6.47,0,0,0,2.27.22l.08,0,.11.06a2.29,2.29,0,0,1,.83,1.17,8.06,8.06,0,0,1,.35,2.42v.12a3,3,0,0,0,.08.81,1,1,0,0,1,0,.31,1.82,1.82,0,0,1-.36.91,1,1,0,0,1-.15.14,1.12,1.12,0,0,0-.48.82.43.43,0,0,1-.12.32c-.8.08-1.62.12-2.44.12A25.47,25.47,0,0,1,33.39,61.11ZM47.73,58.4c0-1.24.09-2.54.12-2.8a.52.52,0,0,1,.33-.5,17.75,17.75,0,0,1,3.14-1.24,8.61,8.61,0,0,0,2.31-1c.66-.5,1-2.48.93-3a1.42,1.42,0,0,0-.48-.91c-.16-.16-.21-.21-.22-.42a1.12,1.12,0,0,0-.48-.82,1,1,0,0,1-.15-.15,1.82,1.82,0,0,1-.36-.91,1.06,1.06,0,0,1,0-.31,3,3,0,0,0,.08-.81v-.12A8.06,8.06,0,0,1,53.33,43a2.29,2.29,0,0,1,.83-1.17l.09-.06h.1a6.49,6.49,0,0,0,2.27-.22,3.05,3.05,0,0,1,2.18.74,1.71,1.71,0,0,1,.73,1,9.38,9.38,0,0,0,.14,1.8A25.46,25.46,0,0,1,47.73,58.4Z" fill="gray"/><rect x="0.36" y="0.36" width="71.28" height="71.28" fill="none"/></svg>