<svg xmlns="http://www.w3.org/2000/svg" viewBox="0 0 72 72"><title>1-icons_special</title><path d="M67,36.09S67,36,67,36c0-1.41-.14-4.74-.21-5.17v0a2.81,2.81,0,0,0-1.49-2.24c-1.2-.65-2.32-1.16-3.31-1.61a16.32,16.32,0,0,1-2.45-1.25,8.11,8.11,0,0,1-.51-2,2.31,2.31,0,0,0,1-1.76,3.27,3.27,0,0,1,.37-.83,5.53,5.53,0,0,0,.83-2.65,2.42,2.42,0,0,0-.22-1.13A.82.82,0,0,1,61,17c0-.3-.08-.49-.13-.68a9.86,9.86,0,0,1-.18-2.25,4,4,0,0,0-1.78-2.9,6.12,6.12,0,0,0-4.69-1.4,7.14,7.14,0,0,1-2.47.26,2.07,2.07,0,0,0-1.54.37,5.14,5.14,0,0,0-2,2.84,18.86,18.86,0,0,0-.49,2.52L37.36,5.47a2,2,0,0,0-2.83,0l-6.05,6.05c0-.26,0-.62,0-1.15a3.58,3.58,0,0,0-1.58-2.59,5.39,5.39,0,0,0-4.14-1.22,6,6,0,0,1-2.07.22,1.93,1.93,0,0,0-1.41.34,4.56,4.56,0,0,0-1.79,2.52A11.31,11.31,0,0,0,17,12.92v.14a1.77,1.77,0,0,1,0,.51,3,3,0,0,0-.09.8,3.84,3.84,0,0,0,.74,2.11A2.51,2.51,0,0,0,18,17a2.45,2.45,0,0,0,.76,1.4l0,0a6.79,6.79,0,0,1-.44,1.84,12.78,12.78,0,0,1-1.83.9,32.33,32.33,0,0,0-3.05,1.48,2.48,2.48,0,0,0-1.34,2.05c0,.28-.1,1.88-.15,3.29L5.46,34.55a2,2,0,0,0,0,2.83L21.11,53l-1,.54A2.94,2.94,0,0,0,18.49,56l0,.11c-.08.5-.2,4.64-.24,5.9a1,1,0,0,0,1,1H31.08l3.45,3.45a2,2,0,0,0,2.83,0L40.8,63h4.94a1,1,0,0,0,1-1c0-.9-.1-3.26-.17-4.74L66.43,37.37a2,2,0,0,0,.5-1,1,1,0,0,0,0-.11A2,2,0,0,0,67,36.09ZM49.52,18.34a4.13,4.13,0,0,0,.11-1.1v-.17a11.07,11.07,0,0,1,.48-3.31,3.18,3.18,0,0,1,1.15-1.63l.13-.08h.15a8.86,8.86,0,0,0,3.1-.3,4.19,4.19,0,0,1,3,1,2.33,2.33,0,0,1,1,1.36,11.42,11.42,0,0,0,.23,2.63c0,.15.07.31.1.54a2.76,2.76,0,0,0,.23.81.6.6,0,0,1,0,.32,3.59,3.59,0,0,1-.5,1.54,4.86,4.86,0,0,0-.68,1.67c0,.28-.06.3-.25.42A1.62,1.62,0,0,0,57,23.4c0,.36.28,3.1,1.25,3.84h0a15.72,15.72,0,0,0,2.89,1.52c1,.43,2,.92,3.18,1.54a.84.84,0,0,1,.47.78v0c0,.28.1,2.21.16,3.91H43.86c.05-1.71.12-3.63.16-3.9L44,31a.74.74,0,0,1,.47-.71,35.45,35.45,0,0,1,3.36-1.62,13.53,13.53,0,0,0,2.69-1.39c.9-.69,1.32-3.37,1.26-4.11a1.92,1.92,0,0,0-.66-1.24.73.73,0,0,1-.31-.6,1.51,1.51,0,0,0-.65-1.11A1.39,1.39,0,0,1,50,20a2.51,2.51,0,0,1-.5-1.26A1.45,1.45,0,0,1,49.52,18.34ZM14.15,25l0-.11a.5.5,0,0,1,.33-.5A30.32,30.32,0,0,1,17.37,23a11.68,11.68,0,0,0,2.33-1.2c.86-.66,1.18-3.09,1.13-3.65a1.79,1.79,0,0,0-.6-1.15c-.18-.18-.21-.22-.22-.42a1.44,1.44,0,0,0-.61-1.05,1.23,1.23,0,0,1-.16-.14,2,2,0,0,1-.4-1,1.13,1.13,0,0,1,0-.34,3.64,3.64,0,0,0,.1-1v-.14a9.34,9.34,0,0,1,.41-2.8A2.55,2.55,0,0,1,20.3,8.8s.07,0,0,0h.1a7.71,7.71,0,0,0,2.7-.26,3.45,3.45,0,0,1,2.46.84c.59.47.81.89.81,1.06a10.2,10.2,0,0,0,.2,2.29c0,.13.06.26.08.45a2.54,2.54,0,0,0,.23.77,1,1,0,0,1,0,.18,3,3,0,0,1-.4,1.24,4.26,4.26,0,0,0-.61,1.49.63.63,0,0,1,0,.19l-.1.08A1.54,1.54,0,0,0,25,18.33c0,.21.19,2.7,1.13,3.41a13.55,13.55,0,0,0,2.51,1.32c.82.37,1.75.79,2.72,1.32.26.14.28.28.33.57v0c0,.23.08,1.66.13,3.19H14C14.07,26.63,14.13,25.19,14.15,25Zm1.34,5.18H32.87a1,1,0,0,0,1-1c0-1.51-.13-4.09-.18-4.45l-1,.15,1-.19a2.54,2.54,0,0,0-1.35-2c-1-.56-2-1-2.85-1.38a14.63,14.63,0,0,1-2-1,7.19,7.19,0,0,1-.4-1.55,2.1,2.1,0,0,0,.54-.57l8.36-8.36L48.59,22.36a1.92,1.92,0,0,0,.67.42,3.48,3.48,0,0,0,.47.56l.09.09a7.69,7.69,0,0,1-.55,2.32,14.36,14.36,0,0,1-2.2,1.09,37.59,37.59,0,0,0-3.55,1.71A2.74,2.74,0,0,0,42,30.83c-.07.43-.17,3.76-.21,5.17a1,1,0,0,0,1,1H61.12L44.68,53.47c-1.3-.69-2.51-1.25-3.59-1.73a18.18,18.18,0,0,1-2.85-1.46,9,9,0,0,1-.62-2.45,2.53,2.53,0,0,0,1.19-2,3.81,3.81,0,0,1,.44-1,6.15,6.15,0,0,0,.93-3,2.64,2.64,0,0,0-.24-1.24,1.07,1.07,0,0,1-.1-.36c0-.33-.1-.56-.14-.77a11.4,11.4,0,0,1-.21-2.6,4.45,4.45,0,0,0-2-3.2,6.87,6.87,0,0,0-5.24-1.57,8.27,8.27,0,0,1-2.87.3,2.23,2.23,0,0,0-1.67.4A5.71,5.71,0,0,0,25.49,36a14.65,14.65,0,0,0-.61,4.3v.19a2.66,2.66,0,0,1-.07.75,3.72,3.72,0,0,0-.11,1,4.87,4.87,0,0,0,.93,2.63,3.22,3.22,0,0,0,.65.68h0a2.92,2.92,0,0,0,.94,1.8l.14.15a8.57,8.57,0,0,1-.67,2.8,10.53,10.53,0,0,1-1.72.9L9.7,36ZM20.27,61c.07-2.18.15-4.33.18-4.62l0-.15a1,1,0,0,1,.61-.92,40.68,40.68,0,0,1,3.86-1.86,15.37,15.37,0,0,0,3-1.56c1-.74,1.45-3.78,1.38-4.58A2.07,2.07,0,0,0,28.65,46a1,1,0,0,1-.39-.78,1.61,1.61,0,0,0-.69-1.16,1.6,1.6,0,0,1-.27-.26,3,3,0,0,1-.6-1.52,1.79,1.79,0,0,1,.06-.52,4.56,4.56,0,0,0,.13-1.22v-.19a12.76,12.76,0,0,1,.55-3.82,3.73,3.73,0,0,1,1.38-1.94,1.62,1.62,0,0,1,.21-.12h.2a10,10,0,0,0,3.49-.34,4.86,4.86,0,0,1,3.56,1.19A2.78,2.78,0,0,1,37.49,37a13,13,0,0,0,.26,3c0,.17.08.36.12.63a3,3,0,0,0,.25.89.79.79,0,0,1,.06.42,4.29,4.29,0,0,1-.59,1.84,5.38,5.38,0,0,0-.76,1.84c-.05.39-.12.43-.34.58a1.72,1.72,0,0,0-.87,1.39c0,.53.37,3.5,1.37,4.26h0a17.89,17.89,0,0,0,3.28,1.72c1.1.5,2.34,1.06,3.65,1.77a1.15,1.15,0,0,1,.61,1c0,.3.12,2.45.19,4.63Z" fill="gray"/><rect x="0.36" y="0.36" width="71.28" height="71.28" fill="none"/></svg>