<svg xmlns="http://www.w3.org/2000/svg" viewBox="0 0 72 72"><title>1-icons_special</title><path d="M62.81,54.92H51.07a1.5,1.5,0,0,1-1.5-1.46c-0.07-2.71-.19-6.74-0.25-7.21a1,1,0,0,0-.53-0.94c-1.49-.81-2.92-1.45-4.17-2a20.74,20.74,0,0,1-3.84-2h0c-1.4-1.07-1.73-4.89-1.71-5.2a2.33,2.33,0,0,1,1.15-1.87l0.17-.12h0a0.85,0.85,0,0,0,.08-0.31,6.5,6.5,0,0,1,.93-2.27A4.59,4.59,0,0,0,42,29.56a1.6,1.6,0,0,0,0-.29,3.9,3.9,0,0,1-.35-1.17c0-.3-0.09-0.51-0.13-0.7a15.62,15.62,0,0,1-.3-3.5A3,3,0,0,0,40,22.25a5.34,5.34,0,0,0-3.81-1.3,11.82,11.82,0,0,1-4.13.4H31.89l-0.13.08a4,4,0,0,0-1.43,2,14.4,14.4,0,0,0-.63,4.31V28a5.56,5.56,0,0,1-.15,1.48,1.75,1.75,0,0,0-.05.52,3.16,3.16,0,0,0,.63,1.55,1.9,1.9,0,0,0,.25.23,2.18,2.18,0,0,1,.92,1.59,0.79,0.79,0,0,0,.35.66,2.73,2.73,0,0,1,.91,1.74c0.08,1-.5,4.64-1.73,5.57a17.88,17.88,0,0,1-3.57,1.84,46.47,46.47,0,0,0-4.41,2.13,0.8,0.8,0,0,0-.53.8l0,0.17c-0.05.45-.17,4.48-0.24,7.19a1.5,1.5,0,0,1-1.5,1.46H8.86a1.5,1.5,0,0,1-1.5-1.5V16.9c0-5.68,3.84-9.5,9.54-9.5H54.76c5.71,0,9.54,3.82,9.54,9.5V53.42A1.5,1.5,0,0,1,62.81,54.92Zm-10.28-3h8.78v-35c0-4-2.51-6.5-6.54-6.5H16.91c-4,0-6.54,2.49-6.54,6.5v35H19.1c0.07-2.53.17-5.65,0.24-6.11l0-.12a3.7,3.7,0,0,1,2-3,49.69,49.69,0,0,1,4.68-2.26A19.46,19.46,0,0,0,28.88,39a10.37,10.37,0,0,0,.69-2.85l-0.06-.06A3.73,3.73,0,0,1,28.35,34a3.83,3.83,0,0,1-.72-0.78A5.87,5.87,0,0,1,26.49,30a4.6,4.6,0,0,1,.14-1.22A2.76,2.76,0,0,0,26.7,28V27.76a17.14,17.14,0,0,1,.71-5,7,7,0,0,1,2.74-3.84,2.94,2.94,0,0,1,2.14-.52A9.19,9.19,0,0,0,35.49,18c2.27-.51,4.82.69,6.32,1.87a5.45,5.45,0,0,1,2.41,4,12.86,12.86,0,0,0,.24,2.92c0.05,0.25.11,0.51,0.17,0.91a0.92,0.92,0,0,0,.09.32,3.38,3.38,0,0,1,.3,1.56,7.5,7.5,0,0,1-1.13,3.59,4.16,4.16,0,0,0-.45,1,3.23,3.23,0,0,1-1.35,2.37A10.9,10.9,0,0,0,42.7,39a22.27,22.27,0,0,0,3.15,1.6c1.3,0.59,2.78,1.26,4.37,2.12a3.87,3.87,0,0,1,2.05,3.08C52.36,46.26,52.46,49.39,52.53,51.92ZM42.42,38.76h0ZM28.29,33.47h0Z" fill="gray"/><polygon points="32.57 66.08 25.28 58.78 28.1 55.95 32.57 60.42 43.5 49.5 46.32 52.33 32.57 66.08" fill="gray"/><rect x="0.36" y="0.36" width="71.28" height="71.28" fill="none"/></svg>