<svg xmlns="http://www.w3.org/2000/svg" viewBox="0 0 72 72"><title>1-icons_special</title><path d="M31.2,41h1.9l2.61,8.24h0L38.4,41h1.85L36.7,51.39h-2Z" fill="gray"/><path d="M46.56,57.87h-2.7v-2h1.7v-1.7h2v2.7A1,1,0,0,1,46.56,57.87Z" fill="gray"/><path d="M41.54,57.87H36.89v-2h4.65Zm-7,0H29.92v-2h4.65Z" fill="gray"/><path d="M27.6,57.87H24.9a1,1,0,0,1-1-1v-2.7h2v1.7h1.7Z" fill="gray"/><path d="M25.9,51.85h-2V47.2h2Zm0-7h-2V40.23h2Z" fill="gray"/><path d="M25.9,37.91h-2v-2.7a1,1,0,0,1,1-1h2.7v2H25.9Z" fill="gray"/><path d="M41.54,36.21H36.89v-2h4.65Zm-7,0H29.92v-2h4.65Z" fill="gray"/><path d="M47.56,37.91h-2v-1.7h-1.7v-2h2.7a1,1,0,0,1,1,1Z" fill="gray"/><path d="M47.56,51.85h-2V47.2h2Zm0-7h-2V40.23h2Z" fill="gray"/><path d="M49.68,64.77H41.6v-4h8.07a.69.69,0,0,0,.68-.69V11.27a.69.69,0,0,0-.68-.69H22.28a.69.69,0,0,0-.68.69V60.09a.69.69,0,0,0,.68.69H30v4H22.28a4.69,4.69,0,0,1-4.68-4.69V11.27a4.69,4.69,0,0,1,4.68-4.69h27.4a4.69,4.69,0,0,1,4.68,4.69V60.09A4.69,4.69,0,0,1,49.68,64.77Z" fill="gray"/><path d="M41.07,18.44H30.88a1,1,0,0,1,0-2H41.07a1,1,0,0,1,0,2Z" fill="gray"/><path d="M41.07,25.52H30.88a1,1,0,0,1,0-2H41.07a1,1,0,0,1,0,2Z" fill="gray"/><rect x="0.36" y="0.36" width="71.28" height="71.28" fill="none"/></svg>