<svg xmlns="http://www.w3.org/2000/svg" viewBox="0 0 72 72"><title>1-icons_special</title><path d="M46.5,63.71H25.38v-3H34.5V55.83H9.07a1.5,1.5,0,0,1-1.5-1.5V10.7a1.5,1.5,0,0,1,1.5-1.5h54a1.5,1.5,0,0,1,1.5,1.5V54.33a1.5,1.5,0,0,1-1.5,1.5H37.5v4.88h9ZM36,52.83H61.57V12.2h-51V52.83Z" fill="gray"/><path d="M44.43,32.85c-.24-.52,0-1.3-.56-1.52a6.65,6.65,0,0,0-.23-4c-.71-2-2.69-4.18-3.31-5.4-.85-1.68-.38-4.52-1-5.54a3.83,3.83,0,0,0-3.32-2c-1.69,0-4.1.85-3.29,5.66a5.45,5.45,0,0,1,0,2.56c-.24.59-1.15,1.44-2,2.66a30.73,30.73,0,0,0-1.16,2.89C29,29.38,28.23,30,29,31l-1.14,1.33c-.63.38-1.33.11-1.71.76L26,36.18c.47.88,2.25.64,3.23,1.14a7.29,7.29,0,0,0,3.24.81c.61-.07.78-.81,1.73-1.05a15.28,15.28,0,0,1,4.86,0c1.72,2.87,4-.48,5-.94s2-.85,2.05-1.46S45,34.06,44.43,32.85ZM37.36,17.75a1.54,1.54,0,0,1,.28,2.55c-.19,0-.49-.13-.68-.17.75-.55.68-1.27,0-1.47s-.72.38-.55,1.19l-.38-.09A1.25,1.25,0,0,1,37.36,17.75Zm-3.72.08c.41-.17,1.3,0,1.11,1.74l-.31.14c0-1.18-.58-1.43-.89-.88-.19.35.11,1,.44,1.21l-.28.28A1.6,1.6,0,0,1,33.64,17.83ZM40.44,31c-.36.2-1.08-.31-1,.27.06.33.21,2.25-.11,2.6-1.82,2-4.71,2.21-5.92,1.53a1.25,1.25,0,0,1-.69-.88c.55,0,1.23-.43.95-1.18s-2.75-1.72-2.92-2.51-.47-1.08.83-4c.36-.81.62-1.8,1-2.56.2-.42.54-.71.68-1.1a4.08,4.08,0,0,0,.06-1.3l.19-.09c1.17,1.64,2.74,1.24,4.33-.18.38,0,.61,1.2,1.14,2.34.22.49.29,1,.54,1.55a10.8,10.8,0,0,1,.9,2A9.32,9.32,0,0,1,40.44,31Z" fill="gray" fill-rule="evenodd"/><path d="M19.82,39h1.73v8.38h5v1.49H19.82Z" fill="gray"/><path d="M27.57,39h1.58v1.49H27.57Zm0,2.72h1.58v7.15H27.57Z" fill="gray"/><path d="M30.87,41.72h1.49v1.05l0,0a2.64,2.64,0,0,1,.94-.93,2.51,2.51,0,0,1,1.29-.34,2.68,2.68,0,0,1,1.85.61A2.33,2.33,0,0,1,37.15,44v4.91H35.57V44.38a2,2,0,0,0-.36-1.22,1.31,1.31,0,0,0-1-.38,1.71,1.71,0,0,0-.72.15,1.56,1.56,0,0,0-.54.4,1.87,1.87,0,0,0-.35.6,2.14,2.14,0,0,0-.12.73v4.22H30.87Z" fill="gray"/><path d="M45.08,48.87H43.54v-1h0a2.16,2.16,0,0,1-.86.86,2.35,2.35,0,0,1-1.17.32,2.63,2.63,0,0,1-2-.7,3.07,3.07,0,0,1-.63-2.11V41.72h1.58v4.38a1.93,1.93,0,0,0,.36,1.33,1.31,1.31,0,0,0,1,.39,2,2,0,0,0,.83-.15,1.46,1.46,0,0,0,.54-.41,1.56,1.56,0,0,0,.3-.62,3.14,3.14,0,0,0,.09-.77V41.72h1.58Z" fill="gray"/><path d="M48.67,45.11l-2.47-3.39H48.1l1.49,2.2,1.56-2.2H53L50.55,45l2.74,3.84h-1.9l-1.81-2.64-1.76,2.64H46Z" fill="gray"/><rect x="0.36" y="0.36" width="71.28" height="71.28" fill="none"/></svg>