<svg xmlns="http://www.w3.org/2000/svg" viewBox="0 0 72 72"><title>1-icons_special</title><path d="M49.73,64.38H41.65v-3h8.07a1.19,1.19,0,0,0,1.18-1.19V11.37a1.19,1.19,0,0,0-1.18-1.19H22.33a1.19,1.19,0,0,0-1.18,1.19V60.19a1.19,1.19,0,0,0,1.18,1.19H30v3H22.33a4.19,4.19,0,0,1-4.18-4.19V11.37a4.19,4.19,0,0,1,4.18-4.19h27.4a4.19,4.19,0,0,1,4.18,4.19V60.19A4.19,4.19,0,0,1,49.73,64.38Z" fill="gray"/><path d="M41.12,18.55H30.93a1,1,0,0,1,0-2H41.12a1,1,0,0,1,0,2Z" fill="gray"/><path d="M41.12,25.62H30.93a1,1,0,0,1,0-2H41.12a1,1,0,0,1,0,2Z" fill="gray"/><rect x="0.36" y="0.36" width="71.28" height="71.28" fill="none"/></svg>