<svg xmlns="http://www.w3.org/2000/svg" viewBox="0 0 72 72"><title>1-icons_special</title><path d="M57.5,30.69C51.29,27.11,43,25.14,34.2,25.14a55.07,55.07,0,0,0-11.92,1.29V20.68a11.92,11.92,0,1,1,23.84,0h3.5a15.42,15.42,0,1,0-30.84,0v6.66A38.18,38.18,0,0,0,11,30.62a1.75,1.75,0,0,0-.88,1.52V57A1.75,1.75,0,0,0,11,58.51C17.21,62,25.44,64,34.2,64s17.09-2,23.3-5.54a1.75,1.75,0,0,0,.88-1.52V32.2A1.75,1.75,0,0,0,57.5,30.69ZM54.88,55.9c-5.59,3-12.88,4.59-20.68,4.59S19.2,58.89,13.62,56V33.18c5.57-2.93,12.83-4.54,20.57-4.54s15.09,1.63,20.68,4.59Z" fill="gray"/><rect x="22.86" y="33.98" width="19.72" height="2.5" fill="gray"/><rect x="22.86" y="40.17" width="22.89" height="2.5" fill="gray"/><rect x="22.86" y="46.37" width="25.72" height="2.5" fill="gray"/><rect x="22.86" y="52.57" width="19.05" height="2.5" fill="gray"/><rect x="0.36" y="0.36" width="71.28" height="71.28" fill="none"/></svg>