<svg xmlns="http://www.w3.org/2000/svg" viewBox="0 0 72 72"><title>1-icons_special</title><path d="M65,16.56l-4.8-6.79a1.5,1.5,0,0,0-2.08-.37l-4,2.77V10A1,1,0,0,0,54,9.36a6.49,6.49,0,0,0-5-2.19,7.52,7.52,0,0,0-5.85,2.2,1,1,0,0,0-.26.67l0,10-11.8,8.19A12.65,12.65,0,0,1,34.33,21c1.88-2.18,2.72-4.2,2.56-6.17-.34-4.16-4.1-8-7-8.48a1,1,0,0,0-1.14,1.13l.94,6.39c-.61.42-1.54,1.13-3,2.26l-3.37-1-.93-6.72a1,1,0,0,0-1.59-.66c-.2.15-5,3.84-4.42,8.89a7.92,7.92,0,0,0,2.21,4.73c3.35,3.15,3.74,4.43,3.84,8.12,0,1,0,2.58-.1,4.8l-9.43,6.54a1.5,1.5,0,0,0-.4.41l-5.94,9a1.5,1.5,0,0,0,1.56,2.29l10.74-2.25a1.51,1.51,0,0,0,.55-.24l2.38-1.65c0,.59,0,1.18-.06,1.8a7.75,7.75,0,0,0-1.55,1.39,8,8,0,0,0,6.08,13.17l.67,0a8,8,0,0,0,4.66-13.94c0-3.14-.09-6.5-.18-9.07L45,32.27l.36.4V49.14L42.6,54.08a1,1,0,0,0-.08.82l3.05,8.89a1,1,0,0,0,.95.68h0l4,0a1,1,0,0,0,.94-.67l3.11-8.94a1,1,0,0,0-.08-.83l-2.84-4.92V32.55a13.54,13.54,0,0,0,2.27-3,7.32,7.32,0,0,0,.26-1.91V25.93l10.49-7.28a1.5,1.5,0,0,0,.37-2.1ZM44.86,10.45a5.81,5.81,0,0,1,4-1.28,4.89,4.89,0,0,1,3.26,1.18v3.2l-7.29,5.06ZM24.42,29.4c-.11-4.22-.71-6-4.44-9.49a5.84,5.84,0,0,1-1.63-3.53c-.28-2.41,1.16-4.53,2.31-5.8L21.42,16a1,1,0,0,0,.7.82l4.47,1.34a1,1,0,0,0,.89-.16l3.89-2.94,0,0a1,1,0,0,0,.36-.93L31,8.87A8.75,8.75,0,0,1,34.9,15c.12,1.41-.57,2.94-2.09,4.71a14.63,14.63,0,0,0-3.81,10l-4.63,3.21C24.42,31.33,24.44,30.19,24.42,29.4Zm-6.48,18L11,48.86l3.79-5.76,39.3-27.26,3.07,4.34Zm11.64,3.85a1,1,0,0,0,.39.8l.17.13a6,6,0,1,1-8.44.69,5.8,5.8,0,0,1,1.51-1.26,1,1,0,0,0,.5-.83c0-1.33.08-2.59.12-3.81l5.62-3.9C29.52,45.55,29.59,48.51,29.58,51.26ZM52.17,27.61A7.11,7.11,0,0,1,52,28.83a15.13,15.13,0,0,1-2.13,2.63,1,1,0,0,0-.28.69v17.2a1,1,0,0,0,.13.5l2.75,4.76-2.73,7.84H47.24l-2.68-7.79,2.7-4.77a1,1,0,0,0,.13-.49V32.28a1,1,0,0,0-.28-.69l-.43-.47,5.48-3.8ZM58.85,19l-3.07-4.34,2.85-2,3.07,4.34Z" fill="gray"/><path d="M23.82,54.26a1,1,0,0,0-.65.76l-.49,2.65a1,1,0,0,0,.34.94l2.05,1.74a1,1,0,0,0,1,.18l2.54-.91a1,1,0,0,0,.65-.76l.48-2.66a1,1,0,0,0-.34-.94l-2.05-1.74a1,1,0,0,0-1-.18Zm3.84,2.16-.27,1.52-1.45.52-1.17-1L25,55.94l1.45-.52Z" fill="gray"/><rect x="0.36" y="0.36" width="71.28" height="71.28" fill="none"/></svg>