<svg xmlns="http://www.w3.org/2000/svg" viewBox="0 0 72 72"><title>1-icons_special</title><path d="M62.72,29.63a1.5,1.5,0,0,0,1.22-1.47V10.22a1.5,1.5,0,0,0-1.78-1.47l-21.24,4a1.5,1.5,0,0,0-1.22,1.47v8.24L32,24V16.19a1.5,1.5,0,0,0-1.78-1.47L9,18.7a1.5,1.5,0,0,0-1.22,1.47V38.12a1.5,1.5,0,0,0,1.5,1.5l.28,0,21.24-4A1.5,1.5,0,0,0,32,34.14v-8l7.68-1.52v7.53a1.5,1.5,0,0,0,1.5,1.5l.28,0,9.91-1.86v7.8l-10.46,2A1.5,1.5,0,0,0,39.71,43V60.94a1.5,1.5,0,0,0,1.5,1.5l.28,0,21.24-4A1.5,1.5,0,0,0,63.94,57V39a1.5,1.5,0,0,0-1.78-1.47l-8.77,1.64v-7.8ZM29,32.89,10.79,36.31V21.42L29,18ZM60.94,55.71,42.71,59.13V44.24l18.24-3.42ZM42.71,15.44,60.94,12V26.91L42.71,30.33Z" fill="gray"/><path d="M22.6,26.78A3,3,0,0,1,20,29.7a2.3,2.3,0,0,1-2.62-2.33A3,3,0,0,1,20,24.45,2.3,2.3,0,0,1,22.6,26.78Z" fill="gray"/><path d="M54.95,20.76a3,3,0,0,1-2.62,2.92,2.3,2.3,0,0,1-2.62-2.33,3,3,0,0,1,2.63-2.92A2.3,2.3,0,0,1,54.95,20.76Z" fill="gray"/><path d="M54.95,49.39a3,3,0,0,1-2.62,2.92A2.3,2.3,0,0,1,49.7,50a3,3,0,0,1,2.63-2.92A2.3,2.3,0,0,1,54.95,49.39Z" fill="gray"/><rect x="0.36" y="0.36" width="71.28" height="71.28" fill="none"/></svg>