<svg xmlns="http://www.w3.org/2000/svg" viewBox="0 0 72 72"><title>1-icons_special</title><path d="M46.55,63.71H25.43v-3h9.13V55.83H9.11a1.5,1.5,0,0,1-1.5-1.5V10.7a1.5,1.5,0,0,1,1.5-1.5h54a1.5,1.5,0,0,1,1.5,1.5V54.33a1.5,1.5,0,0,1-1.5,1.5H37.55v4.88h9ZM36.05,52.83H61.62V12.2h-51V52.83Z" fill="gray"/><path d="M14.19,25.13h2.5v8.32q0,.72.07,1.46a3.34,3.34,0,0,0,.4,1.33,2.54,2.54,0,0,0,1,1,3.87,3.87,0,0,0,1.89.38,3.87,3.87,0,0,0,1.89-.38,2.55,2.55,0,0,0,1-1,3.34,3.34,0,0,0,.4-1.33q.07-.74.07-1.46V25.13h2.5v9.14a6.27,6.27,0,0,1-.42,2.4,4.62,4.62,0,0,1-1.19,1.71,5,5,0,0,1-1.85,1,8.64,8.64,0,0,1-4.8,0,5,5,0,0,1-1.85-1,4.62,4.62,0,0,1-1.19-1.71,6.27,6.27,0,0,1-.42-2.4Z" fill="gray"/><path d="M27.89,25.13h2.64L37,35.65h0V25.13h2.38V39.41H36.83l-6.5-10.5h-.06v10.5H27.89Z" fill="gray"/><path d="M42,25.13h2.5V39.41H42Z" fill="gray"/><path d="M45.95,25.13h3l3.24,5,3.38-5h2.8L53.63,32l5.06,7.4h-3l-3.56-5.46-3.62,5.46H45.61L50.67,32Z" fill="gray"/><rect x="0.36" y="0.36" width="71.28" height="71.28" fill="none"/></svg>