<svg xmlns="http://www.w3.org/2000/svg" viewBox="0 0 72 72"><title>1-icons_special</title><path d="M46.4,63.71H25.27v-3H34.4V55.83H9a1.5,1.5,0,0,1-1.5-1.5V10.7A1.5,1.5,0,0,1,9,9.2H63a1.5,1.5,0,0,1,1.5,1.5V54.33a1.5,1.5,0,0,1-1.5,1.5H37.4v4.88h9ZM35.9,52.83H61.46V12.2h-51V52.83Z" fill="gray"/><polygon points="19.29 31.51 19.29 20.54 32.77 18.71 32.77 31.54 19.29 31.51" fill="gray"/><polygon points="19.29 33.64 19.29 44.38 32.77 46.22 32.77 33.6 19.29 33.64" fill="gray"/><polygon points="34.83 31.51 34.83 18.5 52.45 15.92 52.45 31.54 34.83 31.51" fill="gray"/><polygon points="34.83 33.64 34.83 46.52 52.45 48.91 52.45 33.6 34.83 33.64" fill="gray"/><rect x="0.36" y="0.36" width="71.28" height="71.28" fill="none"/></svg>