<svg xmlns="http://www.w3.org/2000/svg" viewBox="0 0 72 72"><title>1-icons_special</title><path d="M51.53,48H24.38a19.24,19.24,0,0,1-19-19.39,19.24,19.24,0,0,1,19-19.39H55.75v3H24.38c-8.7,0-16,7.5-16,16.39S15.69,45,24.38,45H51.53Z" fill="gray"/><circle cx="23.65" cy="28.58" r="4.2" fill="gray"/><circle cx="51.67" cy="28.58" r="4.2" fill="gray"/><circle cx="37.59" cy="28.58" r="4.2" fill="gray"/><path d="M49.59,64.54a1.64,1.64,0,0,1-1.17-.48L42,57.62a1.65,1.65,0,0,1,2.33-2.33l5.27,5.27L61.92,48.23a1.65,1.65,0,1,1,2.33,2.33l-13.5,13.5A1.64,1.64,0,0,1,49.59,64.54Z" fill="gray"/><rect x="0.36" y="0.36" width="71.28" height="71.28" fill="none"/></svg>