<svg xmlns="http://www.w3.org/2000/svg" viewBox="0 0 72 72"><title>1-icons_special</title><path d="M46.45,63.71H25.32v-3h9.12V55.83H9a1.5,1.5,0,0,1-1.5-1.5V10.7A1.5,1.5,0,0,1,9,9.2H63a1.5,1.5,0,0,1,1.5,1.5V54.33a1.5,1.5,0,0,1-1.5,1.5H37.45v4.88h9ZM35.95,52.83H61.51V12.2h-51V52.83Z" fill="gray"/><path d="M52.26,45.61H19.86V18.66h32.4ZM21.62,43.85H50.5V20.42H21.62Z" fill="gray"/><path d="M39.58,49.25A25.66,25.66,0,0,1,38,34.78H32.1V33.9c0-9.47,7.73-18.43,8.05-18.81l1.33,1.16c-.07.08-7.12,8.27-7.6,16.77h6.26l-.23,1.07a24.35,24.35,0,0,0,1.25,14.4Z" fill="gray"/><path d="M36.15,40.73A24.18,24.18,0,0,1,25.09,38l.8-1.57a22.22,22.22,0,0,0,20.51,0L47.2,38A24.17,24.17,0,0,1,36.15,40.73Z" fill="gray"/><rect x="41.48" y="23.45" width="1.76" height="3.52" fill="gray"/><rect x="28.15" y="23.45" width="1.76" height="3.52" fill="gray"/><rect x="0.36" y="0.36" width="71.28" height="71.28" fill="none"/></svg>