<svg xmlns="http://www.w3.org/2000/svg" viewBox="0 0 72 72"><title>1-icons_special</title><path d="M55.66,21.86l-6-5.8a1.5,1.5,0,0,0-2.11,0l-26,26.16a1.51,1.51,0,0,0-.32.48l-4.19,10a1.5,1.5,0,0,0,2,2l10.15-4.18a1.5,1.5,0,0,0,.49-.33L55.68,24a1.5,1.5,0,0,0,0-2.13Zm-27.85,26-6.51,2.68L24,44.15l20.85-21,3.81,3.71ZM50,25.42l-3.81-3.71,2.45-2.47L52.49,23Z" fill="gray"/><path d="M53.06,64.52H18.88A11.51,11.51,0,0,1,7.38,53V18.85a11.51,11.51,0,0,1,11.5-11.5H53.06a11.51,11.51,0,0,1,11.5,11.5V53A11.51,11.51,0,0,1,53.06,64.52ZM18.88,10.35a8.51,8.51,0,0,0-8.5,8.5V53a8.51,8.51,0,0,0,8.5,8.5H53.06a8.51,8.51,0,0,0,8.5-8.5V18.85a8.51,8.51,0,0,0-8.5-8.5Z" fill="gray"/></svg>