<svg xmlns="http://www.w3.org/2000/svg" viewBox="0 0 72 72"><title>1-icons_special</title><path d="M15.88,53.75a10.84,10.84,0,0,1,.21-21.68,10.69,10.69,0,0,1,2.43.28,18.26,18.26,0,0,1,33.93-5.69,11.58,11.58,0,0,1,1.63-.11C61.19,26.54,67,32.65,67,40.15c0,7.34-5.43,13.31-12.36,13.58l-7,0h0a2,2,0,0,1,0-4l6.88,0c4.7-.18,8.44-4.39,8.44-9.58s-4-9.61-8.91-9.61a6.93,6.93,0,0,0-1.47.14,3.08,3.08,0,0,1-3.41-1.62,14.26,14.26,0,0,0-26.86,4.8,3.08,3.08,0,0,1-4.09,2.56,6.55,6.55,0,0,0-2.16-.36,6.84,6.84,0,0,0-.17,13.68H35.59a2,2,0,0,1,0,4Zm3.69-21.1h0Z" fill="gray"/><rect x="0.36" y="0.36" width="71.28" height="71.28" fill="none"/></svg>