<svg xmlns="http://www.w3.org/2000/svg" viewBox="0 0 72 72"><title>1-icons_special</title><path d="M62.08,24.45h-.25L10,24.45A3.5,3.5,0,0,1,6.48,21V11.12A3.5,3.5,0,0,1,10,7.62h52.1a3.5,3.5,0,0,1,3.5,3.5V21A3.5,3.5,0,0,1,62.08,24.45ZM10,10.62a.5.5,0,0,0-.5.5V21a.5.5,0,0,0,.5.5l51.92,0h.23a.5.5,0,0,0,.45-.5V11.12a.5.5,0,0,0-.5-.5Z" fill="gray"/><path d="M62.08,44.43h-.25L10,44.43a3.5,3.5,0,0,1-3.5-3.5V31.09a3.5,3.5,0,0,1,3.5-3.5h52.1a3.5,3.5,0,0,1,3.5,3.5v9.83A3.5,3.5,0,0,1,62.08,44.43ZM10,30.59a.5.5,0,0,0-.5.5v9.83a.5.5,0,0,0,.5.5l51.92,0h.23a.5.5,0,0,0,.45-.5V31.09a.5.5,0,0,0-.5-.5Z" fill="gray"/><path d="M62.08,64.4h-.25L10,64.4a3.5,3.5,0,0,1-3.5-3.5V51.07a3.5,3.5,0,0,1,3.5-3.5h52.1a3.5,3.5,0,0,1,3.5,3.5V60.9A3.5,3.5,0,0,1,62.08,64.4ZM10,50.57a.5.5,0,0,0-.5.5V60.9a.5.5,0,0,0,.5.5l51.92,0h.22a.5.5,0,0,0,.45-.5V51.07a.5.5,0,0,0-.5-.5Z" fill="gray"/><path d="M21.62,16.95h-6a1,1,0,0,1,0-2h6a1,1,0,0,1,0,2Z" fill="gray"/><path d="M21.62,37h-6a1,1,0,1,1,0-2h6a1,1,0,0,1,0,2Z" fill="gray"/><path d="M21.62,57.13h-6a1,1,0,0,1,0-2h6a1,1,0,1,1,0,2Z" fill="gray"/></svg>