<svg xmlns="http://www.w3.org/2000/svg" viewBox="0 0 72 72"><title>1-icons_special</title><path d="M53.59,48.37h-28A19.74,19.74,0,0,1,6.07,28.49,19.74,19.74,0,0,1,25.61,8.6H57.47v4H25.61c-8.42,0-15.54,7.27-15.54,15.89s7.12,15.89,15.54,15.89h28Z" fill="gray"/><circle cx="24.87" cy="28.5" r="4.2" fill="gray"/><circle cx="52.89" cy="28.5" r="4.2" fill="gray"/><circle cx="38.81" cy="28.5" r="4.2" fill="gray"/><path d="M50.82,64.81a2,2,0,0,1-1.41-.59L43,57.79A2,2,0,0,1,45.8,55l5,5L62.9,47.9a2,2,0,0,1,2.83,2.83l-13.5,13.5A2,2,0,0,1,50.82,64.81Z" fill="gray"/><rect x="0.36" y="0.36" width="71.28" height="71.28" fill="none"/></svg>