<svg xmlns="http://www.w3.org/2000/svg" viewBox="0 0 72 72"><title>m_filter-adv</title><path d="M67.59,8.32a2,2,0,0,0-1.83-1.19H6.4a2,2,0,0,0-1.55,3.27l22,26.94V63.45a2,2,0,0,0,2.78,1.84l13.3-5.65a2,2,0,0,0,1.22-1.84V50.12H61.27a2.35,2.35,0,0,0,2.35-2.35V22.91a2.35,2.35,0,0,0-2.35-2.35H58.1l9.14-10.09A2,2,0,0,0,67.59,8.32ZM52.49,20.56H38l-3.72-3.72a.3.3,0,0,0-.26-.11.36.36,0,0,0-.26.11L32,18.7a.36.36,0,0,0,0,.51L51.32,38.46a.36.36,0,0,0,.16.09L54.78,40h.1a.36.36,0,0,0,.34-.48l-1.53-3.26a.36.36,0,0,0-.09-.13L40.34,22.91H61.27V47.76H37.2V30.16l-2.36-2.39v20a2.35,2.35,0,0,0,2.35,2.35h3v6.36l-9.3,3.95V36.62a2,2,0,0,0-.45-1.27L10.61,11.13H61.23Z" fill="gray"/><rect x="0.36" y="0.36" width="71.28" height="71.28" fill="none"/></svg>