<svg xmlns="http://www.w3.org/2000/svg" viewBox="0 0 72 72"><title>1-icons_special</title><path d="M55.94,21.86l-6-5.8a1.5,1.5,0,0,0-2.11,0l-26,26.16a1.51,1.51,0,0,0-.32.48l-4.19,10a1.5,1.5,0,0,0,2,2l10.15-4.18a1.5,1.5,0,0,0,.49-.33L56,24a1.5,1.5,0,0,0,0-2.13Zm-27.85,26-6.51,2.68,2.67-6.36,20.85-21,3.81,3.71ZM50.31,25.42,46.5,21.71l2.45-2.47L52.76,23Z" fill="gray"/><path d="M53.33,65.51H19.15a12,12,0,0,1-12-12V19.34a12,12,0,0,1,12-12H53.33a12,12,0,0,1,12,12V53.51A12,12,0,0,1,53.33,65.51ZM19.15,11.34a8,8,0,0,0-8,8V53.51a8,8,0,0,0,8,8H53.33a8,8,0,0,0,8-8V19.34a8,8,0,0,0-8-8Z" fill="gray"/><rect x="0.36" y="0.36" width="71.28" height="71.28" fill="none"/></svg>