<svg xmlns="http://www.w3.org/2000/svg" viewBox="0 0 72 72"><title>1-icons_special</title><path d="M49.73,64.38H41.65v-3h8.07a1.19,1.19,0,0,0,1.18-1.19V11.37a1.19,1.19,0,0,0-1.18-1.19H22.33a1.19,1.19,0,0,0-1.18,1.19V60.19a1.19,1.19,0,0,0,1.18,1.19H30v3H22.33a4.19,4.19,0,0,1-4.18-4.19V11.37a4.19,4.19,0,0,1,4.18-4.19h27.4a4.19,4.19,0,0,1,4.18,4.19V60.19A4.19,4.19,0,0,1,49.73,64.38Z" fill="gray"/><path d="M41.12,18.55H30.94a1,1,0,1,1,0-2H41.12a1,1,0,0,1,0,2Z" fill="gray"/><path d="M41.12,25.62H30.94a1,1,0,1,1,0-2H41.12a1,1,0,0,1,0,2Z" fill="gray"/><path d="M31.5,41h1.9L36,49.27h0L38.7,41h1.85L37,51.44H35Z" fill="gray"/><path d="M46.86,57.92h-2.7v-2h1.7v-1.7h2v2.7A1,1,0,0,1,46.86,57.92Z" fill="gray"/><path d="M41.84,57.92H37.19v-2h4.65Zm-7,0H30.22v-2h4.65Z" fill="gray"/><path d="M27.9,57.92H25.2a1,1,0,0,1-1-1v-2.7h2v1.7h1.7Z" fill="gray"/><path d="M26.2,51.9h-2V47.25h2Zm0-7h-2V40.28h2Z" fill="gray"/><path d="M26.2,38h-2v-2.7a1,1,0,0,1,1-1h2.7v2H26.2Z" fill="gray"/><path d="M41.84,36.26H37.19v-2h4.65Zm-7,0H30.22v-2h4.65Z" fill="gray"/><path d="M47.86,38h-2v-1.7h-1.7v-2h2.7a1,1,0,0,1,1,1Z" fill="gray"/><path d="M47.86,51.9h-2V47.25h2Zm0-7h-2V40.28h2Z" fill="gray"/><rect x="0.36" y="0.36" width="71.28" height="71.28" fill="none"/></svg>