<svg xmlns="http://www.w3.org/2000/svg" viewBox="0 0 72 72"><title>1-icons_special</title><path d="M49.91,64.77H41.83v-4h8.07a.69.69,0,0,0,.68-.69V11.27a.69.69,0,0,0-.68-.69H22.51a.69.69,0,0,0-.68.69V60.09a.69.69,0,0,0,.68.69h7.68v4H22.51a4.69,4.69,0,0,1-4.68-4.69V11.27a4.69,4.69,0,0,1,4.68-4.69h27.4a4.69,4.69,0,0,1,4.68,4.69V60.09A4.69,4.69,0,0,1,49.91,64.77Z" fill="gray"/><path d="M41.3,18.44H31.11a1,1,0,0,1,0-2H41.3a1,1,0,0,1,0,2Z" fill="gray"/><path d="M41.3,25.52H31.11a1,1,0,0,1,0-2H41.3a1,1,0,0,1,0,2Z" fill="gray"/><rect x="0.36" y="0.36" width="71.28" height="71.28" fill="none"/></svg>